<svg id="_25-Loudly_Crying_Face" data-name="25-Loudly Crying Face" xmlns="http://www.w3.org/2000/svg" xmlns:xlink="http://www.w3.org/1999/xlink" width="20.87" height="20.872" viewBox="0 0 20.87 20.872">
  <defs>
    <linearGradient id="linear-gradient" x1="0.5" y1="0.005" x2="0.5" y2="1.005" gradientUnits="objectBoundingBox">
      <stop offset="0" stop-color="#ffe100"/>
      <stop offset="1" stop-color="#f98900"/>
    </linearGradient>
    <linearGradient id="linear-gradient-2" x1="0.5" y1="0.752" x2="0.5" y2="0.025" gradientUnits="objectBoundingBox">
      <stop offset="0" stop-color="#911625"/>
      <stop offset="0.412" stop-color="#69101b"/>
      <stop offset="0.788" stop-color="#4b0c13"/>
      <stop offset="1" stop-color="#400a10"/>
    </linearGradient>
    <linearGradient id="linear-gradient-3" x1="0.5" y1="0.04" x2="0.5" y2="0.978" gradientUnits="objectBoundingBox">
      <stop offset="0" stop-color="#8ad4ff"/>
      <stop offset="0.535" stop-color="#3e9ff5"/>
      <stop offset="1" stop-color="#0073ed"/>
    </linearGradient>
    <linearGradient id="linear-gradient-4" x1="0.5" y1="0.037" x2="0.5" y2="0.973" xlink:href="#linear-gradient-3"/>
    <linearGradient id="linear-gradient-5" x1="0.087" y1="1.3" x2="0.412" y2="0.793" gradientUnits="objectBoundingBox">
      <stop offset="0" stop-color="#8ad4ff"/>
      <stop offset="0.26" stop-color="#5ab3f9"/>
      <stop offset="0.745" stop-color="#0577ee"/>
      <stop offset="1" stop-color="#0073ed"/>
    </linearGradient>
    <linearGradient id="linear-gradient-6" x1="0.859" y1="1.368" x2="0.61" y2="0.898" xlink:href="#linear-gradient-5"/>
  </defs>
  <path id="Path_3623" data-name="Path 3623" d="M11.109,21.218C2.076,21.218.987,13.391,1,11.435v-.652C.987,8.826,2.076,1,11.109,1h0c9.033,0,10.121,7.826,10.109,9.783v.652C21.23,13.391,20.141,21.218,11.109,21.218Z" transform="translate(-0.674 -0.674)" fill="url(#linear-gradient)"/>
  <path id="Path_3624" data-name="Path 3624" d="M27.824,37.639c.013.173-.121.31-.261.264a10.182,10.182,0,0,0-3.652-.968,10.182,10.182,0,0,0-3.652.968c-.14.046-.274-.091-.261-.264a4.053,4.053,0,0,1,.2-.985,3.794,3.794,0,0,1,1.109-1.64,3.854,3.854,0,0,1,5.211,0,3.794,3.794,0,0,1,1.109,1.64A4.053,4.053,0,0,1,27.824,37.639Z" transform="translate(-13.476 -22.913)" fill="url(#linear-gradient-2)"/>
  <path id="Path_3625" data-name="Path 3625" d="M6.217,33.876a11.1,11.1,0,0,0,4.523.991v0H1.652a.638.638,0,0,1-.46-.192.646.646,0,0,1,0-.92.638.638,0,0,1,.46-.192,1.3,1.3,0,0,0,1.3-1.3V31.147c.023-6.1,1.63-8.994,1.63-8.994L4.561,22.1a10.778,10.778,0,0,1,2.932-.838A33.375,33.375,0,0,0,6.358,29C6.273,30.413,6.217,32.031,6.217,33.876Z" transform="translate(-0.674 -14.327)" fill="url(#linear-gradient-3)"/>
  <path id="Path_3626" data-name="Path 3626" d="M37.565,33.876c0-1.846-.055-3.463-.14-4.872A33.376,33.376,0,0,0,36.29,21.26a10.778,10.778,0,0,1,2.932.838l-.026.055s1.608,2.892,1.63,8.994v1.115a1.3,1.3,0,0,0,1.3,1.3.652.652,0,0,1,0,1.3H33v0A11.06,11.06,0,0,0,37.565,33.876Z" transform="translate(-22.239 -14.327)" fill="url(#linear-gradient-4)"/>
  <path id="Path_3627" data-name="Path 3627" d="M6.544,54.45c-.045-.019-.086-.04-.13-.06-.065-.029-.132-.056-.2-.086v0a8.424,8.424,0,0,1-3.261-2.729v1.118a1.3,1.3,0,0,1-1.3,1.3.638.638,0,0,0-.46.192.646.646,0,0,0,0,.92.638.638,0,0,0,.46.192H10.74v0a11.217,11.217,0,0,1-4.327-.905C6.457,54.409,6.5,54.43,6.544,54.45Z" transform="translate(-0.674 -34.754)" fill="url(#linear-gradient-5)"/>
  <path id="Path_3628" data-name="Path 3628" d="M42.59,54.186a.638.638,0,0,0-.46-.192,1.3,1.3,0,0,1-1.3-1.3V51.571A8.424,8.424,0,0,1,37.565,54.3v0c-.065.033-.137.06-.206.091-.04.018-.079.038-.12.055.041-.018.08-.037.12-.055a11.185,11.185,0,0,1-4.359.9v0h9.13a.65.65,0,0,0,.46-1.112Z" transform="translate(-22.239 -34.754)" fill="url(#linear-gradient-6)"/>
  <path id="Path_3629" data-name="Path 3629" d="M54.829,10.394c-.163-.219-.338-.43-.518-.628l.482-.44c.2.213.382.441.559.677Z" transform="translate(-36.601 -6.286)" fill="#1d1d1b"/>
  <path id="Path_3630" data-name="Path 3630" d="M2.018,17.011A11.41,11.41,0,0,1,0,10.759v-.65A11.057,11.057,0,0,1,2.942,2.765,10.13,10.13,0,0,1,10.435,0,10.355,10.355,0,0,1,17.5,2.364l-.431.489a9.726,9.726,0,0,0-6.636-2.2A9.507,9.507,0,0,0,3.4,3.225,10.357,10.357,0,0,0,.652,10.106v.654a10.812,10.812,0,0,0,1.9,5.87Z" transform="translate(0 0)" fill="#1d1d1b"/>
  <path id="Path_3631" data-name="Path 3631" d="M45.036,22.228A10.179,10.179,0,0,0,40,20.652V20a10.663,10.663,0,0,1,5.4,1.686Z" transform="translate(-26.956 -13.478)" fill="#1d1d1b"/>
  <path id="Path_3632" data-name="Path 3632" d="M45.912,14.768c-4.12,0-4.853-2.739-4.882-2.856l.632-.16c.025.1.659,2.363,4.249,2.363Z" transform="translate(-27.65 -7.92)" fill="#1d1d1b"/>
  <path id="Path_3633" data-name="Path 3633" d="M26.944,37.563a.507.507,0,0,1-.153-.024c-.14-.045-.309-.115-.522-.2a7.894,7.894,0,0,0-3.033-.75,7.894,7.894,0,0,0-3.033.75c-.214.089-.383.159-.522.2a.5.5,0,0,1-.467-.087A.6.6,0,0,1,19,36.936a4.365,4.365,0,0,1,.215-1.063h0a4.124,4.124,0,0,1,1.2-1.781,4.188,4.188,0,0,1,5.646,0,4.12,4.12,0,0,1,1.2,1.78,4.365,4.365,0,0,1,.215,1.063.6.6,0,0,1-.216.516.5.5,0,0,1-.313.113ZM23.237,33.65a3.676,3.676,0,0,0-3.405,2.433h0a3.65,3.65,0,0,0-.169.77c.086-.033.185-.075.293-.12a8.576,8.576,0,0,1,3.281-.8,8.576,8.576,0,0,1,3.281.8c.108.045.206.086.293.12a3.582,3.582,0,0,0-3.575-3.2Z" transform="translate(-12.802 -22.237)" fill="#1d1d1b"/>
  <path id="Path_3634" data-name="Path 3634" d="M42.13,36.717H33v-.652h9.13a.326.326,0,0,0,0-.652,1.632,1.632,0,0,1-1.63-1.63V32.8c0-6.019-1.574-8.944-1.59-8.973l.57-.316c.068.123,1.672,3.08,1.672,9.289v.978a.978.978,0,0,0,.978.978.978.978,0,0,1,0,1.957Z" transform="translate(-22.239 -15.847)" fill="#1d1d1b"/>
  <path id="Path_3635" data-name="Path 3635" d="M7.807,22.228l-.363-.542A10.663,10.663,0,0,1,12.843,20v.652a10.179,10.179,0,0,0-5.036,1.575Z" transform="translate(-5.016 -13.478)" fill="#1d1d1b"/>
  <path id="Path_3636" data-name="Path 3636" d="M8,14.768v-.652c3.591,0,4.224-2.267,4.249-2.363l.632.16C12.853,12.029,12.12,14.768,8,14.768Z" transform="translate(-5.391 -7.92)" fill="#1d1d1b"/>
  <path id="Path_3637" data-name="Path 3637" d="M56.718,26.09l-.53-.381a10.811,10.811,0,0,0,1.9-5.867v-.69a10.924,10.924,0,0,0-1.562-5.335l.554-.344a11.568,11.568,0,0,1,1.659,5.68v.688A11.408,11.408,0,0,1,56.718,26.09Z" transform="translate(-37.866 -9.079)" fill="#1d1d1b"/>
  <path id="Path_3638" data-name="Path 3638" d="M21.217,34.791a11.727,11.727,0,0,1-4.933-.981A.326.326,0,0,1,16,33.487c0-9.083,1.27-12.68,1.324-12.829l.613.223c-.013.035-1.263,3.6-1.285,12.381a11.155,11.155,0,0,0,4.565.878,11.155,11.155,0,0,0,4.565-.878c-.021-8.778-1.272-12.345-1.284-12.381l.613-.223c.053.149,1.324,3.741,1.324,12.811v.018a.326.326,0,0,1-.285.323A11.727,11.727,0,0,1,21.217,34.791Z" transform="translate(-10.782 -13.922)" fill="#1d1d1b"/>
  <path id="Path_3639" data-name="Path 3639" d="M10.109,36.717H.978a.978.978,0,0,1,0-1.957.978.978,0,0,0,.978-.978V32.8c0-6.209,1.6-9.166,1.672-9.289l.57.316c-.016.029-1.59,2.953-1.59,8.973v.978a1.632,1.632,0,0,1-1.63,1.63.326.326,0,1,0,0,.652h9.13Z" transform="translate(0 -15.847)" fill="#1d1d1b"/>
</svg>
