<svg id="Group_16765" data-name="Group 16765" xmlns="http://www.w3.org/2000/svg" xmlns:xlink="http://www.w3.org/1999/xlink" width="18.904" height="21.081" viewBox="0 0 18.904 21.081">
  <defs>
    <linearGradient id="linear-gradient" x1="0.5" y1="0.005" x2="0.5" y2="1.005" gradientUnits="objectBoundingBox">
      <stop offset="0" stop-color="#e9e9e9"/>
      <stop offset="1" stop-color="#c7c7c7"/>
    </linearGradient>
    <linearGradient id="linear-gradient-2" x1="0.5" y1="1.036" x2="0.5" y2="0.042" xlink:href="#linear-gradient"/>
    <linearGradient id="linear-gradient-3" x1="0.5" y1="0" x2="0.5" y2="1" xlink:href="#linear-gradient"/>
  </defs>
  <g id="Group_16753" data-name="Group 16753" transform="translate(0 0)">
    <g id="_17-_Face_with_Open_Mouth" data-name="17- Face with Open Mouth" transform="translate(0 0)">
      <path id="Path_3527" data-name="Path 3527" d="M10.156,19.312C1.974,19.312.989,12.224,1,10.452V9.861C.989,8.089,1.974,1,10.156,1h0c8.182,0,9.167,7.089,9.156,8.861v.591C19.323,12.224,18.338,19.312,10.156,19.312Z" transform="translate(-0.704 -0.705)" fill="url(#linear-gradient)"/>
      <path id="Path_4086" data-name="Path 4086" d="M2.3,0A2.3,2.3,0,1,1,0,2.3,2.3,2.3,0,0,1,2.3,0Z" transform="translate(7.604 10.576)" fill="url(#linear-gradient-2)"/>
      <path id="Path_3528" data-name="Path 3528" d="M54.78,10.294c-.148-.2-.305-.388-.47-.569l.437-.4c.177.195.347.4.506.613Z" transform="translate(-38.269 -6.572)" fill="#1d1d1b"/>
      <path id="Subtraction_11" data-name="Subtraction 11" d="M1.572,15.034A10.408,10.408,0,0,1,0,9.745V9.156A10.015,10.015,0,0,1,2.665,2.5,9.176,9.176,0,0,1,9.452,0a9.381,9.381,0,0,1,6.4,2.141l-.39.443A8.811,8.811,0,0,0,9.452.591a8.609,8.609,0,0,0-6.368,2.33A9.382,9.382,0,0,0,.591,9.154v.593a9.844,9.844,0,0,0,.8,3.679,8.41,8.41,0,0,0,.18,1.607Z" fill="#1d1d1b"/>
      <path id="Subtraction_10" data-name="Subtraction 10" d="M5.037,14.82A8.6,8.6,0,0,1,0,12.5l.413-.422a7.785,7.785,0,0,0,3.951,2.029,2.041,2.041,0,0,0,.673.711Zm4.1-.127h0a1.84,1.84,0,0,0,.575-.747A7.582,7.582,0,0,0,13.073,12a9.38,9.38,0,0,0,2.493-6.232V5.145A9.913,9.913,0,0,0,14.151.312l.5-.312a10.5,10.5,0,0,1,1.5,5.145v.623a10.015,10.015,0,0,1-2.665,6.652A8.343,8.343,0,0,1,9.135,14.693Z" transform="translate(2.747 3.979)" fill="#1d1d1b"/>
      <path id="Path_3533" data-name="Path 3533" d="M27.355,42.055c-1.3,0-2.355-1.358-2.355-3.028S26.057,36,27.355,36s2.355,1.358,2.355,3.028S28.653,42.055,27.355,42.055Zm0-5.382c-.927,0-1.682,1.057-1.682,2.355s.755,2.355,1.682,2.355,1.682-1.057,1.682-2.355S28.282,36.673,27.355,36.673Z" transform="translate(-17.616 -26.106)" fill="#1d1d1b"/>
      <path id="Path_3742" data-name="Path 3742" d="M44.561,22.018A9.22,9.22,0,0,0,40,20.591V20a9.658,9.658,0,0,1,4.89,1.527Z" transform="translate(-27.906 -15.57)" fill="#1d1d1b"/>
      <path id="Path_3743" data-name="Path 3743" d="M7.773,22.018l-.329-.491A9.658,9.658,0,0,1,12.334,20v.591a9.22,9.22,0,0,0-4.561,1.427Z" transform="translate(-4.966 -15.57)" fill="#1d1d1b"/>
    </g>
    <path id="Path_3744" data-name="Path 3744" d="M4.422,0C.689,0,.026,2.481,0,2.587l.573.145C.6,2.644,1.169.591,4.422.591Z" transform="translate(4.984 5.185) rotate(42)" fill="#1d1d1b"/>
    <path id="Path_3745" data-name="Path 3745" d="M4.422,2.732C.689,2.732.026.25,0,.145L.573,0c.023.088.6,2.141,3.849,2.141Z" transform="translate(16.659 7.215) rotate(138)" fill="#1d1d1b"/>
  </g>
  <g id="Group_16756" data-name="Group 16756" transform="translate(1.799 10.639)">
    <path id="Path_3753" data-name="Path 3753" d="M14.376,34.476a3.039,3.039,0,0,1-2.461-1.259l-.647-.9a1.9,1.9,0,0,1-.33-.812.817.817,0,0,1-.038-.137,13.654,13.654,0,0,1,.014-2.907l-.4-1.716a.62.62,0,0,1,.134-.488.6.6,0,0,1,.415-.213c.05,0,.1-.007.149-.007A1.808,1.808,0,0,1,13,27.69l.1.921c.289-.224.654-.515.872-.718a16.891,16.891,0,0,0,1.92-2.334c.068-.095.119-.167.15-.207a1.4,1.4,0,0,1,1-.7.778.778,0,0,1,.369.1c.531.286.423,1.062.229,1.484-.043.095-.089.187-.136.276.075-.073.146-.141.212-.2a1.525,1.525,0,0,1,.971-.488.764.764,0,0,1,.541.226,1.13,1.13,0,0,1-.143,1.526c-.1.117-.2.236-.313.353a1.421,1.421,0,0,1,.757-.288.7.7,0,0,1,.559.272c.162.2.468.728-.2,1.377-.1.093-.286.255-.517.449a.938.938,0,0,1,.283-.046.745.745,0,0,1,.684.446c.352.729-.5,1.254-.819,1.452-.011.007-1.454.93-2,1.322l-1.377.992A3,3,0,0,1,14.376,34.476Z" transform="translate(-10.192 -24.344)" fill="url(#linear-gradient-3)"/>
    <path id="Path_3754" data-name="Path 3754" d="M16.85,24.774a.465.465,0,0,1,.223.06c.327.176.237.771.095,1.082-.627,1.368-1.744,2.2-1.595,2.346a.058.058,0,0,0,.044.016c.293,0,1.481-1.35,2.118-1.927a1.268,1.268,0,0,1,.762-.407.451.451,0,0,1,.325.138c.3.293.095.8-.164,1.1-.928,1.1-2.4,2.3-2.257,2.5a.049.049,0,0,0,.042.017,14.25,14.25,0,0,0,2.178-1.615,1.392,1.392,0,0,1,.717-.327.4.4,0,0,1,.319.159c.237.288.174.617-.179.958-.386.374-2.315,1.868-2.19,2.041a.068.068,0,0,0,.06.023,7.159,7.159,0,0,0,1.629-.95.891.891,0,0,1,.484-.179.435.435,0,0,1,.405.271c.152.314-.012.626-.7,1.053,0,0-1.459.933-2.015,1.333l-1.377.992a2.719,2.719,0,0,1-3.8-.618l-.647-.9a1.6,1.6,0,0,1-.28-.711.556.556,0,0,1-.033-.107,13.982,13.982,0,0,1,.022-2.877l-.415-1.766a.3.3,0,0,1,.272-.321c.042,0,.083,0,.125,0A1.489,1.489,0,0,1,12.5,27.526L12.659,29s.913-.683,1.332-1.072A19.192,19.192,0,0,0,16.1,25.349c.245-.325.489-.575.754-.575m0-.62a1.657,1.657,0,0,0-1.248.821c-.032.042-.084.115-.154.213a16.631,16.631,0,0,1-1.878,2.287c-.109.1-.257.226-.414.354l-.04-.37a2.115,2.115,0,0,0-2.1-1.919c-.058,0-.117,0-.176.007a.919.919,0,0,0-.839.99l0,.046.011.045.392,1.665a13.767,13.767,0,0,0-.006,2.939,1,1,0,0,0,.042.162,2.19,2.19,0,0,0,.38.915l.647.9A3.351,3.351,0,0,0,14.183,34.6a3.313,3.313,0,0,0,1.949-.63l1.377-.992c.536-.386,1.972-1.3,1.987-1.314.34-.21,1.4-.865.927-1.845a1.1,1.1,0,0,0-.493-.512,1.249,1.249,0,0,0,.206-1.777,1.021,1.021,0,0,0-.718-.382,1.255,1.255,0,0,0-.164-1.507,1.069,1.069,0,0,0-.757-.314,1.31,1.31,0,0,0-.583.147,1.174,1.174,0,0,0-.546-1.182,1.075,1.075,0,0,0-.516-.135Z" transform="translate(-9.999 -24.154)" fill="#1c1911"/>
  </g>
</svg>
