<svg id="Group_16764" data-name="Group 16764" xmlns="http://www.w3.org/2000/svg" xmlns:xlink="http://www.w3.org/1999/xlink" width="19.885" height="22.017" viewBox="0 0 19.885 22.017">
  <defs>
    <linearGradient id="linear-gradient" x1="0.5" x2="0.5" y2="1" gradientUnits="objectBoundingBox">
      <stop offset="0" stop-color="#e9e9e9"/>
      <stop offset="1" stop-color="#c7c7c7"/>
    </linearGradient>
  </defs>
  <path id="Path_3769" data-name="Path 3769" d="M2953.055-721.479s-.309,2.933.386,4.129a4.041,4.041,0,0,0,1.659,1.621s.386,3.975,2.277,4.94,3.2,1.659,5.48-.193,4.9-6.367,4.9-6.367.81-2.277-.463-2.277-.541-.309-.541-.309,1.235-2.238.077-2.238-1.2.463-1.2.463.888-2.122.27-2.431-2.045.733-2.045.733.077-1.505-.5-1.505.733-1.852,0-2.2a1.1,1.1,0,0,0-1.157,0s.81-1.621,0-1.621-1.659.27-1.852.733.077-1.235-.733-1.235-1.543,1.235-1.543,1.235l-3.126,5.325s1.042-1.042-.54-2.238-2.007-.077-1.814.309A24.544,24.544,0,0,1,2953.055-721.479Z" transform="translate(-2950.734 731.441)" fill="url(#linear-gradient)"/>
  <g id="Group_16763" data-name="Group 16763" transform="translate(0 0)">
    <path id="Path_3764" data-name="Path 3764" d="M20.334,14.931a.953.953,0,0,0-1.012-.951h-.011a1.648,1.648,0,0,0-.992.4c-.081.06-.161.122-.254.195l-.034.026-.006-.046c-.014-.113-.025-.2-.042-.293a.819.819,0,0,0-.814-.741,1.072,1.072,0,0,0-.888.323,4.619,4.619,0,0,0-.487.6,42.274,42.274,0,0,0-2.6,4.376,2.271,2.271,0,0,1-.148.231l-.022.032L13,19.033c-.049-.095-.091-.175-.134-.254a2.984,2.984,0,0,0-1.512-1.4,1.154,1.154,0,0,0-1.168.133,1.187,1.187,0,0,0-.413,1.137,2.821,2.821,0,0,0,.127.472,5.742,5.742,0,0,1,.3,2.211c-.056,1-.075,1.99-.092,3.087a2.088,2.088,0,0,0,.123.727,5.168,5.168,0,0,0,1.916,2.541.664.664,0,0,1,.335.665l0,.077a4.177,4.177,0,0,0,.093,1.359,5.241,5.241,0,0,0,3.656,3.721,4.665,4.665,0,0,0,1.354.21,4.075,4.075,0,0,0,1.848-.444,6.935,6.935,0,0,0,1.86-1.347,29.95,29.95,0,0,0,2.252-2.517,16.071,16.071,0,0,0,1.966-2.981,8.235,8.235,0,0,0,.58-1.518,1.48,1.48,0,0,0-1-1.866.429.429,0,0,1-.07-.041L25,23l.028-.067a3.173,3.173,0,0,0,.114-.3c.021-.069.043-.139.066-.209a3.443,3.443,0,0,0,.168-.674,1.142,1.142,0,0,0-.246-.885,1.219,1.219,0,0,0-.879-.4L24,20.439c.007-.069.014-.136.021-.2.021-.2.042-.4.046-.591a.981.981,0,0,0-.91-1.057,1.37,1.37,0,0,0-.322.01c-.057.006-.132.014-.205.015h-.02c-.164,0-.2-.014-.212-.021a1.8,1.8,0,0,0-.954-.617l.034-.1a2.933,2.933,0,0,0,.1-.357l.024-.12a3.349,3.349,0,0,0,.09-.691,1.022,1.022,0,0,0-1.047-1.044c-.094,0-.187,0-.28,0h-.033c0-.066,0-.131,0-.194C20.342,15.28,20.344,15.105,20.334,14.931Zm-6.447,4.125c.353-.636.717-1.294,1.095-1.93.423-.712.882-1.42,1.326-2.1l.222-.341a1.471,1.471,0,0,1,.362-.394.314.314,0,0,1,.318-.069.3.3,0,0,1,.118.287,2.215,2.215,0,0,1-.13.714,11.692,11.692,0,0,1-.535,1.206c-.3.586-.6,1.174-.9,1.743l-.012.024q-.276.529-.549,1.058l-.017.033a.722.722,0,0,0-.115.363A.487.487,0,0,0,15.3,20a.373.373,0,0,0,.386-.116,6.3,6.3,0,0,0,.467-.785,25.466,25.466,0,0,1,2.343-3.72,1.9,1.9,0,0,1,.62-.515c.145-.078.265-.1.331-.049s.082.156.056.306a5.263,5.263,0,0,1-.37,1.3A23.345,23.345,0,0,1,16.77,20.4l-.036.049c-.026.036-.053.071-.077.108l-.017.025c-.091.136-.229.341-.038.547a.511.511,0,0,0,.669.1,1.163,1.163,0,0,0,.391-.393c.651-1.116,1.342-2.3,2.005-3.5a1.912,1.912,0,0,1,.726-.792c.193-.11.3-.119.375-.033a.488.488,0,0,1,.093.356,4.522,4.522,0,0,1-.26.844.387.387,0,0,1-.2.2,2.149,2.149,0,0,0-1.1.88c-.88,1.215-1.782,2.476-2.682,3.746-.165.234-.316.478-.477.738l-.154.247-.1-.267a3.332,3.332,0,0,0-1.311-1.591,1.183,1.183,0,0,0-1.425-.095,1.273,1.273,0,0,0-.55,1.37c.032.188.069.379.105.569.052.271.106.552.146.829a5.589,5.589,0,0,1-.08,1.621c-.042.289-.086.587-.106.891l-.009,0a.324.324,0,0,1-.106-.04,4.238,4.238,0,0,1-1.41-1.934A4.556,4.556,0,0,1,11,23.436c.006-.521.049-1.051.089-1.564.014-.172.027-.345.04-.517a6.155,6.155,0,0,0-.345-2.652l-.02-.052c-.088-.23-.172-.448.034-.594a.375.375,0,0,1,.223-.074.791.791,0,0,1,.462.207,1.757,1.757,0,0,1,.808,1.965.423.423,0,0,0,.166.553.431.431,0,0,0,.6-.19,4.021,4.021,0,0,0,.256-.428l.083-.153q.245-.435.486-.873Zm-.462,9.329c.017-.185.037-.394.065-.6.079-.582.163-1.174.245-1.746l.086-.606a6.185,6.185,0,0,0-.143-2.387l-.006-.023a2.468,2.468,0,0,1-.094-.563.326.326,0,0,1,.1-.27.352.352,0,0,1,.3-.033,1.169,1.169,0,0,1,.25.089,2.029,2.029,0,0,1,.934,2.216c-.095.29-.161.584.147.719.236.1.489-.009.694-.311.249-.368.5-.741.735-1.1.389-.585.79-1.191,1.2-1.776.69-.984,1.414-1.956,2.157-2.948a1.405,1.405,0,0,1,.47-.4.275.275,0,0,1,.278-.015.285.285,0,0,1,.1.267,2.071,2.071,0,0,1-.159.706A12.209,12.209,0,0,1,20.1,20.9c-.4.664-.82,1.334-1.225,1.982l-.6.964-.038.058a.516.516,0,0,0-.118.279.633.633,0,0,0,.155.424.275.275,0,0,0,.221.083.39.39,0,0,0,.27-.174l.11-.152c.14-.191.284-.389.407-.6a25.884,25.884,0,0,1,2.785-3.761,2.125,2.125,0,0,1,.773-.536c.149-.063.267-.07.325-.02s.068.169.028.325a5.839,5.839,0,0,1-.475,1.312,24.733,24.733,0,0,1-2.811,4.035c-.025.03-.051.06-.081.093s-.072.081-.106.123l-.012.015c-.117.145-.277.345-.086.593a.586.586,0,0,0,.716.135,1.508,1.508,0,0,0,.442-.4c.629-.877,1.254-1.766,1.856-2.643.167-.243.318-.5.465-.756l.13-.223a1.7,1.7,0,0,1,.8-.7.36.36,0,0,1,.407,0,.287.287,0,0,1,.063.378c-.065.145-.128.292-.191.44a7.421,7.421,0,0,1-.6,1.209c-.405.61-.855,1.2-1.291,1.779l-.008.011c-.21.278-.428.565-.637.85s-.395.561-.561.833a.527.527,0,0,0-.091.424.845.845,0,0,0,.364.4c.132.067.364-.136.43-.225.266-.357.527-.723.779-1.078q.248-.349.5-.7l.148-.205c.224-.311.455-.633.708-.925a2.032,2.032,0,0,1,.6-.457.328.328,0,0,1,.288-.039.337.337,0,0,1,.14.265,1.315,1.315,0,0,1-.05.609,11.342,11.342,0,0,1-.539,1.306,13.446,13.446,0,0,1-1.772,2.726L22.691,29a2.348,2.348,0,0,0-.265.356,9.934,9.934,0,0,1-1.872,2.19l-.022.021a5,5,0,0,1-1.7,1.052,3.318,3.318,0,0,1-2.275-.025,4.649,4.649,0,0,1-3.047-3.061l-.008-.021a.981.981,0,0,1-.064-.232c-.013-.14-.019-.282-.024-.446v-.022c0-.066-.005-.137-.009-.205s.014-.141.021-.219l-.047,0Z" transform="translate(-8.385 -11.704)"/>
    <path id="Path_3765" data-name="Path 3765" d="M5.369.7H5.326L5.233.7c-.045,0-.1.009-.163.019a7.086,7.086,0,0,0-2.72,1.02A5.159,5.159,0,0,0,.124,4.661a2.357,2.357,0,0,0-.09.53c-.009.126-.028.42.269.46a.358.358,0,0,0,.046,0c.2,0,.255-.182.29-.291l.016-.048c.031-.087.059-.176.088-.264.047-.148.1-.3.158-.446a5.115,5.115,0,0,1,3.908-3c.1-.021.194-.037.289-.052.12-.019.244-.039.373-.071.185-.047.438-.111.453-.413A.281.281,0,0,0,5.849.861.68.68,0,0,0,5.369.7Z" transform="translate(-0.031 -0.696)"/>
    <path id="Path_3766" data-name="Path 3766" d="M110.575,111.933a9.228,9.228,0,0,1-1.943,1.315,2.023,2.023,0,0,0-.29.2c-.043.033-.087.067-.134.1l-.08.058.071.069a.7.7,0,0,0,.5.231,1.094,1.094,0,0,0,.468-.134,8.862,8.862,0,0,0,2.086-1.435,4.656,4.656,0,0,0,1.469-2.607,3.609,3.609,0,0,0-.006-1.109.533.533,0,0,0-.5-.547l-.043,0-.028.033a.9.9,0,0,0-.175.67c0,.043,0,.086,0,.129A3.977,3.977,0,0,1,110.575,111.933Z" transform="translate(-92.879 -92.922)"/>
    <path id="Path_3767" data-name="Path 3767" d="M108.389,110.887a.291.291,0,0,0-.237-.066c-.344.049-.348.332-.351.52,0,.026,0,.053,0,.078a2.519,2.519,0,0,1-1.052,2.008,6.153,6.153,0,0,1-.653.4c-.091.051-.183.1-.272.156a1.2,1.2,0,0,1-.114.056.656.656,0,0,0-.233.147.486.486,0,0,0-.123.407.456.456,0,0,0,.356.23l.045,0a.971.971,0,0,0,.344-.089l.015-.006a4.33,4.33,0,0,0,1.459-.935,3.193,3.193,0,0,0,1-2.259v-.1A.745.745,0,0,0,108.389,110.887Z" transform="translate(-90.484 -95.281)"/>
    <path id="Path_3768" data-name="Path 3768" d="M16.149,16.8l.04-.037c.017-.016.032-.028.046-.039a.2.2,0,0,0,.071-.083,3.5,3.5,0,0,1,2.381-2.17,1.645,1.645,0,0,0,.475-.267.3.3,0,0,0,.1-.306.423.423,0,0,0-.256-.21.592.592,0,0,0-.324.03,4.792,4.792,0,0,0-2.031,1.173,3.282,3.282,0,0,0-.764,1.341.387.387,0,0,0,.213.544Z" transform="translate(-13.617 -11.847)"/>
  </g>
</svg>
