<svg id="_14-Smiling_Face_with_Hearts" data-name="14-Smiling Face with Hearts" xmlns="http://www.w3.org/2000/svg" xmlns:xlink="http://www.w3.org/1999/xlink" width="20.889" height="20.874" viewBox="0 0 20.889 20.874">
  <defs>
    <linearGradient id="linear-gradient" x1="0.5" y1="0.005" x2="0.5" y2="1.005" gradientUnits="objectBoundingBox">
      <stop offset="0" stop-color="#e9e9e9"/>
      <stop offset="1" stop-color="#c7c7c7"/>
    </linearGradient>
    <linearGradient id="linear-gradient-2" x1="0.5" y1="0" x2="0.5" y2="1" xlink:href="#linear-gradient"/>
    <linearGradient id="linear-gradient-4" x1="0.5" y1="0.966" x2="0.5" y2="0.241" xlink:href="#linear-gradient"/>
    <linearGradient id="linear-gradient-5" x1="0.565" y1="0.113" x2="0.302" y2="0.977" xlink:href="#linear-gradient"/>
    <linearGradient id="linear-gradient-6" x1="0.735" y1="0.265" x2="0.063" y2="0.937" xlink:href="#linear-gradient"/>
    <linearGradient id="linear-gradient-7" x1="0.271" y1="0.27" x2="0.93" y2="0.932" xlink:href="#linear-gradient"/>
    <linearGradient id="linear-gradient-8" x1="0.241" y1="0.228" x2="0.937" y2="0.966" xlink:href="#linear-gradient"/>
  </defs>
  <path id="Path_3469" data-name="Path 3469" d="M11.109,21.218C2.076,21.218.987,13.391,1,11.435v-.652C.987,8.826,2.076,1,11.109,1h0c9.033,0,10.121,7.826,10.109,9.783v.652C21.23,13.391,20.141,21.218,11.109,21.218Z" transform="translate(-0.674 -0.671)" fill="url(#linear-gradient)"/>
  <ellipse id="Ellipse_242" data-name="Ellipse 242" cx="3.261" cy="3.261" rx="3.261" ry="3.261" transform="translate(13.696 9.134)" fill="url(#linear-gradient-2)"/>
  <ellipse id="Ellipse_243" data-name="Ellipse 243" cx="3.261" cy="3.261" rx="3.261" ry="3.261" transform="translate(0.652 9.134)" fill="url(#linear-gradient-2)"/>
  <path id="Path_3470" data-name="Path 3470" d="M27.053,40.016a.321.321,0,0,1,.375.48,4.766,4.766,0,0,1-4.184,2.111A4.766,4.766,0,0,1,19.059,40.5a.321.321,0,0,1,.375-.48,12.9,12.9,0,0,0,3.809.678A12.9,12.9,0,0,0,27.053,40.016Z" transform="translate(-12.809 -26.952)" fill="url(#linear-gradient-4)"/>
  <path id="Path_3471" data-name="Path 3471" d="M51.307,1.83a1.63,1.63,0,0,0-1.533.235A1.728,1.728,0,0,0,48.56,1.055a1.155,1.155,0,0,0-1.494.913,2.141,2.141,0,0,0-.027.951,6.983,6.983,0,0,0,1.681,3.3,6.486,6.486,0,0,0,3.021-1.97,2.074,2.074,0,0,0,.428-.837,1.225,1.225,0,0,0-.86-1.577Z" transform="translate(-31.672 -0.668)" fill="url(#linear-gradient-5)"/>
  <path id="Path_3474" data-name="Path 3474" d="M53.181,45.3a1.558,1.558,0,0,0-1.615-.3,1.558,1.558,0,0,0-.3-1.615,1.09,1.09,0,0,0-1.635-.009,1.8,1.8,0,0,0-.444.724,5.985,5.985,0,0,0,.058,3.225,5.985,5.985,0,0,0,3.225.058,1.8,1.8,0,0,0,.724-.444,1.09,1.09,0,0,0-.009-1.635Z" transform="translate(-33.015 -28.982)" fill="url(#linear-gradient-6)"/>
  <path id="Path_3476" data-name="Path 3476" d="M1.385,5.3A1.558,1.558,0,0,1,3,5a1.558,1.558,0,0,1,.3-1.615,1.09,1.09,0,0,1,1.635-.009,1.8,1.8,0,0,1,.444.724,5.985,5.985,0,0,1-.058,3.225A5.985,5.985,0,0,1,2.1,7.383a1.8,1.8,0,0,1-.724-.444A1.09,1.09,0,0,1,1.385,5.3Z" transform="translate(-0.682 -2.026)" fill="url(#linear-gradient-7)"/>
  <path id="Path_3479" data-name="Path 3479" d="M3.586,47.432a1.823,1.823,0,0,0-.62,1.533,1.823,1.823,0,0,0-1.533.62,1.223,1.223,0,0,0-.01,1.835,2.014,2.014,0,0,0,.812.5,6.9,6.9,0,0,0,3.772.088,6.9,6.9,0,0,0-.088-3.772,2.014,2.014,0,0,0-.5-.812,1.223,1.223,0,0,0-1.836.01Z" transform="translate(-0.684 -31.679)" fill="url(#linear-gradient-8)"/>
  <path id="Path_3482" data-name="Path 3482" d="M43.34,2.394c-.205-.079-.418-.151-.631-.216l.19-.624c.228.069.454.147.674.231Z" transform="translate(-28.782 -1.044)" fill="#1d1d1b"/>
  <path id="Path_3483" data-name="Path 3483" d="M16.851,1.611l-.28-.589A11.656,11.656,0,0,1,21.6-.005a13.248,13.248,0,0,1,3.009.326l-.149.635A12.6,12.6,0,0,0,21.6.647a11.013,11.013,0,0,0-4.751.964Z" transform="translate(-11.167 0.009)" fill="#1d1d1b"/>
  <path id="Path_3484" data-name="Path 3484" d="M1.46,28.7A11.614,11.614,0,0,1,0,23.315v-.65a11.455,11.455,0,0,1,.818-4.033l.606.24a10.758,10.758,0,0,0-.772,3.791v.654a10.9,10.9,0,0,0,1.375,5.056Z" transform="translate(0 -12.553)" fill="#1d1d1b"/>
  <path id="Path_3485" data-name="Path 3485" d="M23,59.975a12.155,12.155,0,0,1-4.356-.738l.233-.609A11.509,11.509,0,0,0,23,59.323a10.551,10.551,0,0,0,5.38-1.3l.326.563A11.172,11.172,0,0,1,23,59.975Z" transform="translate(-12.563 -39.102)" fill="#1d1d1b"/>
  <path id="Path_3486" data-name="Path 3486" d="M59.673,25.961l-.606-.24a10.756,10.756,0,0,0,.772-3.791v-.69a10.882,10.882,0,0,0-1.046-4.389l.589-.28A11.585,11.585,0,0,1,60.49,21.24v.688A11.54,11.54,0,0,1,59.673,25.961Z" transform="translate(-39.621 -11.164)" fill="#1d1d1b"/>
  <path id="Path_3487" data-name="Path 3487" d="M40.913,22.935h-.652c0-1.1-.524-2.283-1.3-2.283s-1.3,1.18-1.3,2.283H37C37,21.492,37.732,20,38.957,20S40.913,21.492,40.913,22.935Z" transform="translate(-24.935 -13.475)" fill="#1d1d1b"/>
  <path id="Path_3488" data-name="Path 3488" d="M18.913,22.935h-.652c0-1.1-.524-2.283-1.3-2.283s-1.3,1.18-1.3,2.283H15C15,21.492,15.732,20,16.957,20S18.913,21.492,18.913,22.935Z" transform="translate(-10.109 -13.475)" fill="#1d1d1b"/>
  <path id="Path_3489" data-name="Path 3489" d="M40.913,22.935h-.652c0-1.1-.524-2.283-1.3-2.283s-1.3,1.18-1.3,2.283H37C37,21.492,37.732,20,38.957,20S40.913,21.492,40.913,22.935Z" transform="translate(-24.935 -13.475)" fill="#1d1d1b"/>
  <path id="Path_3490" data-name="Path 3490" d="M18.913,22.935h-.652c0-1.1-.524-2.283-1.3-2.283s-1.3,1.18-1.3,2.283H15C15,21.492,15.732,20,16.957,20S18.913,21.492,18.913,22.935Z" transform="translate(-10.109 -13.475)" fill="#1d1d1b"/>
  <path id="Path_3491" data-name="Path 3491" d="M48.044,5.863a.326.326,0,0,1-.24-.106,7.337,7.337,0,0,1-1.761-3.452,2.487,2.487,0,0,1,.031-1.1A1.726,1.726,0,0,1,46.817.169,1.454,1.454,0,0,1,47.974.063a2.187,2.187,0,0,1,1.252.865,2.1,2.1,0,0,1,1.5-.09A1.538,1.538,0,0,1,51.81,2.809a2.413,2.413,0,0,1-.5.969,6.835,6.835,0,0,1-3.174,2.071.326.326,0,0,1-.095.014ZM47.492.645a.685.685,0,0,0-.349.089,1.051,1.051,0,0,0-.436.637,1.826,1.826,0,0,0-.024.805,6.683,6.683,0,0,0,1.463,2.984,6.182,6.182,0,0,0,2.67-1.806,1.761,1.761,0,0,0,.359-.706.9.9,0,0,0-.633-1.182,1.324,1.324,0,0,0-1.225.163.328.328,0,0,1-.529-.143,1.418,1.418,0,0,0-.993-.8A1.128,1.128,0,0,0,47.492.645Z" transform="translate(-30.997 0.01)" fill="#1d1d1b"/>
  <path id="Path_3492" data-name="Path 3492" d="M3.6,51.878a7.1,7.1,0,0,1-2.133-.322,2.353,2.353,0,0,1-.944-.579,1.546,1.546,0,0,1,.01-2.3,2.327,2.327,0,0,1,1.435-.717,2.326,2.326,0,0,1,.717-1.435h0a1.545,1.545,0,0,1,2.3-.01,2.351,2.351,0,0,1,.578.944,7.248,7.248,0,0,1,.095,3.95.326.326,0,0,1-.235.235A7.337,7.337,0,0,1,3.6,51.878ZM2.124,48.6a1.627,1.627,0,0,0-1.136.537.9.9,0,0,0-.01,1.374,1.7,1.7,0,0,0,.681.417,6.569,6.569,0,0,0,3.4.13,6.58,6.58,0,0,0-.13-3.4,1.7,1.7,0,0,0-.418-.681.9.9,0,0,0-1.374.01,1.533,1.533,0,0,0-.531,1.239.326.326,0,0,1-.382.382A.8.8,0,0,0,2.124,48.6Z" transform="translate(-0.008 -31.005)" fill="#1d1d1b"/>
  <path id="Path_3493" data-name="Path 3493" d="M50.418,47.221a7.786,7.786,0,0,1-1.927-.259.326.326,0,0,1-.235-.235,6.2,6.2,0,0,1-.053-3.4,2.133,2.133,0,0,1,.524-.855,1.615,1.615,0,0,1,.838-.445,1.393,1.393,0,0,1,1.258.454,1.731,1.731,0,0,1,.5,1.421,1.733,1.733,0,0,1,1.421.5h0a1.411,1.411,0,0,1,.009,2.1,2.137,2.137,0,0,1-.855.524,4.885,4.885,0,0,1-1.478.206Zm-1.576-.845a5.486,5.486,0,0,0,2.856.017,1.488,1.488,0,0,0,.593-.364.77.77,0,0,0-.009-1.174h0a1.223,1.223,0,0,0-1.262-.232A.326.326,0,0,1,50.6,44.2a1.223,1.223,0,0,0-.232-1.261.766.766,0,0,0-.687-.272.967.967,0,0,0-.487.263,1.476,1.476,0,0,0-.364.592,5.486,5.486,0,0,0,.017,2.856Z" transform="translate(-32.346 -28.304)" fill="#1d1d1b"/>
  <path id="Path_3494" data-name="Path 3494" d="M2.8,7.222a4.883,4.883,0,0,1-1.478-.206,2.139,2.139,0,0,1-.855-.524A1.412,1.412,0,0,1,.478,4.4h0A1.728,1.728,0,0,1,1.9,3.9a1.73,1.73,0,0,1,.5-1.421,1.412,1.412,0,0,1,2.1-.009,2.139,2.139,0,0,1,.524.855,6.2,6.2,0,0,1-.053,3.405.326.326,0,0,1-.235.235A7.786,7.786,0,0,1,2.8,7.222ZM.939,4.857A.77.77,0,0,0,.93,6.031a1.481,1.481,0,0,0,.592.364,5.487,5.487,0,0,0,2.856-.017A5.487,5.487,0,0,0,4.4,3.521a1.482,1.482,0,0,0-.364-.593.77.77,0,0,0-1.174.009A1.223,1.223,0,0,0,2.626,4.2a.326.326,0,0,1-.427.424,1.223,1.223,0,0,0-1.261.232Z" transform="translate(-0.005 -1.349)" fill="#1d1d1b"/>
  <path id="Path_3495" data-name="Path 3495" d="M9.662,18.668l-.634-.154a4.884,4.884,0,0,1,4.2-3.509l.066.651A4.154,4.154,0,0,0,9.662,18.668Z" transform="translate(-6.084 -10.109)" fill="#1d1d1b"/>
  <path id="Path_3496" data-name="Path 3496" d="M45.529,18.671A4.154,4.154,0,0,0,41.9,15.659l.065-.649a4.884,4.884,0,0,1,4.2,3.509Z" transform="translate(-28.237 -10.112)" fill="#1d1d1b"/>
  <path id="Path_3497" data-name="Path 3497" d="M22.564,42.257A5.106,5.106,0,0,1,18.108,40a.638.638,0,0,1,.023-.746.648.648,0,0,1,.725-.223,12.715,12.715,0,0,0,3.708.662,12.723,12.723,0,0,0,3.708-.663h0a.648.648,0,0,1,.725.223A.638.638,0,0,1,27.02,40,5.1,5.1,0,0,1,22.564,42.257Zm-3.91-2.609a4.429,4.429,0,0,0,3.91,1.957,4.421,4.421,0,0,0,3.9-1.953,13.109,13.109,0,0,1-3.9.692,13.1,13.1,0,0,1-3.91-.7Zm7.719-.31.1.3,0-.005Z" transform="translate(-12.13 -26.276)" fill="#1d1d1b"/>
</svg>
