<svg id="Group_16758" data-name="Group 16758" xmlns="http://www.w3.org/2000/svg" xmlns:xlink="http://www.w3.org/1999/xlink" width="17.542" height="20.87" viewBox="0 0 17.542 20.87">
  <defs>
    <linearGradient id="linear-gradient" x1="0.5" y1="1" x2="0.5" gradientUnits="objectBoundingBox">
      <stop offset="0" stop-color="#ffe100"/>
      <stop offset="1" stop-color="#f98900"/>
    </linearGradient>
  </defs>
  <g id="Group_16757" data-name="Group 16757" transform="translate(0.943 0.942)">
    <path id="Path_3760" data-name="Path 3760" d="M13.427,10.768c-.447.778-1.795,1.257-4.455,1.087H8.957A15.92,15.92,0,0,1,10.267,15.9c.226,2.434-1.893,3.8-2.888,2.638-.487-.57-.49-2.213-1.062-3.665C4.95,11.406,3.263,11.607,2.4,9.6a2.592,2.592,0,0,1-1.3.083c-1.116-.2-1.944-7.746.319-7.883a2.85,2.85,0,0,1,1.178.162C4.889-.424,10.206-.356,13.921.591,15.381.963,16.4,8.008,13.427,10.768Z" transform="translate(0.006 0.023)" fill-rule="evenodd" fill="url(#linear-gradient)"/>
    <path id="Path_3756" data-name="Path 3756" d="M894.031,764.283a14.336,14.336,0,0,1-4.01.25,1.509,1.509,0,1,1,.075-2.984c1.026.163,2.986.152,3.859.29A1.244,1.244,0,0,1,894.031,764.283Z" transform="translate(-879.657 -753.008)" fill="url(#linear-gradient)"/>
    <path id="Path_3757" data-name="Path 3757" d="M882.246,1044.352c-1.88-.02-3.074-.188-4.561-.312-1.3-.108-1.777-2.5.589-2.767a9.679,9.679,0,0,1,4.061.354C883.962,1042.011,883.873,1044.936,882.246,1044.352Z" transform="translate(-868.051 -1035.605)" fill="url(#linear-gradient)"/>
    <path id="Path_3758" data-name="Path 3758" d="M926.534,1320.761a15,15,0,0,0-4.561-.391c-1.672.111-1.782-3.012.863-2.79a9.82,9.82,0,0,1,3.763.671C927.622,1318.762,927.852,1321.078,926.534,1320.761Z" transform="translate(-911.788 -1314.664)" fill="url(#linear-gradient)"/>
    <path id="Path_3759" data-name="Path 3759" d="M949.584,1583.952a13.212,13.212,0,0,0-4.022-.573c-2.554-.029-1.932-3.156.625-2.941a11.571,11.571,0,0,1,2.763.483C950.458,1581.369,950.926,1584.352,949.584,1583.952Z" transform="translate(-934.718 -1580.426)" fill="url(#linear-gradient)"/>
  </g>
  <path id="Subtraction_12" data-name="Subtraction 12" d="M12.161,0a3.5,3.5,0,0,0-.651.06C10.993.02,10.476,0,9.973,0A14.388,14.388,0,0,0,6.06.489,7.408,7.408,0,0,0,3.294,1.882a3.9,3.9,0,0,0-.713-.065c-.086,0-.174,0-.262.008a1.883,1.883,0,0,0-.373.061l.884.884a2.694,2.694,0,0,1,.725.158C4.778,1.648,7.058.942,9.973.942c.517,0,1.055.023,1.6.067a2.533,2.533,0,0,1,.589-.067c.082,0,.166,0,.25.011a11.6,11.6,0,0,1,2.763.482A2.437,2.437,0,0,1,16.6,3.7c-.006.427-.159.713-.42.783.021.151.04.315.056.486a2.12,2.12,0,0,1,.335,1.491.766.766,0,0,1-.311.515c-.018.252-.044.505-.078.752A1.827,1.827,0,0,1,16.258,9.3a.783.783,0,0,1-.591.453c-.019.048-.037.093-.056.137a1.275,1.275,0,0,1,.671,1.279,1.212,1.212,0,0,1-.966,1.045l-.075.019.772.726a2.1,2.1,0,0,0,1.2-1.685,2.236,2.236,0,0,0-.257-1.317,1.929,1.929,0,0,0,.137-.231,2.683,2.683,0,0,0,.051-2.145c.007-.062.014-.124.02-.186a1.844,1.844,0,0,0,.324-.747,3.01,3.01,0,0,0-.264-1.835,1.573,1.573,0,0,0,.1-.176,2.1,2.1,0,0,0,.208-.925A3.711,3.711,0,0,0,17.049,1.9,2.829,2.829,0,0,0,15.442.532,12.536,12.536,0,0,0,12.489.014C12.38,0,12.269,0,12.161,0ZM1.1,2.37h0a2.78,2.78,0,0,0-.605.9A6.75,6.75,0,0,0,.018,5.573,14.128,14.128,0,0,0,.292,9.12c.331,1.543.84,2.324,1.6,2.457a3.883,3.883,0,0,0,.664.059c.092,0,.189,0,.286-.012a6.59,6.59,0,0,0,1.345,1.467,6.945,6.945,0,0,1,2.2,3.095,11.059,11.059,0,0,1,.487,1.86,4.563,4.563,0,0,0,.735,2.073,2.093,2.093,0,0,0,1.61.751,2.721,2.721,0,0,0,1.968-.946,4.088,4.088,0,0,0,.965-3.143,14.088,14.088,0,0,0-.82-2.99,9.968,9.968,0,0,0,1.1-.088l-.864-.864c-.2.011-.41.016-.629.016-.318,0-.659-.012-1.016-.034H9.905a15.888,15.888,0,0,1,1.309,4.048,3.147,3.147,0,0,1-.723,2.421,1.782,1.782,0,0,1-1.271.638,1.149,1.149,0,0,1-.894-.421A4.111,4.111,0,0,1,7.8,17.864a11.757,11.757,0,0,0-.535-2.023,7.832,7.832,0,0,0-2.452-3.457,4.776,4.776,0,0,1-1.461-1.818,2.456,2.456,0,0,1-.793.128,2.931,2.931,0,0,1-.5-.045c-.244-.043-.491-.447-.7-1.138A12.386,12.386,0,0,1,.946,5.954a4.348,4.348,0,0,1,.817-2.918L1.1,2.371ZM14.08,12.438h0c-.214.023-.43.038-.66.047a4.153,4.153,0,0,1-.672.2l.766.766.1-.035a10.172,10.172,0,0,0,1.342-.158l-.876-.823Z" transform="translate(0 0)" fill="#1d1d1b"/>
</svg>
