<svg id="_17-_Face_with_Open_Mouth" data-name="17- Face with Open Mouth" xmlns="http://www.w3.org/2000/svg" xmlns:xlink="http://www.w3.org/1999/xlink" width="20.87" height="20.87" viewBox="0 0 20.87 20.87">
  <defs>
    <linearGradient id="linear-gradient" x1="0.5" y1="0.005" x2="0.5" y2="1.005" gradientUnits="objectBoundingBox">
      <stop offset="0" stop-color="#e9e9e9"/>
      <stop offset="1" stop-color="#c7c7c7"/>
    </linearGradient>
    <linearGradient id="linear-gradient-2" x1="0.5" y1="0.973" x2="0.5" y2="0.019" gradientUnits="objectBoundingBox">
      <stop offset="0.005" stop-color="#414d4d"/>
      <stop offset="0.206" stop-color="#3a4545"/>
      <stop offset="0.522" stop-color="#272e2e"/>
      <stop offset="0.914" stop-color="#080909"/>
      <stop offset="1"/>
    </linearGradient>
    <linearGradient id="linear-gradient-3" y1="0.986" y2="0.087" xlink:href="#linear-gradient-2"/>
    <linearGradient id="linear-gradient-4" x1="0.5" y1="1.036" x2="0.5" y2="0.042" xlink:href="#linear-gradient"/>
  </defs>
  <path id="Path_3527" data-name="Path 3527" d="M11.109,21.218C2.076,21.218.987,13.391,1,11.435v-.652C.987,8.826,2.076,1,11.109,1h0c9.033,0,10.121,7.826,10.109,9.783v.652C21.23,13.391,20.141,21.218,11.109,21.218Z" transform="translate(-0.674 -0.674)" fill="url(#linear-gradient)"/>
  <ellipse id="Ellipse_246" data-name="Ellipse 246" cx="0.92" cy="1.84" rx="0.92" ry="1.84" transform="translate(13.047 5.491)" fill="url(#linear-gradient-2)"/>
  <ellipse id="Ellipse_247" data-name="Ellipse 247" cx="0.92" cy="1.84" rx="0.92" ry="1.84" transform="translate(5.687 5.491)" fill="url(#linear-gradient-3)"/>
  <ellipse id="Ellipse_248" data-name="Ellipse 248" cx="1.84" cy="2.76" rx="1.84" ry="2.76" transform="translate(8.447 11.93)" fill="url(#linear-gradient-4)"/>
  <path id="Path_3528" data-name="Path 3528" d="M54.828,10.394c-.163-.218-.337-.429-.518-.628l.482-.439c.2.215.383.443.559.676Z" transform="translate(-36.6 -6.286)" fill="#1d1d1b"/>
  <path id="Path_3529" data-name="Path 3529" d="M2.386,17.49A11.252,11.252,0,0,1,0,10.759v-.65A11.057,11.057,0,0,1,2.942,2.765,10.131,10.131,0,0,1,10.435,0,10.355,10.355,0,0,1,17.5,2.364l-.43.489a9.727,9.727,0,0,0-6.636-2.2A9.508,9.508,0,0,0,3.4,3.225,10.358,10.358,0,0,0,.652,10.106v.654a10.634,10.634,0,0,0,2.237,6.314Z" transform="translate(0 0)" fill="#1d1d1b"/>
  <path id="Path_3530" data-name="Path 3530" d="M16.7,29.949a10.178,10.178,0,0,1-7.4-2.674l.457-.466A9.552,9.552,0,0,0,16.7,29.3a9.508,9.508,0,0,0,7.03-2.573,10.358,10.358,0,0,0,2.753-6.88v-.692a10.927,10.927,0,0,0-1.562-5.335l.554-.344a11.571,11.571,0,0,1,1.659,5.68v.688A11.057,11.057,0,0,1,24.2,27.184,10.131,10.131,0,0,1,16.7,29.949Z" transform="translate(-6.267 -9.079)" fill="#1d1d1b"/>
  <path id="Path_3531" data-name="Path 3531" d="M40.3,20.913c-.731,0-1.3-.86-1.3-1.957S39.573,17,40.3,17s1.3.86,1.3,1.957S41.036,20.913,40.3,20.913Zm0-3.261c-.308,0-.652.558-.652,1.3s.344,1.3.652,1.3.652-.558.652-1.3S40.612,17.652,40.3,17.652Z" transform="translate(-26.282 -11.456)" fill="#1d1d1b"/>
  <path id="Path_3532" data-name="Path 3532" d="M18.3,20.913c-.731,0-1.3-.86-1.3-1.957S17.573,17,18.3,17s1.3.86,1.3,1.957S19.036,20.913,18.3,20.913Zm0-3.261c-.308,0-.652.558-.652,1.3s.344,1.3.652,1.3.652-.558.652-1.3S18.612,17.652,18.3,17.652Z" transform="translate(-11.456 -11.456)" fill="#1d1d1b"/>
  <path id="Path_3533" data-name="Path 3533" d="M27.283,41.87C26.024,41.87,25,40.553,25,38.935S26.024,36,27.283,36s2.283,1.316,2.283,2.935S28.541,41.87,27.283,41.87Zm0-5.217c-.9,0-1.63,1.024-1.63,2.283s.731,2.283,1.63,2.283,1.63-1.024,1.63-2.283S28.182,36.652,27.283,36.652Z" transform="translate(-16.848 -24.261)" fill="#1d1d1b"/>
</svg>
