<svg id="_19-Pouting_Face" data-name="19-Pouting Face" xmlns="http://www.w3.org/2000/svg" xmlns:xlink="http://www.w3.org/1999/xlink" width="20.87" height="20.87" viewBox="0 0 20.87 20.87">
  <defs>
    <linearGradient id="linear-gradient" x1="0.5" y1="0.005" x2="0.5" y2="1.005" gradientUnits="objectBoundingBox">
      <stop offset="0" stop-color="#e9e9e9"/>
      <stop offset="1" stop-color="#c7c7c7"/>
    </linearGradient>
    <linearGradient id="linear-gradient-2" x1="0.5" y1="1.009" x2="0.5" y2="0.013" gradientUnits="objectBoundingBox">
      <stop offset="0.005" stop-color="#414d4d"/>
      <stop offset="0.206" stop-color="#3a4545"/>
      <stop offset="0.522" stop-color="#272e2e"/>
      <stop offset="0.914" stop-color="#080909"/>
      <stop offset="1"/>
    </linearGradient>
    <linearGradient id="linear-gradient-3" x1="0.5" y1="1.002" x2="0.5" y2="0.027" xlink:href="#linear-gradient-2"/>
  </defs>
  <path id="Path_3545" data-name="Path 3545" d="M11.109,21.218C2.076,21.218.987,13.391,1,11.435v-.652C.987,8.826,2.076,1,11.109,1h0c9.033,0,10.121,7.826,10.109,9.783v.652C21.23,13.391,20.141,21.218,11.109,21.218Z" transform="translate(-0.674 -0.674)" fill="url(#linear-gradient)"/>
  <path id="Path_3546" data-name="Path 3546" d="M40.986,26a2.54,2.54,0,0,0-.924.861A1.688,1.688,0,0,0,40,27.3c0,.72.438,1.3.978,1.3s.978-.584.978-1.3S41.523,26.007,40.986,26Z" transform="translate(-26.956 -17.522)" fill="url(#linear-gradient-2)"/>
  <path id="Path_3547" data-name="Path 3547" d="M18.971,26a2.54,2.54,0,0,1,.924.861,1.688,1.688,0,0,1,.062.443c0,.72-.438,1.3-.978,1.3S18,28.025,18,27.3,18.434,26.007,18.971,26Z" transform="translate(-12.13 -17.522)" fill="url(#linear-gradient-3)"/>
  <path id="Path_3548" data-name="Path 3548" d="M54.829,10.394c-.163-.219-.338-.43-.518-.628l.482-.44c.2.213.382.441.559.677Z" transform="translate(-36.601 -6.286)" fill="#1d1d1b"/>
  <path id="Path_3549" data-name="Path 3549" d="M2.386,17.49A11.249,11.249,0,0,1,0,10.759v-.65A11.057,11.057,0,0,1,2.942,2.765,10.131,10.131,0,0,1,10.435,0,10.357,10.357,0,0,1,17.5,2.364l-.431.489a9.728,9.728,0,0,0-6.636-2.2A9.508,9.508,0,0,0,3.4,3.225,10.358,10.358,0,0,0,.652,10.106v.654A10.628,10.628,0,0,0,2.89,17.075Z" transform="translate(0 0)" fill="#1d1d1b"/>
  <path id="Path_3550" data-name="Path 3550" d="M16.7,29.949a10.178,10.178,0,0,1-7.4-2.674l.457-.466A9.552,9.552,0,0,0,16.7,29.3a9.508,9.508,0,0,0,7.03-2.573,10.358,10.358,0,0,0,2.753-6.88v-.692a10.921,10.921,0,0,0-1.562-5.335l.554-.344a11.571,11.571,0,0,1,1.659,5.68v.688A11.057,11.057,0,0,1,24.2,27.184,10.131,10.131,0,0,1,16.7,29.949Z" transform="translate(-6.267 -9.079)" fill="#1d1d1b"/>
  <path id="Path_3551" data-name="Path 3551" d="M20.67,45.379l-.62-.2a3.185,3.185,0,0,1,1.718-1.692,5.054,5.054,0,0,1,4.36,0,3.185,3.185,0,0,1,1.718,1.692l-.622.2a2.576,2.576,0,0,0-1.38-1.3,4.455,4.455,0,0,0-3.793,0A2.573,2.573,0,0,0,20.67,45.379Z" transform="translate(-13.512 -28.973)" fill="#1d1d1b"/>
  <path id="Path_3552" data-name="Path 3552" d="M40.3,28.261A1.5,1.5,0,0,1,39,26.63a1.979,1.979,0,0,1,.073-.528.323.323,0,0,1,.033-.081,2.862,2.862,0,0,1,1.04-.976.306.306,0,0,1,.17-.046,1.486,1.486,0,0,1,1.293,1.63A1.5,1.5,0,0,1,40.3,28.261Zm-.613-1.944a1.332,1.332,0,0,0-.039.314c0,.53.3.978.652.978s.652-.448.652-.978a.946.946,0,0,0-.568-.969A2.2,2.2,0,0,0,39.691,26.316Z" transform="translate(-26.282 -16.848)" fill="#1d1d1b"/>
  <path id="Path_3553" data-name="Path 3553" d="M39.677,25.078l-.606-.242c.03-.075.774-1.836,4.216-1.836v.652C40.282,23.652,39.682,25.063,39.677,25.078Z" transform="translate(-26.33 -15.5)" fill="#1d1d1b"/>
  <path id="Path_3554" data-name="Path 3554" d="M18.3,28.261A1.5,1.5,0,0,1,17,26.63,1.486,1.486,0,0,1,18.293,25a.332.332,0,0,1,.168.045,2.862,2.862,0,0,1,1.04.976.323.323,0,0,1,.033.081,1.979,1.979,0,0,1,.075.529A1.5,1.5,0,0,1,18.3,28.261Zm-.084-2.6a.946.946,0,0,0-.568.969c0,.53.3.978.652.978s.652-.448.652-.978a1.332,1.332,0,0,0-.039-.314,2.2,2.2,0,0,0-.7-.655Z" transform="translate(-11.456 -16.848)" fill="#1d1d1b"/>
  <path id="Path_3555" data-name="Path 3555" d="M15.612,25.081c-.025-.06-.647-1.429-3.612-1.429V23c3.442,0,4.186,1.761,4.216,1.836Z" transform="translate(-8.087 -15.5)" fill="#1d1d1b"/>
</svg>
