<svg id="_11-Rolling_on_the_Floor_Laughing" data-name="11-Rolling on the Floor Laughing" xmlns="http://www.w3.org/2000/svg" xmlns:xlink="http://www.w3.org/1999/xlink" width="20.854" height="20.87" viewBox="0 0 20.854 20.87">
  <defs>
    <linearGradient id="linear-gradient" x1="0.5" y1="0.019" x2="0.5" y2="0.991" gradientUnits="objectBoundingBox">
      <stop offset="0" stop-color="#e9e9e9"/>
      <stop offset="1" stop-color="#c7c7c7"/>
    </linearGradient>
    <linearGradient id="linear-gradient-2" x1="-0.265" y1="0.526" x2="1.027" y2="0.526" gradientUnits="objectBoundingBox">
      <stop offset="0" stop-color="#b8b4b2"/>
      <stop offset="0.143" stop-color="#d0ccc9"/>
      <stop offset="0.374" stop-color="#f2edea"/>
      <stop offset="0.5" stop-color="#fffaf6"/>
      <stop offset="0.638" stop-color="#f9f5f1"/>
      <stop offset="0.825" stop-color="#e8e5e3"/>
      <stop offset="1" stop-color="#d1d1d1"/>
    </linearGradient>
    <linearGradient id="linear-gradient-3" x1="0.5" y1="0" x2="0.5" y2="1" xlink:href="#linear-gradient"/>
    <linearGradient id="linear-gradient-4" x1="0.27" y1="1.006" x2="0.27" y2="0.405" xlink:href="#linear-gradient"/>
    <linearGradient id="linear-gradient-5" x1="0.381" y1="0.355" x2="0.381" y2="0.662" gradientUnits="objectBoundingBox">
      <stop offset="0" stop-color="#ababab" stop-opacity="0.502"/>
      <stop offset="0.541" stop-color="#c1c1c1" stop-opacity="0.216"/>
      <stop offset="1" stop-color="#d1d1d1" stop-opacity="0"/>
    </linearGradient>
    <linearGradient id="linear-gradient-6" x1="0.28" y1="-1.005" x2="-0.72" y2="-0.279" xlink:href="#linear-gradient"/>
    <linearGradient id="linear-gradient-7" x1="1.225" y1="1.654" x2="0.525" y2="2.691" xlink:href="#linear-gradient"/>
  </defs>
  <path id="Path_3417" data-name="Path 3417" d="M18.062,18.06c-6.21,6.211-12.341,1.578-13.677.223l-.447-.447C2.584,16.5-2.049,10.368,4.162,4.158h0C10.371-2.053,16.5,2.58,17.838,3.935l.447.447C19.641,5.719,24.273,11.849,18.062,18.06Z" transform="translate(-0.695 -0.674)" fill="url(#linear-gradient)"/>
  <path id="Path_3418" data-name="Path 3418" d="M29.024,20.575a.637.637,0,0,1,.707.19,8.519,8.519,0,0,1,.623.861,2.38,2.38,0,0,1-.7,1.751,1.39,1.39,0,0,0-.448-.9c-.448-.448-2.691,1.346-4.036,2.691s-3.139,3.587-2.691,4.036a1.39,1.39,0,0,0,.9.447,2.38,2.38,0,0,1-1.751.7,8.52,8.52,0,0,1-.861-.623.637.637,0,0,1-.19-.707,14.153,14.153,0,0,1,3.475-4.974A14.137,14.137,0,0,1,29.024,20.575Z" transform="translate(-13.858 -13.839)" fill="url(#linear-gradient-2)"/>
  <path id="Path_3419" data-name="Path 3419" d="M43.256,38.425l0,0a7.476,7.476,0,0,1-4.832,4.828c-.157-.444-.321-1.648,1.43-3.4S42.812,38.268,43.256,38.425Z" transform="translate(-25.852 -25.833)" fill="url(#linear-gradient-3)"/>
  <path id="Path_3420" data-name="Path 3420" d="M31.906,25.63a2.38,2.38,0,0,0,.7-1.751,6.124,6.124,0,0,1,.908,4.805c-.443-.157-1.647-.321-3.4,1.43s-1.588,2.955-1.431,3.4a6.128,6.128,0,0,1-4.805-.908,2.38,2.38,0,0,0,1.751-.7,1.39,1.39,0,0,1-.9-.448c-.448-.448,1.346-2.691,2.691-4.036s3.587-3.139,4.036-2.691a1.39,1.39,0,0,1,.447.9Z" transform="translate(-16.109 -16.092)" fill="url(#linear-gradient-4)"/>
  <path id="Path_3421" data-name="Path 3421" d="M29.024,20.575a.637.637,0,0,1,.707.19,8.519,8.519,0,0,1,.623.861,2.38,2.38,0,0,1-.7,1.751,1.39,1.39,0,0,0-.448-.9c-.448-.448-2.691,1.346-4.036,2.691s-3.139,3.587-2.691,4.036a1.39,1.39,0,0,0,.9.447,2.38,2.38,0,0,1-1.751.7,8.52,8.52,0,0,1-.861-.623.637.637,0,0,1-.19-.707,14.153,14.153,0,0,1,3.475-4.974A14.137,14.137,0,0,1,29.024,20.575Z" transform="translate(-13.858 -13.839)" fill="url(#linear-gradient-5)"/>
  <path id="Path_3422" data-name="Path 3422" d="M12.1,41.627s1.643,2.145,1.645,3.053a1.645,1.645,0,1,1-3.291,0C10.455,43.772,12.1,41.627,12.1,41.627Z" transform="translate(-7.063 -28.053)" fill="url(#linear-gradient-6)"/>
  <path id="Path_3423" data-name="Path 3423" d="M41.627,12.1s2.145,1.643,3.053,1.645a1.645,1.645,0,1,0,0-3.291C43.772,10.455,41.627,12.1,41.627,12.1Z" transform="translate(-28.071 -7.045)" fill="url(#linear-gradient-7)"/>
  <path id="Path_3424" data-name="Path 3424" d="M15.7,45.129c0-.908-2.093-3.5-2.093-3.5s1.643,2.145,1.645,3.053a1.646,1.646,0,0,1-2.563,1.366c.008.012.019.023.028.035.209.178.459.375.75.58A1.637,1.637,0,0,0,15.7,45.129Z" transform="translate(-8.567 -28.053)" fill="url(#linear-gradient-3)"/>
  <path id="Path_3425" data-name="Path 3425" d="M46.046,12.682a1.646,1.646,0,0,1-1.366,2.563c-.908,0-3.053-1.645-3.053-1.645s2.594,2.092,3.5,2.094a1.637,1.637,0,0,0,1.533-2.235c-.2-.29-.4-.54-.58-.75C46.069,12.7,46.059,12.69,46.046,12.682Z" transform="translate(-28.071 -8.546)" fill="url(#linear-gradient-3)"/>
  <path id="Path_3426" data-name="Path 3426" d="M29.263,11.677a.319.319,0,0,1-.123-.024.326.326,0,0,1-.2-.311,4.4,4.4,0,0,1,1.44-2.912,8.546,8.546,0,0,1,1.874-1.4l.3.579a8.018,8.018,0,0,0-1.714,1.287,4.556,4.556,0,0,0-1.089,1.635,6.264,6.264,0,0,1,2.837-1.067l.076.648A5.482,5.482,0,0,0,29.5,11.573.326.326,0,0,1,29.263,11.677Z" transform="translate(-19.519 -4.733)" fill="#1d1d1b"/>
  <path id="Path_3427" data-name="Path 3427" d="M10.124,32.651l-.649-.076a6.28,6.28,0,0,1,1.067-2.84,4.554,4.554,0,0,0-1.633,1.09,8.016,8.016,0,0,0-1.287,1.715l-.578-.3a8.544,8.544,0,0,1,1.4-1.874,4.392,4.392,0,0,1,2.911-1.441.311.311,0,0,1,.312.2.326.326,0,0,1-.081.363,5.487,5.487,0,0,0-1.465,3.162Z" transform="translate(-4.765 -19.491)" fill="#1d1d1b"/>
  <path id="Path_3428" data-name="Path 3428" d="M24.43,31.085A7.485,7.485,0,0,1,19.886,29.3a.966.966,0,0,1-.29-1.067,14.408,14.408,0,0,1,3.552-5.1h0a14.345,14.345,0,0,1,5.1-3.552.966.966,0,0,1,1.067.291c.933,1.128,3.668,5.12-.32,9.108A6.356,6.356,0,0,1,24.43,31.085Zm-.82-7.489a13.88,13.88,0,0,0-3.4,4.856.309.309,0,0,0,.092.346c1.02.845,4.63,3.321,8.227-.279s1.123-7.21.279-8.231a.307.307,0,0,0-.345-.092,13.875,13.875,0,0,0-4.854,3.4Z" transform="translate(-13.186 -13.159)" fill="#1d1d1b"/>
  <path id="Path_3429" data-name="Path 3429" d="M37.444,42.686c-.175-.5-.378-1.85,1.508-3.74s3.242-1.681,3.738-1.506l-.218.615c-.378-.134-1.435-.271-3.058,1.352s-1.488,2.683-1.354,3.062Z" transform="translate(-25.18 -25.158)" fill="#1d1d1b"/>
  <path id="Path_3430" data-name="Path 3430" d="M23.919,32.9h-.063l.015-.652A2.106,2.106,0,0,0,24.924,32a2.028,2.028,0,0,1-.437-.335c-.878-.878,2.323-4.131,2.691-4.5a20.724,20.724,0,0,1,2.4-2.054c1.1-.79,1.753-.987,2.1-.638a2.019,2.019,0,0,1,.335.437,2.1,2.1,0,0,0,.254-1.054l.652-.015a2.712,2.712,0,0,1-.793,1.989.326.326,0,0,1-.557-.231,1.081,1.081,0,0,0-.33-.643h-.015c-.424,0-2.066,1.151-3.583,2.669-1.536,1.537-2.7,3.2-2.667,3.6a1.09,1.09,0,0,0,.643.333.326.326,0,0,1,.231.557A2.7,2.7,0,0,1,23.919,32.9Z" transform="translate(-16.095 -16.064)" fill="#1d1d1b"/>
  <path id="Path_3431" data-name="Path 3431" d="M33.459.727C33.2.689,32.932.663,32.671.651L32.7,0c.281.013.567.04.85.081Z" transform="translate(-22.036 0.001)" fill="#1d1d1b"/>
  <path id="Path_3432" data-name="Path 3432" d="M2.209,16.4C1,14.785-2.494,9.05,3.291,3.263A10.076,10.076,0,0,1,9.781.025l.041.652a9.446,9.446,0,0,0-6.07,3.048c-5.267,5.268-2.468,10.349-1.02,12.289Z" transform="translate(-0.056 -0.017)" fill="#1d1d1b"/>
  <path id="Path_3433" data-name="Path 3433" d="M21,59.657a10.467,10.467,0,0,1-4.3-1.483l.337-.559a9.807,9.807,0,0,0,4.033,1.393Z" transform="translate(-11.272 -38.827)" fill="#1d1d1b"/>
  <path id="Path_3434" data-name="Path 3434" d="M32.74,32.41l-.008-.652a9.276,9.276,0,0,0,6.481-3.063c4.545-4.547,3.025-8.995,1.714-11.241l.563-.329c1.405,2.409,3.038,7.174-1.816,12.033A9.9,9.9,0,0,1,32.74,32.41Z" transform="translate(-22.077 -11.54)" fill="#1d1d1b"/>
  <path id="Path_3435" data-name="Path 3435" d="M41.145,3.158a10.518,10.518,0,0,0-3.831-1.822L37.463.7a11.179,11.179,0,0,1,4.073,1.936Z" transform="translate(-25.164 -0.471)" fill="#1d1d1b"/>
  <path id="Path_3436" data-name="Path 3436" d="M44.013,13.374c-.991,0-3.025-1.538-3.253-1.713a.326.326,0,0,1,0-.518c.228-.175,2.263-1.713,3.253-1.713a1.972,1.972,0,1,1,0,3.944ZM41.505,11.4a7.07,7.07,0,0,0,2.507,1.319,1.32,1.32,0,1,0,0-2.639A7.053,7.053,0,0,0,41.5,11.4Z" transform="translate(-27.4 -6.355)" fill="#1d1d1b"/>
  <path id="Path_3437" data-name="Path 3437" d="M11.427,45.987a1.973,1.973,0,0,1-1.971-1.972c0-.991,1.537-3.026,1.712-3.255a.338.338,0,0,1,.518,0c.175.228,1.712,2.264,1.712,3.255A1.974,1.974,0,0,1,11.427,45.987Zm0-4.48a7.077,7.077,0,0,0-1.319,2.508,1.319,1.319,0,1,0,2.638,0,7.093,7.093,0,0,0-1.319-2.508Z" transform="translate(-6.391 -27.387)" fill="#1d1d1b"/>
  <path id="Path_3438" data-name="Path 3438" d="M22.815,6.973l-.461-.462a6.63,6.63,0,0,1,4.491-1.666V5.5a6.082,6.082,0,0,0-4.03,1.475Z" transform="translate(-15.083 -3.265)" fill="#1d1d1b"/>
  <path id="Path_3439" data-name="Path 3439" d="M5.522,26.83H4.87a6.634,6.634,0,0,1,1.665-4.493L7,22.8l-.231-.231L7,22.8A6.091,6.091,0,0,0,5.522,26.83Z" transform="translate(-3.299 -15.053)" fill="#1d1d1b"/>
</svg>
