<svg id="_06-Slightly_Smiling_Face" data-name="06-Slightly Smiling Face" xmlns="http://www.w3.org/2000/svg" xmlns:xlink="http://www.w3.org/1999/xlink" width="20.87" height="20.87" viewBox="0 0 20.87 20.87">
  <defs>
    <linearGradient id="linear-gradient" x1="0.5" y1="0.005" x2="0.5" y2="1.005" gradientUnits="objectBoundingBox">
      <stop offset="0" stop-color="#e9e9e9"/>
      <stop offset="1" stop-color="#c7c7c7"/>
    </linearGradient>
    <linearGradient id="linear-gradient-2" x1="0.5" y1="0.973" x2="0.5" y2="0.019" gradientUnits="objectBoundingBox">
      <stop offset="0.005" stop-color="#414d4d"/>
      <stop offset="0.206" stop-color="#3a4545"/>
      <stop offset="0.522" stop-color="#272e2e"/>
      <stop offset="0.914" stop-color="#080909"/>
      <stop offset="1"/>
    </linearGradient>
    <linearGradient id="linear-gradient-3" y1="0.986" y2="0.087" xlink:href="#linear-gradient-2"/>
  </defs>
  <path id="Path_3347" data-name="Path 3347" d="M11.109,21.218C2.076,21.218.987,13.391,1,11.435v-.652C.987,8.826,2.076,1,11.109,1h0c9.033,0,10.121,7.826,10.109,9.783v.652C21.23,13.391,20.141,21.218,11.109,21.218Z" transform="translate(-0.674 -0.674)" fill="url(#linear-gradient)"/>
  <ellipse id="Ellipse_236" data-name="Ellipse 236" cx="0.92" cy="1.84" rx="0.92" ry="1.84" transform="translate(13.337 6.411)" fill="url(#linear-gradient-2)"/>
  <ellipse id="Ellipse_237" data-name="Ellipse 237" cx="0.92" cy="1.84" rx="0.92" ry="1.84" transform="translate(5.977 6.411)" fill="url(#linear-gradient-3)"/>
  <path id="Path_3348" data-name="Path 3348" d="M54.828,10.394c-.163-.218-.337-.429-.518-.628l.482-.439c.2.215.383.443.559.676Z" transform="translate(-36.6 -6.286)" fill="#1d1d1b"/>
  <path id="Path_3349" data-name="Path 3349" d="M2.386,17.49A11.252,11.252,0,0,1,0,10.759v-.65A11.057,11.057,0,0,1,2.942,2.765,10.131,10.131,0,0,1,10.435,0,10.355,10.355,0,0,1,17.5,2.364l-.43.489a9.727,9.727,0,0,0-6.636-2.2A9.508,9.508,0,0,0,3.4,3.225,10.358,10.358,0,0,0,.652,10.106v.654a10.634,10.634,0,0,0,2.237,6.314Z" transform="translate(0 0)" fill="#1d1d1b"/>
  <path id="Path_3350" data-name="Path 3350" d="M16.7,29.949a10.178,10.178,0,0,1-7.4-2.674l.457-.466A9.552,9.552,0,0,0,16.7,29.3a9.508,9.508,0,0,0,7.03-2.573,10.358,10.358,0,0,0,2.753-6.88v-.692a10.927,10.927,0,0,0-1.562-5.335l.554-.344a11.571,11.571,0,0,1,1.659,5.68v.688A11.057,11.057,0,0,1,24.2,27.184,10.131,10.131,0,0,1,16.7,29.949Z" transform="translate(-6.267 -9.079)" fill="#1d1d1b"/>
  <path id="Path_3351" data-name="Path 3351" d="M40.3,22.913c-.731,0-1.3-.86-1.3-1.957S39.573,19,40.3,19s1.3.86,1.3,1.957S41.036,22.913,40.3,22.913Zm0-3.261c-.308,0-.652.558-.652,1.3s.344,1.3.652,1.3.652-.558.652-1.3S40.612,19.652,40.3,19.652Z" transform="translate(-26.282 -12.804)" fill="#1d1d1b"/>
  <path id="Path_3352" data-name="Path 3352" d="M18.3,22.913c-.731,0-1.3-.86-1.3-1.957S17.573,19,18.3,19s1.3.86,1.3,1.957S19.036,22.913,18.3,22.913Zm0-3.261c-.308,0-.652.558-.652,1.3s.344,1.3.652,1.3.652-.558.652-1.3S18.612,19.652,18.3,19.652Z" transform="translate(-11.456 -12.804)" fill="#1d1d1b"/>
  <path id="Path_3353" data-name="Path 3353" d="M22.588,42.752a5.359,5.359,0,0,1-2.565-.656A4.015,4.015,0,0,1,18.034,39.9l.628-.177a3.367,3.367,0,0,0,1.672,1.8,4.69,4.69,0,0,0,4.506,0,3.363,3.363,0,0,0,1.674-1.8l.627.179A4.006,4.006,0,0,1,25.152,42.1a5.359,5.359,0,0,1-2.564.656Z" transform="translate(-12.153 -26.77)" fill="#1d1d1b"/>
</svg>
