<svg id="Group_16754" data-name="Group 16754" xmlns="http://www.w3.org/2000/svg" xmlns:xlink="http://www.w3.org/1999/xlink" width="18.729" height="21.081" viewBox="0 0 18.729 21.081">
  <defs>
    <linearGradient id="linear-gradient" x1="0.5" y1="0.005" x2="0.5" y2="1.005" gradientUnits="objectBoundingBox">
      <stop offset="0" stop-color="#e9e9e9"/>
      <stop offset="1" stop-color="#c7c7c7"/>
    </linearGradient>
    <linearGradient id="linear-gradient-2" x1="0.5" y1="0.986" x2="0.5" y2="0.087" gradientUnits="objectBoundingBox">
      <stop offset="0.005" stop-color="#414d4d"/>
      <stop offset="0.206" stop-color="#3a4545"/>
      <stop offset="0.522" stop-color="#272e2e"/>
      <stop offset="0.914" stop-color="#080909"/>
      <stop offset="1"/>
    </linearGradient>
    <linearGradient id="linear-gradient-3" y1="0.973" y2="0.019" xlink:href="#linear-gradient-2"/>
    <linearGradient id="linear-gradient-4" x1="0.5" y1="0" x2="0.5" y2="1" xlink:href="#linear-gradient"/>
  </defs>
  <g id="_12-Slightly_Frowning_Face" data-name="12-Slightly Frowning Face" transform="translate(0 0)">
    <path id="Path_3440" data-name="Path 3440" d="M10.072,19.144C1.965,19.144.989,12.12,1,10.364V9.779C.989,8.023,1.965,1,10.072,1h0c8.106,0,9.083,7.023,9.072,8.779v.585C19.154,12.12,18.178,19.144,10.072,19.144Z" transform="translate(-0.707 -0.707)" fill="url(#linear-gradient)"/>
    <ellipse id="Ellipse_241" data-name="Ellipse 241" cx="0.92" cy="1.38" rx="0.92" ry="1.38" transform="translate(5.264 5.976)" fill="url(#linear-gradient-2)"/>
    <path id="Path_3441" data-name="Path 3441" d="M54.775,10.285c-.146-.2-.3-.385-.465-.564l.433-.394c.176.193.344.4.5.607Z" transform="translate(-38.417 -6.598)" fill="#1d1d1b"/>
    <path id="Subtraction_9" data-name="Subtraction 9" d="M2.2,14.778H1.483A10.334,10.334,0,0,1,0,9.655V9.072A9.92,9.92,0,0,1,2.64,2.481,9.093,9.093,0,0,1,9.365,0a9.293,9.293,0,0,1,6.342,2.121l-.386.439A8.73,8.73,0,0,0,9.365.585,8.53,8.53,0,0,0,3.056,2.894,9.3,9.3,0,0,0,.585,9.07v.587A9.526,9.526,0,0,0,2.2,14.778Z" transform="translate(0)" fill="#1d1d1b"/>
    <path id="Subtraction_8" data-name="Subtraction 8" d="M6.2,14.779h0A8.959,8.959,0,0,1,0,12.387l.41-.418A8.387,8.387,0,0,0,6.2,14.194v.585Zm1.756-.058h0v-.588a8.017,8.017,0,0,0,4.992-2.241,9.3,9.3,0,0,0,2.47-6.175V5.1A9.828,9.828,0,0,0,14.02.309l.5-.309a10.4,10.4,0,0,1,1.489,5.1v.617a9.919,9.919,0,0,1-2.64,6.59A8.6,8.6,0,0,1,7.96,14.722Z" transform="translate(2.722 3.942)" fill="#1d1d1b"/>
    <g id="Group_16752" data-name="Group 16752" transform="translate(11.704 6.731)">
      <ellipse id="Ellipse_240" data-name="Ellipse 240" cx="0.92" cy="1.673" rx="0.92" ry="1.673" transform="translate(0 0.165)" fill="url(#linear-gradient-3)"/>
      <path id="Path_3444" data-name="Path 3444" d="M40.171,22.512c-.656,0-1.171-.771-1.171-1.756S39.514,19,40.171,19s1.171.771,1.171,1.756S40.827,22.512,40.171,22.512Zm0-2.926c-.276,0-.585.5-.585,1.171s.309,1.171.585,1.171.585-.5.585-1.171S40.447,19.585,40.171,19.585Z" transform="translate(-38.999 -19)" fill="#1d1d1b"/>
    </g>
    <path id="Path_3445" data-name="Path 3445" d="M18.171,22.512c-.656,0-1.171-.771-1.171-1.756S17.514,19,18.171,19s1.171.771,1.171,1.756S18.827,22.512,18.171,22.512Zm0-2.926c-.276,0-.585.5-.585,1.171s.309,1.171.585,1.171.585-.5.585-1.171S18.447,19.585,18.171,19.585Z" transform="translate(-12.025 -13.44)" fill="#1d1d1b"/>
    <path id="Path_3446" data-name="Path 3446" d="M.563,2.718,0,2.558A3.6,3.6,0,0,1,1.785.589a4.8,4.8,0,0,1,4.6,0A7.2,7.2,0,0,0,7.931,1.3l-.113.573A11.794,11.794,0,0,1,6.11,1.1a4.209,4.209,0,0,0-4.044,0A3.019,3.019,0,0,0,.563,2.718Z" transform="matrix(0.848, 0.53, -0.53, 0.848, 6.62, 9.45)" fill="#1d1d1b"/>
  </g>
  <g id="Group_16748" data-name="Group 16748" transform="matrix(0.996, -0.087, 0.087, 0.996, 1.466, 10.253)">
    <g id="Group_16751" data-name="Group 16751" transform="translate(0 0)">
      <path id="Path_3736" data-name="Path 3736" d="M3.1,10.326A3.1,3.1,0,0,1,0,7.228V6.078A3.922,3.922,0,0,1,.273,4.852,5.085,5.085,0,0,0,.835,3.063l.034-.214a7.485,7.485,0,0,0-.1-1.621C.748,1.046.729.892.72.787A.7.7,0,0,1,.9.238.756.756,0,0,1,1.439,0,.527.527,0,0,1,1.6.024a2.747,2.747,0,0,1,1.466,2.5c.007,1.016.119,1.6.675,1.6a7.672,7.672,0,0,0,1.182-.093c1.3-.162,4.433-.8,4.709-.888a2.46,2.46,0,0,1,.715-.135.768.768,0,0,1,.747.435c.246.5-.254,1.078-.687,1.324a8.563,8.563,0,0,1-2.646.818c-.124.023-.258.047-.368.07a1.072,1.072,0,0,1,.395.616.779.779,0,0,1-.28.737.636.636,0,0,0-.082.09.9.9,0,0,0,.074.2,1.531,1.531,0,0,1,.153.559c.022.351-.273.629-.51.852a2.279,2.279,0,0,0-.192.194.424.424,0,0,0,.022.073.92.92,0,0,1,.039.536c-.089.507-.642.81-1.478.81H3.1Z" transform="translate(0.272 0.272)" fill="url(#linear-gradient-4)"/>
      <path id="Path_3737" data-name="Path 3737" d="M1.71.543a.277.277,0,0,1,.08.011A2.491,2.491,0,0,1,3.068,2.8c.005.79.036,1.874.947,1.874A7.887,7.887,0,0,0,5.23,4.579c1.294-.162,4.446-.8,4.755-.9a2.272,2.272,0,0,1,.635-.123.5.5,0,0,1,.5.282c.169.347-.268.794-.577.97-1.359.773-3.332.794-3.3,1.01.045.271.473.384.542.778.075.429-.361.506-.361.759s.2.417.223.8-.706.772-.706.993.13.24.068.6-.5.585-1.21.585H3.37A2.826,2.826,0,0,1,.545,7.5V6.35a3.7,3.7,0,0,1,.244-1.1,5.725,5.725,0,0,0,.621-2.083,11.359,11.359,0,0,0-.146-2.128A.444.444,0,0,1,1.71.543M1.71,0h0a1.022,1.022,0,0,0-.74.326.979.979,0,0,0-.249.755c.009.107.029.266.052.452a7.61,7.61,0,0,1,.1,1.544c-.012.072-.023.144-.034.217A4.853,4.853,0,0,1,.3,5,4.145,4.145,0,0,0,0,6.351V7.5a3.373,3.373,0,0,0,3.369,3.37H5.8c1.452,0,1.7-.792,1.746-1.034a1.2,1.2,0,0,0-.021-.585L7.6,9.184a1.415,1.415,0,0,0,.6-1.067,1.824,1.824,0,0,0-.175-.652l-.01-.024A1.031,1.031,0,0,0,8.327,6.5a1.119,1.119,0,0,0-.147-.39,8.52,8.52,0,0,0,2.634-.832c.489-.278,1.138-.98.8-1.68a1.037,1.037,0,0,0-.991-.587,2.711,2.711,0,0,0-.8.147c-.278.085-3.386.718-4.662.878a7.392,7.392,0,0,1-1.148.091c-.243,0-.4-.223-.4-1.334A2.986,2.986,0,0,0,1.957.037.8.8,0,0,0,1.71,0Z" fill="#1c1911"/>
    </g>
  </g>
  <path id="Path_3740" data-name="Path 3740" d="M4.381,0C.683,0,.026,2.458,0,2.563l.567.143C.59,2.619,1.159.585,4.381.585Z" transform="translate(12.547 3.382) rotate(42)" fill="#1d1d1b"/>
  <path id="Path_3741" data-name="Path 3741" d="M4.381,0C.683,0,.026,2.458,0,2.563l.567.143C.59,2.619,1.159.585,4.381.585Z" transform="translate(5.928 2.028) rotate(42)" fill="#1d1d1b"/>
</svg>
