<svg id="Group_16747" data-name="Group 16747" xmlns="http://www.w3.org/2000/svg" xmlns:xlink="http://www.w3.org/1999/xlink" width="22.838" height="20.87" viewBox="0 0 22.838 20.87">
  <defs>
    <radialGradient id="radial-gradient" cx="0.357" cy="0.279" r="0.861" gradientUnits="objectBoundingBox">
      <stop offset="0.248" stop-color="red"/>
      <stop offset="0.864" stop-color="#c20000"/>
    </radialGradient>
  </defs>
  <path id="Path_3211" data-name="Path 3211" d="M19.555,26.4a6.086,6.086,0,0,0-5.028,2.651A6.1,6.1,0,0,0,3.4,32.5c0,7.432,11.126,14.116,11.126,14.116S25.653,39.93,25.653,32.5A6.1,6.1,0,0,0,19.555,26.4Z" transform="translate(-3.045 -25.804)" fill="url(#radial-gradient)"/>
  <path id="Subtraction_7" data-name="Subtraction 7" d="M11.419,20.87h0l-.183-.11a38.1,38.1,0,0,1-5.591-4.292l-.124-.116.561-.449.048.045a37.6,37.6,0,0,0,5.289,4.088,37.658,37.658,0,0,0,5.3-4.1c2.468-2.309,5.41-5.834,5.41-9.521A5.663,5.663,0,0,0,21.7,4.262L22.28,3.8c.018.041.036.082.053.122a6.369,6.369,0,0,1,.5,2.5,10.463,10.463,0,0,1-1.782,5.5,23.17,23.17,0,0,1-3.862,4.55A38.057,38.057,0,0,1,11.6,20.76l-.183.11ZM4.753,15.6h0a21.7,21.7,0,0,1-2.97-3.682A10.463,10.463,0,0,1,0,6.419,6.418,6.418,0,0,1,11.418,2.4,6.509,6.509,0,0,1,13.382.763a6.411,6.411,0,0,1,7.06.656l-.572.458A5.651,5.651,0,0,0,16.419.711a5.71,5.71,0,0,0-4.707,2.481l-.293.426-.293-.426A5.707,5.707,0,0,0,.711,6.419c0,3.374,2.5,6.612,4.6,8.734l-.558.447ZM21.2,3.3h0a5.766,5.766,0,0,0-.534-.693l.557-.446a6.438,6.438,0,0,1,.535.692L21.2,3.3Z" transform="translate(0 0)" fill="#1d1d1b"/>
</svg>
