<svg id="Group_16766" data-name="Group 16766" xmlns="http://www.w3.org/2000/svg" xmlns:xlink="http://www.w3.org/1999/xlink" width="16.084" height="21.081" viewBox="0 0 16.084 21.081">
  <defs>
    <linearGradient id="linear-gradient" x1="0.5" x2="0.5" y2="1" gradientUnits="objectBoundingBox">
      <stop offset="0" stop-color="#ffe100"/>
      <stop offset="1" stop-color="#f98900"/>
    </linearGradient>
  </defs>
  <g id="Group_16762" data-name="Group 16762" transform="translate(0 0)">
    <g id="Group_16760" data-name="Group 16760" transform="translate(0 0)">
      <path id="Path_3763" data-name="Path 3763" d="M2768.786-702.859h5.977l1.891-3.172v-8.451l-.811-1.466.811-6.367-.232-.81-.579-.309h-1.08l-3.2,9.686v7.988Z" transform="translate(-2768.671 723.94)" fill="url(#linear-gradient)"/>
      <path id="Path_3761" data-name="Path 3761" d="M97.641,68.611c-.522-.211-1.092.157-1.43.933L93.1,78.567a.273.273,0,0,0-.015.09v8.052L90.71,88.934a.275.275,0,0,0,.377.4l2.46-2.307a.278.278,0,0,0,.087-.2V78.7l3.089-8.958c.167-.385.465-.723.713-.622a1.192,1.192,0,0,1,.748,1.263l-.77,5.7a1.412,1.412,0,0,0-2.074,1.221l-.185,1.755L94.621,83.3a.274.274,0,0,0,.239.307.278.278,0,0,0,.307-.238l.535-4.24.186-1.791a.856.856,0,0,1,.453-.761.839.839,0,0,1,.871.032,1.868,1.868,0,0,1,.223.17l.009.008a2.583,2.583,0,0,1,.736,2.025v6.974A2.139,2.139,0,0,1,97.8,87l-1.356,1.979a.275.275,0,0,0,.454.311l1.356-1.98a2.685,2.685,0,0,0,.473-1.525V78.815a3.165,3.165,0,0,0-.814-2.337l.814-6.054A1.75,1.75,0,0,0,97.641,68.611Z" transform="translate(-90.513 -68.438)" fill="#1d1d1b"/>
      <path id="Path_3761_-_Outline" data-name="Path 3761 - Outline" d="M97.106,68.2h0a.9.9,0,0,1,.34.067,1.737,1.737,0,0,1,.872.719,2.289,2.289,0,0,1,.288,1.2V70.2L97.8,76.2a3.309,3.309,0,0,1,.808,2.377v6.972a2.787,2.787,0,0,1-.493,1.59l-1.359,1.983a.392.392,0,0,1-.312.156.39.39,0,0,1-.33-.6l0,0L97.471,86.7a2.016,2.016,0,0,0,.357-1.15V78.577a2.483,2.483,0,0,0-.7-1.94l-.008-.007a1.763,1.763,0,0,0-.21-.16.725.725,0,0,0-.753-.028h0a.74.74,0,0,0-.393.659v.006l-.187,1.8-.535,4.24a.394.394,0,0,1-.388.34l-.045,0a.388.388,0,0,1-.339-.435l.534-4.232.185-1.749a1.526,1.526,0,0,1,2.1-1.383l.748-5.544a1.08,1.08,0,0,0-.676-1.15.13.13,0,0,0-.05-.01c-.152,0-.373.244-.514.567l-3.081,8.936v8.1a.4.4,0,0,1-.122.283l-2.463,2.31a.39.39,0,0,1-.534-.567l0,0,2.336-2.192v-8a.386.386,0,0,1,.021-.127l3.117-9.031C96.158,68.6,96.62,68.2,97.106,68.2Zm1.272,1.978a1.643,1.643,0,0,0-1.017-1.7.675.675,0,0,0-.254-.051c-.391,0-.775.344-1.027.919l-3.113,9.018a.158.158,0,0,0-.009.052v8.1L90.551,88.78a.161.161,0,0,0,.221.235l2.459-2.306a.164.164,0,0,0,.051-.118V78.449l3.1-8.984c.142-.327.417-.709.725-.709a.357.357,0,0,1,.136.027,1.3,1.3,0,0,1,.819,1.368v.008l-.792,5.875-.145-.077a1.3,1.3,0,0,0-1.907,1.123v.01l-.186,1.757L94.5,83.08a.16.16,0,0,0,.139.18h.018a.165.165,0,0,0,.162-.142l.534-4.237.186-1.784a.967.967,0,0,1,.513-.855.953.953,0,0,1,.988.037,1.985,1.985,0,0,1,.236.18l.008.007a2.7,2.7,0,0,1,.775,2.111v6.974a2.243,2.243,0,0,1-.4,1.279L96.3,88.807a.161.161,0,0,0,.266.182l1.354-1.977a2.56,2.56,0,0,0,.453-1.46V78.579a3.061,3.061,0,0,0-.78-2.256l-.04-.04Z" transform="translate(-90.275 -68.202)" fill="#1d1d1b"/>
    </g>
    <g id="Group_16761" data-name="Group 16761" transform="translate(7.753 0)">
      <path id="Path_3763-2" data-name="Path 3763" d="M2776.653-702.859h-5.976l-1.891-3.172v-8.451l.811-1.466-.811-6.367.232-.81.579-.309h1.081l3.2,9.686v7.988Z" transform="translate(-2768.437 723.94)" fill="url(#linear-gradient)"/>
      <path id="Path_3761-2" data-name="Path 3761" d="M91.717,68.611c.522-.211,1.092.157,1.43.933l3.114,9.023a.273.273,0,0,1,.015.09v8.052l2.372,2.226a.275.275,0,0,1-.377.4l-2.46-2.307a.278.278,0,0,1-.087-.2V78.7l-3.089-8.958c-.167-.385-.465-.723-.713-.622a1.192,1.192,0,0,0-.748,1.263l.77,5.7a1.412,1.412,0,0,1,2.074,1.221l.185,1.755.534,4.234a.274.274,0,0,1-.239.307.278.278,0,0,1-.307-.238l-.535-4.24-.186-1.791a.856.856,0,0,0-.453-.761.839.839,0,0,0-.871.032,1.868,1.868,0,0,0-.223.17l-.009.008a2.583,2.583,0,0,0-.736,2.025v6.974A2.139,2.139,0,0,0,91.555,87l1.356,1.979a.275.275,0,0,1-.454.311L91.1,87.312a2.685,2.685,0,0,1-.473-1.525V78.815a3.165,3.165,0,0,1,.814-2.337l-.814-6.054A1.75,1.75,0,0,1,91.717,68.611Z" transform="translate(-90.514 -68.438)" fill="#1d1d1b"/>
      <path id="Path_3761_-_Outline-2" data-name="Path 3761 - Outline" d="M91.775,68.2h0a.9.9,0,0,0-.34.067,1.737,1.737,0,0,0-.872.719,2.289,2.289,0,0,0-.288,1.2V70.2l.808,6.006a3.309,3.309,0,0,0-.808,2.377v6.972a2.787,2.787,0,0,0,.493,1.59l1.359,1.983a.392.392,0,0,0,.312.156.39.39,0,0,0,.33-.6l0,0L91.41,86.7a2.016,2.016,0,0,1-.357-1.15V78.577a2.483,2.483,0,0,1,.7-1.94l.008-.007a1.762,1.762,0,0,1,.21-.16.725.725,0,0,1,.753-.028h0a.74.74,0,0,1,.393.659v.006l.187,1.8.535,4.24a.394.394,0,0,0,.388.34l.045,0a.388.388,0,0,0,.339-.435l-.534-4.232-.185-1.749a1.526,1.526,0,0,0-2.1-1.383l-.748-5.544a1.08,1.08,0,0,1,.676-1.15.13.13,0,0,1,.05-.01c.152,0,.373.244.514.567l3.081,8.936v8.1a.4.4,0,0,0,.122.283l2.463,2.31a.39.39,0,0,0,.534-.567l0,0-2.336-2.192v-8a.386.386,0,0,0-.021-.127l-3.117-9.031C92.723,68.6,92.261,68.2,91.775,68.2ZM90.5,70.18a1.643,1.643,0,0,1,1.017-1.7.675.675,0,0,1,.254-.051c.391,0,.775.344,1.027.919l3.113,9.018a.158.158,0,0,1,.009.052v8.1L98.33,88.78a.161.161,0,0,1-.221.235L95.65,86.708a.164.164,0,0,1-.051-.118V78.449l-3.1-8.984c-.142-.327-.417-.709-.725-.709a.357.357,0,0,0-.136.027,1.3,1.3,0,0,0-.819,1.368v.008l.792,5.875.145-.077a1.3,1.3,0,0,1,1.907,1.123v.01l.186,1.757.534,4.234a.16.16,0,0,1-.139.18h-.018a.165.165,0,0,1-.162-.142l-.534-4.237L93.345,77.1a.967.967,0,0,0-.513-.855.953.953,0,0,0-.988.037,1.985,1.985,0,0,0-.236.18l-.008.007a2.7,2.7,0,0,0-.775,2.111v6.974a2.243,2.243,0,0,0,.4,1.279l1.354,1.977a.161.161,0,0,1-.266.182l-1.354-1.977a2.56,2.56,0,0,1-.453-1.46V78.579a3.061,3.061,0,0,1,.78-2.256l.04-.04Z" transform="translate(-90.275 -68.202)" fill="#1d1d1b"/>
    </g>
  </g>
</svg>
