<svg xmlns="http://www.w3.org/2000/svg" width="44.2" height="43.9" viewBox="0 0 44.2 43.9">
  <g id="Trending_icon" transform="translate(0.1 -0.1)">
    <path id="Path_7" data-name="Path 7" d="M42,13a11.4,11.4,0,0,0-1-1.9,21.3,21.3,0,0,0-7.5-7.7,10.076,10.076,0,0,0-2.3-1.2A21.887,21.887,0,0,0,22.4.1h-1a21.887,21.887,0,0,0-8.8,2.1c-.8.4-1.6.8-2.3,1.2A21.561,21.561,0,0,0,2.9,11a17.377,17.377,0,0,0-1,1.9,21.15,21.15,0,0,0-2,9,21.6,21.6,0,0,0,2,9.1,11.4,11.4,0,0,0,1,1.9,22.479,22.479,0,0,0,8.8,8.5,19.986,19.986,0,0,0,2.1,1A22.055,22.055,0,0,0,21.5,44h1a22.055,22.055,0,0,0,7.7-1.6,19.986,19.986,0,0,0,2.1-1,21.813,21.813,0,0,0,8.8-8.5,17.376,17.376,0,0,0,1-1.9,21.266,21.266,0,0,0,2-9.1A20.119,20.119,0,0,0,42,13ZM2,28.3A21.852,21.852,0,0,1,1,22a18.9,18.9,0,0,1,1-6.3ZM22.5,1a19.677,19.677,0,0,1,6.9,1.3H22.5Zm-1,0V2.3H14.6A20.117,20.117,0,0,1,21.5,1ZM12.7,3.3h8.8v8.8H12.7Zm0,9.8h8.8v8.8H12.7Zm0,9.8h8.8v8.8H12.7Zm-1,17.4a21.6,21.6,0,0,1-7.9-7.7h7.9Zm0-8.6H3.3c-.1-.3-.3-.5-.4-.8v-8h8.8Zm0-9.8H2.9V13.1h8.8v8.8Zm0-9.8H3.5a20.968,20.968,0,0,1,8.3-8.4v8.4Zm1,28.8V32.7h8.8v8.8H14C13.6,41.3,13.1,41.1,12.7,40.9ZM17,42.4h4.5V43A17.4,17.4,0,0,1,17,42.4Zm5.5.6v-.6H27A17.4,17.4,0,0,1,22.5,43Zm8.8-2.1c-.4.2-.9.4-1.3.6H22.5V32.7h8.8Zm0-9.2H22.5V22.9h8.8Zm0-9.8H22.5V13.1h8.8Zm0-9.8H22.5V3.3h8.8Zm1-8.4a21.613,21.613,0,0,1,8.3,8.4H32.3Zm0,36.6V32.6h7.9A21.575,21.575,0,0,1,32.3,40.3Zm8.8-9.5a5.937,5.937,0,0,1-.4.8H32.3V22.8h8.8v8Zm0-8.9H32.3V13.1h8.8Zm.9-6.2A21.852,21.852,0,0,1,43,22a18.9,18.9,0,0,1-1,6.3Z" fill="#f6f6f6"/>
    <g id="Group_2" data-name="Group 2">
      <path id="Path_8" data-name="Path 8" d="M7.6,34.1a1.08,1.08,0,0,1-.7-.3.967.967,0,0,1,0-1.4l5.7-6a1.135,1.135,0,0,1,.8-.3.842.842,0,0,1,.7.4l3.5,4.8,4.8-7.5a.889.889,0,0,1,1.3-.3L28,26l7.4-15.6a.985.985,0,1,1,1.8.8L29.4,27.8c-.1.3-.3.4-.6.5a1.063,1.063,0,0,1-.8-.1l-4.4-2.6-5.1,7.9a1.374,1.374,0,0,1-.8.5.909.909,0,0,1-.8-.4l-3.7-5L8.3,33.7A.67.67,0,0,1,7.6,34.1Z" fill="#e91111"/>
    </g>
  </g>
</svg>
