<svg xmlns="http://www.w3.org/2000/svg" width="24" height="24" viewBox="0 0 24 24">
  <path id="plus-square-Bold_1_" d="M604.6,1748h-7.2a8.41,8.41,0,0,0-8.4,8.4v7.2a8.41,8.41,0,0,0,8.4,8.4h7.2a8.41,8.41,0,0,0,8.4-8.4v-7.2A8.41,8.41,0,0,0,604.6,1748Zm6,15.6a6.007,6.007,0,0,1-6,6h-7.2a6.007,6.007,0,0,1-6-6v-7.2a6.007,6.007,0,0,1,6-6h7.2a6.007,6.007,0,0,1,6,6ZM607,1760a1.2,1.2,0,0,1-1.2,1.2h-3.6v3.6a1.2,1.2,0,0,1-2.4,0v-3.6h-3.6a1.2,1.2,0,0,1,0-2.4h3.6v-3.6a1.2,1.2,0,0,1,2.4,0v3.6h3.6A1.2,1.2,0,0,1,607,1760Z" transform="translate(-589 -1748)"/>
</svg>
