<svg id="f1830acd126a43b51fc6a76fbee4108c" xmlns="http://www.w3.org/2000/svg" width="13" height="13" viewBox="0 0 13 13">
  <path id="Path_2273" data-name="Path 2273" d="M0,0H13V13H0Z" fill="none"/>
  <path id="Path_2274" data-name="Path 2274" d="M9.417,4a5.417,5.417,0,1,0,5.417,5.417A5.415,5.415,0,0,0,9.417,4ZM5.083,9.417A4.329,4.329,0,0,1,12.071,6L6,12.071A4.317,4.317,0,0,1,5.083,9.417ZM9.417,13.75a4.317,4.317,0,0,1-2.654-.913l6.075-6.075A4.329,4.329,0,0,1,9.417,13.75Z" transform="translate(-2.917 -2.917)" fill="#ffbb01"/>
</svg>
