<svg xmlns="http://www.w3.org/2000/svg" width="19.997" height="17.14" viewBox="0 0 19.997 17.14">
  <g id="noun_Business_1915906" transform="translate(-2751 459)">
    <path id="Path_1298" data-name="Path 1298" d="M18.426,6.857H16.284V6.143A2.082,2.082,0,0,0,14.141,4H9.856A2.082,2.082,0,0,0,7.713,6.143v.714H5.571A3.443,3.443,0,0,0,2,10.428v7.142A3.443,3.443,0,0,0,5.571,21.14H18.426A3.443,3.443,0,0,0,22,17.569V10.428A3.443,3.443,0,0,0,18.426,6.857ZM9.142,6.151a.656.656,0,0,1,.714-.723h4.276a.656.656,0,0,1,.723.714v.714H9.142ZM5.571,8.285H18.422a2.039,2.039,0,0,1,2.13,1.849,18.055,18.055,0,0,1-2.84,2.085v-.363a.714.714,0,0,0-1.428,0v1.112A10.385,10.385,0,0,1,12,14a10.378,10.378,0,0,1-4.285-1.033V11.856a.714.714,0,0,0-1.428,0v.359A18.165,18.165,0,0,1,3.45,10.138,1.971,1.971,0,0,1,5.571,8.285ZM18.426,19.712H5.574a2.037,2.037,0,0,1-2.146-2.143V11.993a18.946,18.946,0,0,0,2.857,1.868v.852a.714.714,0,0,0,1.428,0v-.186a11.445,11.445,0,0,0,4.285.9,11.445,11.445,0,0,0,4.285-.9v.186a.714.714,0,0,0,1.428,0v-.852a18.946,18.946,0,0,0,2.857-1.868v5.572A2.038,2.038,0,0,1,18.426,19.712Z" transform="translate(2749 -463)"/>
  </g>
</svg>
