<svg xmlns="http://www.w3.org/2000/svg" width="20" height="20" viewBox="0 0 20 20">
  <path id="calendar-Bold_1_" d="M412,1965a1,1,0,0,0-2,0h-6a1,1,0,0,0-2,0,5.006,5.006,0,0,0-5,5v9a5.006,5.006,0,0,0,5,5h10a5.006,5.006,0,0,0,5-5v-9A5.006,5.006,0,0,0,412,1965Zm-10,2v1a1,1,0,0,0,2,0v-1h6v1a1,1,0,0,0,2,0v-1a3,3,0,0,1,3,3H399A3,3,0,0,1,402,1967Zm10,15H402a3,3,0,0,1-3-3v-7h16v7A3,3,0,0,1,412,1982Zm0-7a1,1,0,1,1-1-1A1,1,0,0,1,412,1975Zm-4,0a1,1,0,1,1-1-1A1,1,0,0,1,408,1975Zm-4,0a1,1,0,1,1-1-1A1,1,0,0,1,404,1975Zm8,4a1,1,0,1,1-1-1A1,1,0,0,1,412,1979Zm-4,0a1,1,0,1,1-1-1A1,1,0,0,1,408,1979Zm-4,0a1,1,0,1,1-1-1A1,1,0,0,1,404,1979Z" transform="translate(-397 -1964)" fill="#ffbb01"/>
</svg>
