<svg xmlns="http://www.w3.org/2000/svg" width="38.667" height="32.317" viewBox="0 0 38.667 32.317">
  <g id="_2561351_camera_icon" data-name="2561351_camera_icon" transform="translate(0 -2)">
    <path id="Path_1215" data-name="Path 1215" d="M33.621,34.317H5.046A5.052,5.052,0,0,1,0,29.271V11.808A5.052,5.052,0,0,1,5.046,6.762h5.349l2.62-3.929A1.871,1.871,0,0,1,14.571,2H24.1a1.871,1.871,0,0,1,1.557.833l2.62,3.929h5.349a5.052,5.052,0,0,1,5.046,5.046V29.271A5.052,5.052,0,0,1,33.621,34.317ZM5.046,10.5a1.305,1.305,0,0,0-1.3,1.3V29.271a1.305,1.305,0,0,0,1.3,1.3H33.621a1.305,1.305,0,0,0,1.3-1.3V11.808a1.305,1.305,0,0,0-1.3-1.3h-6.35a1.871,1.871,0,0,1-1.557-.833l-2.62-3.929H15.572l-2.62,3.929A1.871,1.871,0,0,1,11.4,10.5Z" transform="translate(0 0)" fill="#c1c1c1"/>
    <path id="Ellipse_154" data-name="Ellipse 154" d="M6.484-1A7.484,7.484,0,1,1-1,6.484,7.492,7.492,0,0,1,6.484-1Zm0,11.226A3.742,3.742,0,1,0,2.742,6.484,3.746,3.746,0,0,0,6.484,10.226Z" transform="translate(12.849 13.545)" fill="#c1c1c1"/>
  </g>
</svg>
