<svg xmlns="http://www.w3.org/2000/svg" width="16.842" height="16" viewBox="0 0 16.842 16">
  <path id="comment-dots-Bold_1_" d="M457.632,2037h-8.421A4.215,4.215,0,0,0,445,2041.21v10.948a.843.843,0,0,0,.52.778.829.829,0,0,0,.323.064.84.84,0,0,0,.6-.247l2.033-2.032a.841.841,0,0,1,.6-.247h8.565a4.215,4.215,0,0,0,4.211-4.211v-5.053A4.215,4.215,0,0,0,457.632,2037Zm2.526,9.263a2.529,2.529,0,0,1-2.526,2.526h-8.565a2.513,2.513,0,0,0-1.787.74l-.6.6v-8.915a2.529,2.529,0,0,1,2.526-2.526h8.421a2.529,2.529,0,0,1,2.526,2.526Zm-9.053-2.527a1.053,1.053,0,1,1-1.053-1.052A1.053,1.053,0,0,1,451.105,2043.737Zm3.368,0a1.053,1.053,0,1,1-1.053-1.052A1.053,1.053,0,0,1,454.474,2043.737Zm3.368,0a1.053,1.053,0,1,1-1.053-1.052A1.053,1.053,0,0,1,457.842,2043.737Z" transform="translate(-445 -2037)" fill="#c1c1c1"/>
</svg>
