<svg id="_3844426_approve_hand_like_thumb_up_icon" data-name="3844426_approve_hand_like_thumb_up_icon" xmlns="http://www.w3.org/2000/svg" width="15.25" height="13.071" viewBox="0 0 15.25 13.071">
  <path id="XMLID_254_" d="M20.808,9.937,19.453,5.185A1.641,1.641,0,0,0,17.882,4H10.545A.544.544,0,0,0,10,4.545v7.625a.542.542,0,0,0,.108.325l2.937,3.943a1.648,1.648,0,0,0,2.946-1.015V12.714h2.724a2.179,2.179,0,0,0,2.093-2.777Z" transform="translate(-5.643 -4)" fill="#e91111"/>
  <path id="XMLID_256_" d="M4.723,20.714H2.545A.544.544,0,0,1,2,20.169V12.545A.544.544,0,0,1,2.545,12H4.723a.544.544,0,0,1,.545.545v7.625A.544.544,0,0,1,4.723,20.714ZM3.634,13.362a.817.817,0,1,0,.817.817A.817.817,0,0,0,3.634,13.362Z" transform="translate(-2 -12)" fill="#e91111"/>
</svg>
