<svg xmlns="http://www.w3.org/2000/svg" width="24" height="24" viewBox="0 0 24 24">
  <g id="vuesax_bold_dislike" data-name="vuesax/bold/dislike" transform="translate(-364 -188)">
    <g id="dislike">
      <path id="Vector" d="M13.607,3.23V13.39a2.021,2.021,0,0,1-.34,1.12l-2.73,4.06a2.136,2.136,0,0,1-3.83-1.64l.52-3.27a1,1,0,0,0-.21-.78.93.93,0,0,0-.69-.31H2.217a2.239,2.239,0,0,1-1.87-.88,2.107,2.107,0,0,1-.2-1.95l2.46-7.49a3.213,3.213,0,0,1,3-2.25h3.9a3.26,3.26,0,0,1,2.04.66l1.28.99A2,2,0,0,1,13.607,3.23Z" transform="translate(366.003 190.27)" fill="gray"/>
      <path id="Vector-2" data-name="Vector" d="M2.18,14.21H3.21c1.55,0,2.18-.6,2.18-2.08V2.08C5.39.6,4.76,0,3.21,0H2.18C.63,0,0,.6,0,2.08V12.14C0,13.61.63,14.21,2.18,14.21Z" transform="translate(380.61 191.4)" fill="gray"/>
      <path id="Vector-3" data-name="Vector" d="M0,0H24V24H0Z" transform="translate(388 212) rotate(180)" fill="none" opacity="0"/>
    </g>
  </g>
</svg>
