<svg xmlns="http://www.w3.org/2000/svg" width="18.568" height="16.637" viewBox="0 0 18.568 16.637">
  <g id="message-2036110" transform="translate(0.5 0.5)">
    <path id="Path_2894" data-name="Path 2894" d="M9.139,9.633a2.528,2.528,0,0,1-1.563-.541L3.642,5.952a.5.5,0,1,1,.624-.782L8.2,8.308a1.528,1.528,0,0,0,1.886,0l3.894-3.136a.5.5,0,0,1,.627.779l-3.9,3.137-.005,0A2.528,2.528,0,0,1,9.139,9.633Z" transform="translate(-0.342 -0.481)"/>
    <path id="Path_2895" data-name="Path 2895" d="M4.465-.5h8.619a5.051,5.051,0,0,1,3.632,1.613,5.107,5.107,0,0,1,1.345,3.738v5.935a5.107,5.107,0,0,1-1.345,3.738,5.051,5.051,0,0,1-3.632,1.613H4.465A4.765,4.765,0,0,1,.86,14.552,5.6,5.6,0,0,1-.5,10.8V4.837A5.6,5.6,0,0,1,.86,1.085,4.765,4.765,0,0,1,4.465-.5Zm8.61,1H4.465A4.026,4.026,0,0,0,.5,4.837V10.8a4.026,4.026,0,0,0,3.965,4.337h8.61a4.047,4.047,0,0,0,2.907-1.293,4.1,4.1,0,0,0,1.079-3.015q0-.015,0-.029V4.837q0-.015,0-.029a4.1,4.1,0,0,0-1.079-3.015A4.047,4.047,0,0,0,13.075.5Z" transform="translate(0 0)"/>
  </g>
</svg>
