<svg xmlns="http://www.w3.org/2000/svg" width="21.23" height="19.116" viewBox="0 0 21.23 19.116">
  <g id="message-2036110" transform="translate(1 1)">
    <path id="Path_2894" data-name="Path 2894" d="M9.629,10.471a3.219,3.219,0,0,1-1.99-.689l-.007-.005L3.33,6.343A1,1,0,1,1,4.578,4.78l4.3,3.431a1.223,1.223,0,0,0,1.505,0l4.26-3.43A1,1,0,1,1,15.895,6.34L11.629,9.774l-.01.008A3.219,3.219,0,0,1,9.629,10.471Z"/>
    <path id="Path_2895" data-name="Path 2895" d="M4.888-1h9.439a5.983,5.983,0,0,1,4.3,1.91,6.045,6.045,0,0,1,1.593,4.412v6.472a6.045,6.045,0,0,1-1.593,4.412,5.983,5.983,0,0,1-4.3,1.91H4.888A5.663,5.663,0,0,1,.6,16.23,6.576,6.576,0,0,1-1,11.822V5.294A6.576,6.576,0,0,1,.6.886,5.663,5.663,0,0,1,4.888-1ZM14.31,1H4.888C2.635,1,1,2.806,1,5.294v6.528c0,2.488,1.635,4.294,3.888,4.294H14.31a3.975,3.975,0,0,0,2.853-1.27,4.035,4.035,0,0,0,1.061-2.966q0-.029,0-.059V5.294q0-.029,0-.059A4.035,4.035,0,0,0,17.163,2.27,3.975,3.975,0,0,0,14.31,1Z"/>
  </g>
</svg>
