<svg xmlns="http://www.w3.org/2000/svg" width="22.846" height="19.529" viewBox="0 0 22.846 19.529">
  <path id="Union_24" data-name="Union 24" d="M14.673,19.524l-.073,0a1.97,1.97,0,0,1-.418-.041,3.61,3.61,0,0,1-.816-.356A6.575,6.575,0,0,1,10.43,15.73a.52.52,0,0,1,.014-.416.733.733,0,0,1,.41-.377l.005,0a.584.584,0,0,1,.175-.027.672.672,0,0,1,.6.451c.007.017.013.031.018.046l.021.05.031.068.03.066c.037.077.085.178.137.275a5.148,5.148,0,0,0,.3.51c.051.076.108.156.167.239l.016.021.023.031a.212.212,0,0,1,.02.03l.008.008c.014.016.029.031.039.044.11.132.224.259.351.388s.233.224.344.318c.046.04.094.078.14.115l.04.032.007.005c.02.013.038.026.057.041l.022.016a5.405,5.405,0,0,0,.615.38c.094.051.171.09.242.122l.014.005.01,0,.009,0h0l.055.024.054.018a.941.941,0,0,1,.093.031l.072,0c.067,0,.137.007.2.009.153.005.292,0,.428,0,.12,0,.246-.014.411-.031l.026,0,.048-.006.015,0c.068-.01.135-.022.2-.033A4.865,4.865,0,0,0,16.626,18c.062-.022.122-.042.183-.066l.023-.009.026-.011a.013.013,0,0,1,.006,0c.032-.016.066-.031.1-.046.078-.035.152-.069.224-.107a5.332,5.332,0,0,0,.61-.368l.072-.054.07-.051.01-.007a.16.16,0,0,1,.021-.017l.023-.017c.1-.077.187-.154.269-.229a6.1,6.1,0,0,0,.494-.5c.078-.087.156-.178.229-.271l.007-.011c.011-.015.022-.029.032-.042l.027-.032v0h0c.031-.041.061-.081.092-.124.142-.2.276-.4.4-.606a10.992,10.992,0,0,0,.668-1.315.624.624,0,0,1,.025-.06s0-.008,0-.012l0-.006c.012-.028.023-.057.033-.085s.023-.061.036-.091c.047-.115.091-.233.132-.347.091-.252.167-.479.233-.694.143-.464.267-.93.371-1.386.094-.409.179-.843.253-1.292.032-.19.06-.383.087-.571a.31.31,0,0,1,.016-.122V9.434l.008-.067V9.362c.011-.076.02-.156.028-.233l0-.024c.061-.546.1-1.033.12-1.49l.007-.236q0-.086,0-.173l-.011-.045c0-.02-.011-.041-.018-.062l-.007-.006-.019-.006a.424.424,0,0,1-.049-.01h-.008c-.024,0-.051,0-.079,0h-.015a.257.257,0,0,1-.06.005h-.019l-.011,0-.022,0-.01,0c-.026,0-.052.012-.078.018l-.039.01a2.929,2.929,0,0,0-.3.093c-.063.023-.125.049-.188.075-.026.012-.055.023-.084.034l-.044.019-.005,0c-.07.027-.143.054-.218.077a3.465,3.465,0,0,1-.464.11,5.867,5.867,0,0,1-1.008.084,8.529,8.529,0,0,1-1.392-.124,9.824,9.824,0,0,1-2.3-.68A4.744,4.744,0,0,1,13.47,5.727a.638.638,0,0,1,0-.883.634.634,0,0,1,.9,0,2.133,2.133,0,0,0,.267.253h0l.051.038.035.026c.056.041.113.077.172.115.128.08.264.157.414.234.069.036.15.076.24.118.044.022.08.039.113.052l.024.01a.313.313,0,0,1,.086.026l.257.091-.016.012.2.072c.146.048.342.112.541.166A9.01,9.01,0,0,0,17.9,6.3l.042,0,.032,0,.131.014c.09.009.184.016.274.023.18.012.362.017.541.014.157,0,.319-.013.49-.031a.506.506,0,0,1,.1-.015l.011,0,.073-.013c.064-.014.13-.026.193-.043.081-.021.157-.041.23-.068l.043-.015a.134.134,0,0,1,.022-.012h0l.009,0,.021-.007.067-.025a4.221,4.221,0,0,1,.728-.247,2.506,2.506,0,0,1,.526-.06,1.564,1.564,0,0,1,.7.152,1.29,1.29,0,0,1,.628.747,2.645,2.645,0,0,1,.076,1.067c0,.038,0,.076-.006.113-.036.607-.1,1.252-.2,1.973a21.319,21.319,0,0,1-.544,2.677,14.819,14.819,0,0,1-1.13,2.96,8.37,8.37,0,0,1-1.9,2.5,6.039,6.039,0,0,1-2.965,1.428,6.663,6.663,0,0,1-.958.1l-.171,0C14.866,19.529,14.778,19.527,14.673,19.524ZM17.5,16.56a.171.171,0,0,1-.068-.055c-.012-.014-.035-.045-.057-.07-.061-.073-.128-.143-.2-.21-.086-.086-.177-.168-.281-.255l-.041-.034-.022-.017c-.013-.009-.025-.018-.037-.028-.07-.052-.134-.1-.194-.137a4.427,4.427,0,0,0-.481-.283c-.034-.018-.068-.033-.1-.049l-.03-.014-.065-.028a.5.5,0,0,1-.055-.023l-.039-.015-.038-.014-.142-.049A3.964,3.964,0,0,0,15,15.119l-.016,0-.081-.009-.174-.014c-.119-.006-.247-.009-.371-.007s-.27.012-.406.028l-.015,0c-.036.007-.07.013-.1.017-.069.011-.141.025-.212.041a5.508,5.508,0,0,0-.851.257l-.023.009-.035.014a.552.552,0,0,1-.5-.062.606.606,0,0,1-.28-.345l-.008-.023a.56.56,0,0,1-.023-.239.568.568,0,0,1,.085-.261,4.72,4.72,0,0,1,.91-1.03,3.672,3.672,0,0,1,2.137-.949c.063,0,.127-.007.191-.007a3.1,3.1,0,0,1,2.138.89,4.2,4.2,0,0,1,1.166,2.647.635.635,0,0,1-.457.617.557.557,0,0,1-.171.027A.634.634,0,0,1,17.5,16.56ZM17.163,15.1c-.006-.014-.012-.027-.017-.041C17.177,15.144,17.174,15.132,17.163,15.1Zm-2.027-1.291v.01l-.148.005a.636.636,0,0,0-.07.005l-.04.009a5.042,5.042,0,0,1,1.412.33l-.011-.007a.135.135,0,0,0-.022-.017c-.061-.041-.125-.08-.191-.116a1.08,1.08,0,0,0-.116-.059l-.008,0-.026-.011-.041-.014c-.058-.022-.113-.041-.17-.058s-.146-.038-.221-.052a.264.264,0,0,1-.091-.014l-.006,0-.09-.006h-.16ZM7.5,15.861a6.587,6.587,0,0,1-1.189-.2,6.717,6.717,0,0,1-1.41-.563,7.014,7.014,0,0,1-1.471-1.068,8.3,8.3,0,0,1-1.37-1.7A11.468,11.468,0,0,1,.94,9.843a18.254,18.254,0,0,1-.731-3.4C.129,5.8.07,5.116.034,4.405.017,4.065.006,3.692,0,3.263a2.37,2.37,0,0,1,.025-.428,1.319,1.319,0,0,1,.651-.956,1.459,1.459,0,0,1,.849-.151,2.617,2.617,0,0,1,.544.121c.128.044.247.1.346.14a.448.448,0,0,1,.05.02h0l.012.005a3.772,3.772,0,0,0,.538.149c.1.021.2.039.323.057h.02l.02,0H3.4l.04,0,.1.01.079.007c.26.024.531.036.806.036s.545-.012.827-.033c.141-.012.279-.026.423-.043L5.714,2.2h.01a.545.545,0,0,1,.06-.009c.067-.01.142-.022.205-.033A7.75,7.75,0,0,0,6.8,1.985a6.962,6.962,0,0,0,.732-.242l.014-.007.042-.018L7.631,1.7l.033-.015c.038-.018.076-.036.112-.055.093-.046.187-.1.3-.168.049-.032.1-.064.144-.1l.033-.025v0a2.27,2.27,0,0,0,.23-.213A4.826,4.826,0,0,1,9.406.306,1.788,1.788,0,0,1,10.324,0a1.231,1.231,0,0,1,1.107.7c0,.006.008.017.013.027s.011.023.016.037c.026.059.058.135.085.219.12.29.237.6.379,1.01.21.61.393,1.215.547,1.8a21.316,21.316,0,0,1,.48,2.3,15.905,15.905,0,0,1,.2,2.657c0,.044,0,.089,0,.133a1.865,1.865,0,0,1,.84-.391,2.265,2.265,0,0,1,.538-.041c.083.005.161.017.248.031a.275.275,0,0,1,.042.007h0c.113.016.142.022.153.023a1.42,1.42,0,0,1,.145.034,2.048,2.048,0,0,1,.323.124,1.673,1.673,0,0,1,.475.338,1.91,1.91,0,0,1,.474.853,2.183,2.183,0,0,1,.072.616.737.737,0,0,1-.231.527,1.829,1.829,0,0,1-.615.392,1.5,1.5,0,0,1-.554.1,2.438,2.438,0,0,1-1.421-.545A5.182,5.182,0,0,1,13,10.382a8.743,8.743,0,0,1-.227,1,6.907,6.907,0,0,1-1.233,2.4,6.192,6.192,0,0,1-2.221,1.723l-.12.056a2.792,2.792,0,0,1-.851.293c-.049.005-.1.011-.156.013-.084,0-.169.007-.254.007C7.8,15.88,7.651,15.873,7.5,15.861ZM1.326,2.98H1.31l-.017,0-.009,0L1.276,3a.155.155,0,0,0-.006.019c-.007.02-.014.04-.018.057a13.264,13.264,0,0,0,.036,1.375l.013.225c.018.316.043.644.076,1,.014.16.031.317.05.466l0,.027c.008.075.017.151.028.225v.011c0,.028.006.058.011.09V6.5c0,.006,0,.011,0,.014v0c.084.6.185,1.146.308,1.679s.257.994.41,1.44c.083.238.16.446.238.635l0,.005c0,.012.009.023.013.034l.016.041c.01.023.018.042.024.061l.026.058c.038.087.082.182.133.29A9.767,9.767,0,0,0,3.2,11.781c.1.153.2.3.3.436l.038.051.041.055.006.009a.009.009,0,0,0,0,0c.05.065.1.131.154.192a7.171,7.171,0,0,0,.637.664c.111.1.213.189.315.27l.025.021.019.014.037.028,0,0c.058.045.11.083.159.116a5.782,5.782,0,0,0,.641.389c.109.057.214.108.314.152l.006,0,.049.023.074.029.076.029a5.967,5.967,0,0,0,1.117.3l.06.009.067.01.013,0c.061.007.128.013.194.018.147.012.264.017.368.017s.191,0,.294-.011l.007,0c.057-.021.117-.042.175-.065l.087-.036.032-.013.04-.018.009,0,.036-.015a.4.4,0,0,1,.049-.022l.148-.069a6.263,6.263,0,0,0,.589-.328c.091-.056.18-.118.266-.178l.051-.039c.024-.019.05-.039.077-.057l.05-.04a5.054,5.054,0,0,0,.451-.411c.061-.063.125-.132.2-.218.033-.038.067-.078.1-.118a.559.559,0,0,1,.049-.061l.023-.03a.382.382,0,0,1,.028-.039l.017-.023.083-.119c.052-.076.105-.158.161-.251.1-.165.194-.338.28-.515.01-.023.021-.045.031-.068l.031-.067.018-.039,0,0,.007-.019.014-.033c.03-.074.059-.146.086-.22.066-.178.124-.363.179-.564.05-.179.1-.374.137-.582.019-.1.036-.2.052-.294.009-.05.016-.1.023-.152l0-.019c0-.009,0-.017,0-.023v0a12.1,12.1,0,0,0,.033-2.445c-.013-.177-.032-.371-.06-.609,0-.056-.012-.108-.018-.159-.005-.029-.008-.053-.011-.075,0-.006,0-.012,0-.015L11.714,6.3c-.058-.376-.13-.764-.212-1.154-.135-.635-.312-1.311-.526-2.008-.157-.5-.313-.958-.479-1.395-.059-.152-.1-.271-.15-.382,0-.008-.008-.015-.011-.023s-.021-.043-.032-.065l-.018,0c-.021,0-.041.009-.061.015h0l-.068.034a1.9,1.9,0,0,0-.175.11l-.006,0c-.013.007-.033.023-.046.031a.075.075,0,0,1-.016.012l-.05.042a4.116,4.116,0,0,0-.343.334c-.1.11-.211.222-.329.326a3.764,3.764,0,0,1-.643.452,6.437,6.437,0,0,1-1.555.6,10.3,10.3,0,0,1-2.523.312c-.3,0-.6-.013-.889-.04a5.857,5.857,0,0,1-1.443-.28L2,3.178l-.144-.06-.025-.01L1.8,3.1a2.613,2.613,0,0,0-.385-.114h0c-.021,0-.042,0-.065,0ZM14.316,9.706l-.047.011c-.041.009-.081.017-.119.028.043.04.086.078.13.115l.063.051c.023.014.045.031.067.046l.053.038a2.162,2.162,0,0,0,.274.161.3.3,0,0,1,.1.039.925.925,0,0,0,.1.028l.038.007.015,0H15.1l.019,0,.03-.007.024-.008c-.013-.048-.028-.1-.043-.145l-.009-.028c-.011-.021-.021-.039-.033-.059l-.005-.01c-.005-.01-.014-.023-.023-.036a.055.055,0,0,1-.006-.009L15.024,9.9l-.014-.014h0l0,0a.243.243,0,0,1-.035-.024c-.026-.016-.053-.036-.076-.052l-.019-.014a.268.268,0,0,1-.062-.026l-.058-.016-.009,0a.657.657,0,0,0-.111-.025l-.111-.017h-.015a.872.872,0,0,0-.138,0h-.006ZM6.5,13.291a4.145,4.145,0,0,1-1.852-1.163,4.842,4.842,0,0,1-.678-.859.641.641,0,0,1,.094-.76.562.562,0,0,1,.428-.182.817.817,0,0,1,.324.071l.012,0,.015.006a.44.44,0,0,0,.043.018l.146.057c.082.03.167.061.252.086a4.909,4.909,0,0,0,.522.139c.071.015.149.03.231.042l.01,0,.043.005a.322.322,0,0,1,.048.009h.008l.041,0a4.194,4.194,0,0,0,.449.023c.137,0,.261-.005.381-.016.04,0,.068-.005.1-.009h0c.034-.007.069-.013.1-.017l.062-.009a4.216,4.216,0,0,0,.655-.172c.053-.018.108-.04.16-.06l.031-.013.022-.009c.106-.047.192-.087.269-.128a4.447,4.447,0,0,0,.472-.28c.071-.049.136-.1.2-.142l0,0L9.1,9.932l.08-.065c.092-.076.183-.158.269-.241a2.284,2.284,0,0,0,.22-.232.56.56,0,0,1,.445-.191.651.651,0,0,1,.254.049.622.622,0,0,1,.388.593,3.938,3.938,0,0,1-.07.45,4.592,4.592,0,0,1-.645,1.579A3.354,3.354,0,0,1,8.03,13.319a.692.692,0,0,1-.1.015A3.2,3.2,0,0,1,7.3,13.4,3.05,3.05,0,0,1,6.5,13.291Zm1.569-1.443a5.033,5.033,0,0,1-1.323.2c.045.014.095.028.151.042l.132.027.026.005.022,0h0l.016,0c.064.005.124.012.185.012h.037c.072,0,.145-.005.221-.012l.026,0,.011,0c.041-.006.082-.014.122-.024l.007,0a1.91,1.91,0,0,0,.285-.086.274.274,0,0,1,.095-.04c.031-.014.061-.028.09-.044a2.229,2.229,0,0,0,.232-.139l.03-.023a.176.176,0,0,1,.033-.028l.059-.044.018-.015C8.388,11.745,8.228,11.8,8.067,11.849Zm8.807-.537-.007-.018a.643.643,0,0,1-.048-.454A2.047,2.047,0,0,1,18,9.517a2,2,0,0,1,1.189-.036,2.058,2.058,0,0,1,1.557,1.5.646.646,0,0,1-.287.707c-.1.061-.2.114-.3.163a3.99,3.99,0,0,1-1.573.46l-.094,0A1.725,1.725,0,0,1,16.874,11.311Zm2.746-.205,0-.007a0,0,0,0,0,0,0l-.006-.013Zm-1.086-.439-.016,0a.726.726,0,0,0-.085.023l-.006,0-.006,0-.013.005-.035.018-.044.029-.014.009a1.361,1.361,0,0,0-.108.106l-.017.02-.009.013-.006.01a.432.432,0,0,0-.032.047l.005.005.005,0,.029.021.006,0,.041.022.008,0c.039.013.075.023.11.031a.306.306,0,0,1,.054.006l.015,0c.05,0,.1,0,.155,0h.006c.022,0,.042,0,.067,0h.006l.057-.009.038-.008.042-.009c.053-.012.1-.023.15-.036.09-.026.189-.059.308-.1l.017-.007-.039-.033c-.027-.016-.056-.034-.085-.05l0,0a.612.612,0,0,0-.055-.029l-.031-.011c-.023-.009-.048-.018-.071-.025a1.207,1.207,0,0,0-.125-.031l-.006,0c-.027-.006-.052-.013-.076-.016l-.007,0-.022,0-.028,0-.1,0ZM2.853,8.022a.563.563,0,0,1-.216-.139.636.636,0,0,1-.176-.543c0-.021.005-.041.009-.061A2.115,2.115,0,0,1,4,5.648a2.009,2.009,0,0,1,1.235-.013,1.9,1.9,0,0,1,.863.613,1.938,1.938,0,0,1,.379.662,1.3,1.3,0,0,1-.483,1.138,1.938,1.938,0,0,1-1.327.465A4.238,4.238,0,0,1,2.853,8.022Zm1.7-1.22-.031.005-.023,0c-.04.009-.08.02-.122.031l-.024.007-.037.011a.538.538,0,0,0-.065.02l-.01,0-.01,0a2.13,2.13,0,0,0-.251.146l-.013.012c-.019.017-.038.035-.056.054.061.021.122.04.184.056a2.806,2.806,0,0,0,.32.074l.006,0,.036.005h.008l.029,0c.049,0,.1.006.151.009h0c.059,0,.118,0,.173,0l.046,0A1.182,1.182,0,0,0,5.012,7.2l.005,0,.022-.011L5.1,7.151l.06-.06h0c-.009-.014-.018-.026-.026-.04L5.092,7c-.034-.034-.068-.067-.1-.1h0c-.024-.016-.048-.031-.075-.047l-.031-.016-.026-.013c-.038-.011-.075-.021-.11-.029h-.07ZM8.275,7.817A1.827,1.827,0,0,1,7.255,7.4.556.556,0,0,1,7,7.063.612.612,0,0,1,6.98,6.89a2.113,2.113,0,0,1,0-.459,2.035,2.035,0,0,1,.44-1.078A1.945,1.945,0,0,1,8.55,4.72a2.428,2.428,0,0,1,.514-.056,2.039,2.039,0,0,1,1.624.756.632.632,0,0,1,.081.759c-.09.133-.192.26-.28.368A3.791,3.791,0,0,1,9.277,7.582a2.026,2.026,0,0,1-.9.238C8.346,7.82,8.31,7.819,8.275,7.817Zm.67-1.894-.017,0-.042.008c-.045.01-.088.018-.129.029A1.282,1.282,0,0,0,8.619,6s0,0-.005,0l-.039.016-.119.068a.227.227,0,0,1-.023.019c-.019.018-.037.035-.054.054a.287.287,0,0,1-.053.076L8.3,6.284c-.007.023-.015.045-.023.065s-.016.043-.021.06c-.01.034-.016.069-.024.111l0,.015a.443.443,0,0,0,.061.016h.033l.115,0,.04-.009A1.42,1.42,0,0,0,8.619,6.5h0l.032-.015.032-.015c.046-.025.091-.052.137-.08s.1-.063.146-.1l.014-.012.034-.029c.076-.063.156-.137.244-.225.023-.022.045-.046.068-.07-.023-.007-.047-.013-.071-.019a.381.381,0,0,1-.08-.014l-.064,0H9.073C9.034,5.918,8.991,5.919,8.945,5.923Z" transform="translate(0)"/>
</svg>
