<svg id="Layer_2" data-name="Layer 2" xmlns="http://www.w3.org/2000/svg" width="18" height="18" viewBox="0 0 18 18">
  <path id="Path_1313" data-name="Path 1313" d="M17.538,21.615H6.462A3.462,3.462,0,0,1,3,18.154V8.462A3.462,3.462,0,0,1,6.462,5H17.538A3.462,3.462,0,0,1,21,8.462v9.692A3.462,3.462,0,0,1,17.538,21.615ZM6.462,6.385A2.077,2.077,0,0,0,4.385,8.462v9.692a2.077,2.077,0,0,0,2.077,2.077H17.538a2.077,2.077,0,0,0,2.077-2.077V8.462a2.077,2.077,0,0,0-2.077-2.077Z" transform="translate(-3 -3.615)"/>
  <path id="Path_1314" data-name="Path 1314" d="M22.462,23.154H19.692A.692.692,0,0,1,19,22.462V19.692A.692.692,0,0,1,19.692,19h2.769a.692.692,0,0,1,.692.692v2.769A.692.692,0,0,1,22.462,23.154Zm-2.077-1.385h1.385V20.385H20.385Z" transform="translate(-7.923 -7.923)"/>
  <path id="Path_1315" data-name="Path 1315" d="M20.308,12.385H3.692a.692.692,0,1,1,0-1.385H20.308a.692.692,0,1,1,0,1.385Z" transform="translate(-3 -5.462)"/>
  <path id="Path_1316" data-name="Path 1316" d="M10.692,7.154A.692.692,0,0,1,10,6.462V3.692a.692.692,0,1,1,1.385,0V6.462A.692.692,0,0,1,10.692,7.154Z" transform="translate(-5.154 -3)"/>
  <path id="Path_1317" data-name="Path 1317" d="M20.692,7.154A.692.692,0,0,1,20,6.462V3.692a.692.692,0,1,1,1.385,0V6.462A.692.692,0,0,1,20.692,7.154Z" transform="translate(-8.231 -3)"/>
</svg>
