<svg xmlns="http://www.w3.org/2000/svg" width="489.975" height="484.532" viewBox="0 0 489.975 484.532">
  <path id="filter" d="M222.56,37.734c-31.035,0-57.133,21.375-64.977,50.039h-35a17.5,17.5,0,1,0,0,35h34.934c7.789,28.742,33.949,50.211,65.043,50.211,30.781,0,56.723-21.051,64.8-49.355l290.15-.855h0a17.5,17.5,0,0,0,0-35l-289.67.855c-7.539-29.1-33.93-50.9-65.281-50.9Zm0,35a32.623,32.623,0,1,1-32.6,32.605,32.352,32.352,0,0,1,32.6-32.605Zm186.96,134.12c-31.551,0-58.1,21.754-65.934,50.926H122.576a17.5,17.5,0,1,0,0,35h221.04c7.855,29.164,34.375,50.961,65.9,50.961s58.043-21.8,65.9-50.961H577.5a17.5,17.5,0,0,0,0-35H475.442c-7.832-29.172-34.383-50.926-65.934-50.926Zm0,35a33.446,33.446,0,1,1-33.5,33.395,33.153,33.153,0,0,1,33.5-33.395Zm-136,143.42c-31.512,0-58.066,21.777-65.934,50.926H122.578a17.5,17.5,0,1,0,0,35h84.973c7.816,29.223,34.4,51.066,65.965,51.066s58.117-21.844,65.934-51.066h238.06a17.5,17.5,0,0,0,0-35H339.421c-7.867-29.145-34.387-50.926-65.9-50.926Zm0,35a33.5,33.5,0,1,1-33.5,33.5A33.239,33.239,0,0,1,273.52,420.274Z" transform="translate(-105.006 -37.733)"/>
</svg>
