<svg xmlns="http://www.w3.org/2000/svg" width="21.951" height="13" viewBox="0 0 21.951 13">
  <path id="Union_11" data-name="Union 11" d="M-2305.683,12.784a2.618,2.618,0,0,1-.667-1.748v-.657a3.255,3.255,0,0,1,2.449-3.173,1.8,1.8,0,0,1,1.326.177,2.963,2.963,0,0,0,2.858,0,1.8,1.8,0,0,1,1.32-.175,3.257,3.257,0,0,1,2.447,3.174v.657a2.618,2.618,0,0,1-.666,1.748.647.647,0,0,1-.485.216.65.65,0,0,1-.434-.165.65.65,0,0,1-.051-.918,1.318,1.318,0,0,0,.335-.881v-.657a1.957,1.957,0,0,0-1.464-1.913.5.5,0,0,0-.365.046,4.267,4.267,0,0,1-4.134,0,.5.5,0,0,0-.37-.05,1.955,1.955,0,0,0-1.466,1.913v.657a1.318,1.318,0,0,0,.335.881.649.649,0,0,1-.051.917.646.646,0,0,1-.433.166A.648.648,0,0,1-2305.683,12.784Zm14.473-2.387a.475.475,0,0,1-.157-.328.471.471,0,0,1,.122-.344A.965.965,0,0,0-2291,9.08V8.6a1.431,1.431,0,0,0-1.072-1.4.392.392,0,0,0-.092-.011.363.363,0,0,0-.176.044,3.119,3.119,0,0,1-1.516.393,3.1,3.1,0,0,1-1.509-.391.372.372,0,0,0-.181-.047.393.393,0,0,0-.091.011,1.413,1.413,0,0,0-.447.2l-.913-.465a2.345,2.345,0,0,1,1.128-.659,1.326,1.326,0,0,1,.321-.04,1.305,1.305,0,0,1,.649.17,2.162,2.162,0,0,0,1.043.267,2.179,2.179,0,0,0,1.051-.27,1.288,1.288,0,0,1,.642-.168,1.317,1.317,0,0,1,.325.041,2.385,2.385,0,0,1,1.791,2.324V9.08a1.913,1.913,0,0,1-.488,1.279.479.479,0,0,1-.355.158A.476.476,0,0,1-2291.21,10.4Zm-20.3-.038A1.913,1.913,0,0,1-2312,9.08V8.6a2.385,2.385,0,0,1,1.791-2.324,1.313,1.313,0,0,1,.325-.041,1.288,1.288,0,0,1,.642.168,2.175,2.175,0,0,0,1.051.27,2.156,2.156,0,0,0,1.043-.267,1.308,1.308,0,0,1,.649-.17,1.326,1.326,0,0,1,.321.04,2.344,2.344,0,0,1,1.129.659l-.913.465a1.409,1.409,0,0,0-.448-.2.379.379,0,0,0-.09-.011.372.372,0,0,0-.181.047,3.106,3.106,0,0,1-1.509.391,3.122,3.122,0,0,1-1.517-.393.357.357,0,0,0-.175-.044.4.4,0,0,0-.093.011,1.432,1.432,0,0,0-1.072,1.4V9.08a.966.966,0,0,0,.245.644.474.474,0,0,1,.122.344.476.476,0,0,1-.158.328.473.473,0,0,1-.318.121A.478.478,0,0,1-2311.512,10.359Zm6.788-6.784A3.579,3.579,0,0,1-2301.15,0a3.578,3.578,0,0,1,3.575,3.575,3.579,3.579,0,0,1-3.575,3.576A3.58,3.58,0,0,1-2304.725,3.575Zm1.3,0a2.278,2.278,0,0,0,2.275,2.275,2.278,2.278,0,0,0,2.275-2.275A2.278,2.278,0,0,0-2301.15,1.3,2.278,2.278,0,0,0-2303.425,3.575Zm6.951.042A2.621,2.621,0,0,1-2293.857,1a2.62,2.62,0,0,1,2.617,2.617,2.621,2.621,0,0,1-2.617,2.618A2.621,2.621,0,0,1-2296.474,3.617Zm.952,0a1.667,1.667,0,0,0,1.665,1.666,1.668,1.668,0,0,0,1.667-1.666,1.668,1.668,0,0,0-1.667-1.665A1.667,1.667,0,0,0-2295.522,3.617Zm-15.288,0A2.621,2.621,0,0,1-2308.193,1a2.62,2.62,0,0,1,2.617,2.617,2.62,2.62,0,0,1-2.617,2.618A2.621,2.621,0,0,1-2310.81,3.617Zm.951,0a1.668,1.668,0,0,0,1.666,1.666,1.667,1.667,0,0,0,1.666-1.666,1.667,1.667,0,0,0-1.666-1.665A1.668,1.668,0,0,0-2309.859,3.617Z" transform="translate(2312)"/>
</svg>
