<svg xmlns="http://www.w3.org/2000/svg" width="19.085" height="25.143" viewBox="0 0 19.085 25.143">
  <g id="noun-global-4412025" transform="translate(-148.416 -11.605)">
    <path id="Path_1328" data-name="Path 1328" d="M227.09,194.121a7.1,7.1,0,1,0,7.1-7.1A7.109,7.109,0,0,0,227.09,194.121Zm5.6-6.319a6.845,6.845,0,0,0-2.041,2.809,6.476,6.476,0,0,1-1.163-.965,6.5,6.5,0,0,1,3.2-1.844Zm-3.6,2.305h0a7.1,7.1,0,0,0,1.352,1.09,9.516,9.516,0,0,0-.429,2.611h-2.307a6.462,6.462,0,0,1,1.385-3.7Zm0,8.027h0a6.459,6.459,0,0,1-1.385-3.718h2.307a9.527,9.527,0,0,0,.43,2.628,7.091,7.091,0,0,0-1.352,1.09Zm.4.462h0a6.486,6.486,0,0,1,1.162-.965,6.846,6.846,0,0,0,2.041,2.809,6.5,6.5,0,0,1-3.2-1.844Zm4.406,1.912a6.1,6.1,0,0,1-2.7-3.188,6.443,6.443,0,0,1,2.7-.728Zm0-6.7h-1.064a.3.3,0,0,0,0,.608H233.9v1.567a7.135,7.135,0,0,0-2.908.756,8.96,8.96,0,0,1-.369-2.324h.187a.3.3,0,0,0,0-.608h-.186a8.956,8.956,0,0,1,.368-2.307,7.133,7.133,0,0,0,2.908.756Zm0-2.159a6.435,6.435,0,0,1-2.7-.728,6.094,6.094,0,0,1,2.7-3.187Zm1.792,8.79a6.85,6.85,0,0,0,2.043-2.815,6.42,6.42,0,0,1,1.161.971A6.494,6.494,0,0,1,235.689,200.44Zm3.6-2.306a7.014,7.014,0,0,0-1.35-1.1,9.535,9.535,0,0,0,.428-2.621h2.307a6.459,6.459,0,0,1-1.384,3.717Zm0-8.025a6.461,6.461,0,0,1,1.384,3.7H238.37a9.523,9.523,0,0,0-.427-2.6,7.016,7.016,0,0,0,1.35-1.1Zm-.4-.462a6.406,6.406,0,0,1-1.161.97,6.846,6.846,0,0,0-2.044-2.815A6.494,6.494,0,0,1,238.893,189.647Zm-4.388-1.913a6.106,6.106,0,0,1,2.706,3.195,6.375,6.375,0,0,1-2.706.722Zm0,4.525a7.024,7.024,0,0,0,2.9-.75,8.959,8.959,0,0,1,.356,2.3h-3.257Zm0,2.157h3.257a8.977,8.977,0,0,1-.357,2.316,7.016,7.016,0,0,0-2.9-.75Zm0,2.174a6.359,6.359,0,0,1,2.706.722,6.107,6.107,0,0,1-2.706,3.2Z" transform="translate(-74.839 -167.19)" stroke="#000" stroke-width="0.4"/>
    <path id="Path_1329" data-name="Path 1329" d="M149.808,194.971a9.9,9.9,0,0,1,.772-4.585l1.406.728a.3.3,0,0,0,.43-.362l-.773-2.433a.3.3,0,0,0-.382-.2l-2.433.773a.3.3,0,0,0-.048.56l1.259.652h0a10.507,10.507,0,0,0-.838,4.908.3.3,0,0,0,.3.282h.022a.3.3,0,0,0,.282-.325Zm-.1-5.719,1.444-.459.459,1.444Z" transform="translate(0 -168.227)" stroke="#000" stroke-width="0.4"/>
    <path id="Path_1330" data-name="Path 1330" d="M178.829,380.8h-.018a9.9,9.9,0,0,1-9.258-6.389c-.107-.284-.2-.575-.284-.869a.3.3,0,0,0-.586.163c.086.312.187.622.3.924a10.508,10.508,0,0,0,9.827,6.78h.019a.3.3,0,0,0,0-.608Z" transform="translate(-19.127 -344.862)" stroke="#000" stroke-width="0.4"/>
    <path id="Path_1331" data-name="Path 1331" d="M444.879,469.444a.3.3,0,0,0-.43,0,9.854,9.854,0,0,1-4.422,2.6.3.3,0,1,0,.162.586,10.463,10.463,0,0,0,4.695-2.757.3.3,0,0,0,0-.43Z" transform="translate(-277.7 -436.45)" stroke="#000" stroke-width="0.4"/>
    <g id="Group_1311" data-name="Group 1311">
      <path id="Path_1332" data-name="Path 1332" d="M197.059,18.227a.89.89,0,0,0,.263.633L199.463,21a.9.9,0,0,0,1.267,0l3.493-3.493a.9.9,0,0,0,0-1.267l-.058-.058.475-.475a.367.367,0,0,0,0-.52l-.012-.012,1.51-.276.034-.008a.367.367,0,0,0,.152-.611l-2.463-2.463a.367.367,0,0,0-.626.231l-.163,1.591a.368.368,0,0,0-.443.058l-.475.475-.073-.073a.9.9,0,0,0-1.267,0l-.184.184-.266-.266h0a.944.944,0,0,0-1.335,0l-1.705,1.7a.3.3,0,1,0,.43.43l1.705-1.7h0a.336.336,0,0,1,.475,0l.266.266-2.879,2.879a.89.89,0,0,0-.263.633Zm6.731-5.621,1.781,1.781-1.465.268-.477-.477Zm-.9,1.692,1.151,1.151-.306.306-1.15-1.151Zm-5.138,3.725,3.493-3.493a.288.288,0,0,1,.407,0l2.141,2.141a.288.288,0,0,1,0,.407L200.3,20.572a.288.288,0,0,1-.407,0l-2.141-2.141a.288.288,0,0,1,0-.407Z" transform="translate(-46.199)" stroke="#000" stroke-width="0.2"/>
      <path id="Path_1333" data-name="Path 1333" d="M222.346,120.815a.381.381,0,0,0,.538,0l1.279-1.279a.381.381,0,0,0,0-.538l-1.525-1.524a.381.381,0,0,0-.538,0l-1.279,1.279a.381.381,0,0,0,0,.538Zm.024-2.751,1.2,1.2-.957.957-1.2-1.2Z" transform="translate(-68.754 -100.759)" stroke="#000" stroke-width="0.2"/>
      <path id="Path_1334" data-name="Path 1334" d="M271.353,92.059a.847.847,0,1,0-.6-.248A.848.848,0,0,0,271.353,92.059Zm-.169-1.017a.239.239,0,1,1-.071.17.24.24,0,0,1,.071-.17Z" transform="translate(-116.244 -75.011)" stroke="#000" stroke-width="0.2"/>
    </g>
  </g>
</svg>
