<svg xmlns="http://www.w3.org/2000/svg" width="18.5" height="18.5" viewBox="0 0 18.5 18.5">
  <g id="noun_Happy_967512" transform="translate(-5.43 -11.417)">
    <g id="Group_17" data-name="Group 17" transform="translate(5.63 11.617)">
      <path id="Union_1" data-name="Union 1" d="M0,9.05A9.05,9.05,0,1,1,9.05,18.1,9.06,9.06,0,0,1,0,9.05Zm1.043,0A8.007,8.007,0,1,0,9.05,1.043,8.016,8.016,0,0,0,1.043,9.05Zm4.109,2.229a.521.521,0,1,1,1.043,0,2.855,2.855,0,1,0,5.711,0,.522.522,0,0,1,1.043,0,3.9,3.9,0,1,1-7.8,0Zm6.637-4.448c0-1.126.487-2.039,1.088-2.039s1.088.913,1.088,2.039-.487,2.04-1.088,2.04S11.789,7.958,11.789,6.831Zm-7.654,0c0-1.126.487-2.039,1.088-2.039s1.088.913,1.088,2.039-.487,2.04-1.088,2.04S4.135,7.958,4.135,6.831Z" transform="translate(0)"/>
      <path id="Union_1_-_Outline" data-name="Union 1 - Outline" d="M9.05-.2A9.25,9.25,0,1,1-.2,9.05,9.26,9.26,0,0,1,9.05-.2Zm0,18.1A8.85,8.85,0,1,0,.2,9.05,8.86,8.86,0,0,0,9.05,17.9ZM9.05.843A8.207,8.207,0,1,1,.843,9.05,8.216,8.216,0,0,1,9.05.843Zm0,16.014A7.807,7.807,0,1,0,1.243,9.05,7.816,7.816,0,0,0,9.05,16.857ZM5.223,4.592c.722,0,1.288.984,1.288,2.239s-.566,2.24-1.288,2.24-1.288-.984-1.288-2.24S4.5,4.592,5.223,4.592Zm0,4.079c.42,0,.888-.755.888-1.84s-.468-1.839-.888-1.839-.888.755-.888,1.839S4.8,8.671,5.223,8.671Zm7.654-4.079c.722,0,1.288.984,1.288,2.239s-.566,2.24-1.288,2.24-1.288-.984-1.288-2.24S12.155,4.592,12.877,4.592Zm0,4.079c.42,0,.888-.755.888-1.84s-.468-1.839-.888-1.839-.888.755-.888,1.839S12.457,8.671,12.877,8.671Zm-7.2,1.887a.722.722,0,0,1,.721.721,2.655,2.655,0,1,0,5.311,0,.722.722,0,0,1,1.443,0,4.1,4.1,0,1,1-8.2,0A.722.722,0,0,1,5.673,10.558ZM9.05,14.335a3.059,3.059,0,0,1-3.055-3.055.321.321,0,1,0-.643,0,3.7,3.7,0,1,0,7.4,0,.322.322,0,0,0-.643,0A3.059,3.059,0,0,1,9.05,14.335Z" transform="translate(0)"/>
    </g>
  </g>
</svg>
