<svg xmlns="http://www.w3.org/2000/svg" width="20.035" height="18.252" viewBox="0 0 20.035 18.252">
  <g id="noun_Health_3248188" transform="translate(-4.965 -8.71)">
    <g id="Artboard_13" data-name="Artboard 13" transform="translate(4.965 8.71)">
      <path id="Path_1283" data-name="Path 1283" d="M23.244,10.464a6,6,0,0,0-8.314-.158A6,6,0,0,0,6.68,19l7.759,7.759a.7.7,0,0,0,.985,0l7.82-7.815a6,6,0,0,0,0-8.479Zm-.985,7.492-7.327,7.329L7.665,18.019a4.6,4.6,0,1,1,6.5-6.5l.267.265a.7.7,0,0,0,.985,0l.33-.33a4.6,4.6,0,0,1,6.5,6.5Zm-3.719-.583a.7.7,0,0,1-.7.7H15.7v2.137a.7.7,0,1,1-1.394,0V18.07H12.174a.7.7,0,1,1,0-1.394h2.142V14.532a.7.7,0,0,1,1.394,0v2.144h2.133A.7.7,0,0,1,18.54,17.373Z" transform="translate(-4.965 -8.71)"/>
    </g>
  </g>
</svg>
