<svg xmlns="http://www.w3.org/2000/svg" width="24.01" height="24" viewBox="0 0 24.01 24">
  <g id="Group_52" data-name="Group 52" transform="translate(-17.99 -801)">
    <path id="home-Bold_1_" d="M226.771,1754.147l-6-4.825a6.045,6.045,0,0,0-7.527,0l-6,4.825A5.969,5.969,0,0,0,205,1758.82v7.193a6.005,6.005,0,0,0,6,6h3.6v-6a2.4,2.4,0,0,1,4.8,0v6h3.6a6.005,6.005,0,0,0,6-6v-7.193A5.969,5.969,0,0,0,226.771,1754.147Zm-.162,11.865a3.6,3.6,0,0,1-3.6,3.594h-1.2v-3.6a4.8,4.8,0,0,0-9.6,0v3.6H211a3.6,3.6,0,0,1-3.6-3.594v-7.193a3.58,3.58,0,0,1,1.342-2.8l6-4.825a3.631,3.631,0,0,1,4.519,0l6,4.825a3.577,3.577,0,0,1,1.343,2.8v7.193Z" transform="translate(-187.01 -947.008)"/>
  </g>
</svg>
