<svg xmlns="http://www.w3.org/2000/svg" width="24" height="24" viewBox="0 0 24 24">
  <g id="Group_17519" data-name="Group 17519" transform="translate(-5740 -15613)">
    <g id="Group_17517" data-name="Group 17517" transform="translate(229.592 274)">
      <path id="Path_17445" data-name="Path 17445" d="M119.436,60.976v5.061c0,.1,0,.2,0,.3,0,.078.025-.1.005-.021a.244.244,0,0,0-.013.046c-.008-.051.045-.086.017-.041a.241.241,0,0,0-.024.04c.006-.053.064-.07.027-.035l-.033.033c-.049.051.069-.038.025-.021a.238.238,0,0,0-.041.023c-.045.029.093-.029.04-.019l-.046.011c-.042.012.058-.008.057-.008s-.028,0-.037,0h-2.173a.449.449,0,0,0-.443.443v1.776c0,.068-.025.11.011-.034l.114-.2-.013.014.2-.114.082-.011.223.06c.132.087.071.057.031.02l-.108-.1-.381-.346-.982-.892c-.181-.164-.358-.333-.542-.493a.623.623,0,0,0-.479-.13h-1.809c-.262,0-.526-.01-.788,0h0c-.044,0-.036-.023.045.01a.338.338,0,0,0-.058-.014c-.053-.01.1.057.03.014a.265.265,0,0,0-.04-.024c.06.007.069.067.026.019l-.024-.025q-.044-.052.027.035a.232.232,0,0,0-.024-.04c-.036-.058.02.032.017.041a.313.313,0,0,0-.017-.069c0,.01.006.114.01.045,0,0,0-.005,0-.008,0-.055,0-.11,0-.166V62.679c0-.562,0-1.124,0-1.686,0,0,0-.01,0-.014v-.027q-.019.116-.006.046a.33.33,0,0,1,.009-.035c.01-.053-.057.1-.014.03a.264.264,0,0,0,.024-.04c-.007.06-.067.069-.019.026a.279.279,0,0,0,.042-.039c-.008.011-.09.055-.033.03.014-.006.08-.047.01-.008s-.005.007.015,0c.077-.023-.1,0-.021.005.028,0,.057,0,.086,0h5.607c.457,0,.914,0,1.371,0h.011c.087,0-.088-.022-.033-.008a.222.222,0,0,0,.058.015c-.009,0-.1-.053-.041-.017.017.011.066.053.014,0s.024.033.039.044c-.061-.047-.054-.067-.024-.022s-.021.028-.012-.031a.234.234,0,0,0,.013.046c.023.087-.008-.112-.005-.021a.443.443,0,0,0,.885,0,.908.908,0,0,0-.844-.891c-.036,0-.073,0-.109,0h-6.987a.91.91,0,0,0-.921.9c-.008.436,0,.873,0,1.309v3.955c0,.03,0,.06,0,.09a.9.9,0,0,0,.727.875,4.415,4.415,0,0,0,.684.018h2.248l-.313-.13,1.536,1.4.377.342a1.381,1.381,0,0,0,.249.21.492.492,0,0,0,.654-.178.512.512,0,0,0,.065-.255c0-.045,0-.089,0-.134V66.789l-.443.443h1.739a1.732,1.732,0,0,0,.9-.122.914.914,0,0,0,.443-.779c0-.041,0-.083,0-.125v-3.89c0-.44.007-.88,0-1.32,0-.007,0-.014,0-.021a.443.443,0,0,0-.885,0Z" transform="translate(5402.953 15283.918)"/>
      <path id="Path_17446" data-name="Path 17446" d="M322.69,216.325v5.316c0,.015,0,.031,0,.047,0,.056-.013.01.01-.044a.308.308,0,0,0-.01.047c-.017.083.055-.09.01-.018-.03.049-.051.042.018-.012a.53.53,0,0,0-.048.05c-.057.06.09-.048.015-.015l-.02.011q-.062.03.041-.017l-.046.013q-.07.013.046-.006a.487.487,0,0,0-.089,0h-2.438c-.139,0-.278,0-.417,0a.59.59,0,0,0-.431.224l-1.909,1.9c-.043.042-.112.08.022-.008l.223-.06.082.011.2.114-.013-.014.114.2c.035.138.011.109.011.042v-1.962a.449.449,0,0,0-.443-.443h-1.487c-.173,0-.348-.009-.521,0-.073,0,.107.027.009,0a.164.164,0,0,0-.034-.01c.009,0,.1.053.041.017a.129.129,0,0,0-.03-.017c-.032-.005.036.026.042.036a.4.4,0,0,0-.065-.065c.075.056.045.068.03.033a.231.231,0,0,0-.016-.031c-.029-.045.029.093.019.04,0-.011-.006-.023-.009-.035-.02-.074,0,.1.005.019,0-.03,0-.061,0-.091v-3.326c0-.381.012-.764,0-1.144,0-.006,0-.012,0-.017l-.443.443c.305,0,.61,0,.916,0a.906.906,0,0,0,.83-.495,1.487,1.487,0,0,0,.1-.669v-.511l-.443.443h6.126s0,0,.013,0c.055-.006-.1-.022-.045-.008l.035.008c.069.013-.077-.047-.018-.01a.152.152,0,0,0,.03.017q.029.019-.016-.015c-.032-.026-.035-.028-.009-.006a.375.375,0,0,0,.048.05c-.006,0-.046-.077-.036-.042a.161.161,0,0,0,.017.03c.036.058-.031-.1-.008-.007s0-.084,0-.01a.443.443,0,1,0,.885,0,.91.91,0,0,0-.916-.894h-5.25c-.28,0-.561-.007-.841,0h-.012a.449.449,0,0,0-.443.443c0,.259-.014.522,0,.781,0,.069.006-.035.01-.045a.309.309,0,0,0-.01.047c-.009.063.011-.028.021-.039a.24.24,0,0,0-.021.041c-.025.058.018-.025.03-.033a.316.316,0,0,0-.031.034.4.4,0,0,0-.034.031q.085-.063.042-.036l-.03.017c-.045.027-.01-.026.041-.017a.235.235,0,0,0-.046.013c-.075.02.1,0,.02-.005h-.948a.449.449,0,0,0-.443.443v4.446c0,.041,0,.083,0,.125a.894.894,0,0,0,.917.9h1.984l-.443-.443v.982c0,.344-.011.69,0,1.033a.488.488,0,0,0,.827.34c.02-.018.039-.038.058-.057l.315-.313,1-.993.683-.679-.313.13h2.8a1.975,1.975,0,0,0,.307-.018.9.9,0,0,0,.727-.876c.01-.444,0-.888,0-1.332v-2.466c0-.513.008-1.026,0-1.539,0-.008,0-.016,0-.025a.443.443,0,1,0-.885,0Z" transform="translate(5206.276 15133.601)"/>
      <path id="Path_17447" data-name="Path 17447" d="M206.288,110.831v-2.277a1.672,1.672,0,0,0-.126-.775,1.109,1.109,0,0,0-.719-.572,2.083,2.083,0,0,0-.489-.034h-.43a1.176,1.176,0,0,0-.759.274,1.116,1.116,0,0,0-.388.845c0,.04,0,.081,0,.121v.774c0,.537-.007,1.074,0,1.611,0,.011,0,.022,0,.033a.443.443,0,0,0,.885,0v-2.462c0-.022,0-.044,0-.065v-.011c0-.013,0-.025,0-.038.005-.1-.022.1,0,0,.006-.023.014-.045.02-.068.015-.052-.046.087-.018.041.006-.01.01-.021.016-.031s.03-.045.043-.069-.034.044-.034.044.022-.025.031-.034.085-.073.024-.027.017-.009.031-.018a.5.5,0,0,0,.062-.032c-.006,0-.106.037-.04.019l.046-.013.035-.008c.054-.015-.1.008-.046.005l.062,0h.672l.05,0c.072,0-.039,0-.046-.007a.35.35,0,0,0,.047.01c.021.005.107.039.037.008s.016.01.031.019a.542.542,0,0,0,.058.038c-.008,0-.081-.073-.036-.025l.033.032a.321.321,0,0,0,.023.026c.031.026-.033-.043-.033-.045a.644.644,0,0,0,.044.068l.016.031c.034.059-.017-.034-.017-.041a.459.459,0,0,0,.027.091c.019.073,0-.1,0-.022,0,.017,0,.033,0,.05v.011c0,.059,0,.118,0,.177v.793c0,.509-.006,1.019,0,1.528,0,.01,0,.02,0,.031a.443.443,0,1,0,.885,0Z" transform="translate(5314.01 15238.352)"/>
      <path id="Path_17448" data-name="Path 17448" d="M203.9,157.721h2.026a.443.443,0,0,0,0-.885H203.9a.443.443,0,0,0,0,.885Z" transform="translate(5313.931 15190.297)"/>
      <path id="Path_17449" data-name="Path 17449" d="M382.249,275.091h3.41a.443.443,0,1,0,0-.885h-3.41a.443.443,0,1,0,0,.885Z" transform="translate(5141.355 15076.727)"/>
      <path id="Path_17450" data-name="Path 17450" d="M385.891,274.642a1.808,1.808,0,0,1-.008.242c0,.041-.009.083-.013.124,0,.024.021-.146.01-.078l-.005.037q-.006.039-.013.077a3.108,3.108,0,0,1-.08.337c-.018.06-.038.121-.06.18-.011.031-.024.062-.036.093-.029.074.008-.035.021-.049a.242.242,0,0,0-.025.057,2.888,2.888,0,0,1-.22.4q-.032.049-.067.1l-.033.045c-.047.064.076-.095.015-.019s-.112.133-.172.2-.13.129-.2.189c-.033.028-.067.055-.1.082.129-.107-.012.007-.048.033a3.25,3.25,0,0,1-.3.186q-.08.044-.162.083l-.09.042c-.032.015-.147.054-.008,0a6.149,6.149,0,0,1-.839.249.446.446,0,0,0-.309.544.454.454,0,0,0,.544.309,4.451,4.451,0,0,0,1.478-.567,3.53,3.53,0,0,0,.965-.9,3.444,3.444,0,0,0,.624-1.675,1.976,1.976,0,0,0,.016-.32.443.443,0,1,0-.885,0Z" transform="translate(5140.073 15076.733)"/>
      <path id="Path_17451" data-name="Path 17451" d="M410.2,308.276a3.658,3.658,0,0,0,1.728,1.875,4.891,4.891,0,0,0,1.02.382.443.443,0,1,0,.235-.854c-.143-.036-.285-.078-.424-.127-.061-.021-.121-.045-.181-.069s.025.009.031.014a.489.489,0,0,0-.049-.021l-.095-.044a3.781,3.781,0,0,1-.611-.368c-.059-.044.082.066.012.009l-.058-.047q-.064-.053-.124-.11-.107-.1-.205-.209-.043-.048-.084-.1a.51.51,0,0,0-.045-.056c-.008-.007.067.09.042.055l-.026-.035q-.073-.1-.139-.205t-.124-.22q-.024-.048-.047-.1l-.024-.052c-.036-.08.033.078.018.044a.488.488,0,0,0-.2-.265.452.452,0,0,0-.341-.045.447.447,0,0,0-.309.545Z" transform="translate(5113.9 15044.302)"/>
      <path id="Path_17452" data-name="Path 17452" d="M435.361,255.151V254.5a.443.443,0,1,0-.885,0v.652a.443.443,0,1,0,.885,0Z" transform="translate(5090.391 15096.225)"/>
    </g>
    <rect id="Rectangle_1109" data-name="Rectangle 1109" width="24" height="24" transform="translate(5740 15613)" fill="none"/>
  </g>
</svg>
