<svg xmlns="http://www.w3.org/2000/svg" width="31" height="31" viewBox="0 0 31 31">
  <g id="language-svgrepo-com" transform="translate(0 -0.206)">
    <path id="Path_1362" data-name="Path 1362" d="M26.271,3H12.4V7.334h1.734v-2.6H26.271a.819.819,0,0,1,.867.867v9.535a.819.819,0,0,1-.867.867H15V22.07H10.408L7.2,24.584V22.07H4.6a.819.819,0,0,1-.867-.867V11.668A.819.819,0,0,1,4.6,10.8H15.869V9.068H4.6a2.554,2.554,0,0,0-2.6,2.6V21.2a2.554,2.554,0,0,0,2.6,2.6h.867v4.421L10.928,23.8h5.808V17.736h9.535a2.554,2.554,0,0,0,2.6-2.6V5.6A2.554,2.554,0,0,0,26.271,3Z" transform="translate(-0.266 -0.4)"/>
    <path id="Path_1363" data-name="Path 1363" d="M6.2,21.715H8.28l.52-1.387h2.687l.52,1.387h2.08L11.141,14H9.061Zm3.9-5.548.867,2.687H9.234Z" transform="translate(-0.826 -1.864)"/>
    <path id="Path_1364" data-name="Path 1364" d="M20,15.535a8.144,8.144,0,0,0,3.467-.867,8.448,8.448,0,0,0,3.467.867V13.8a5.94,5.94,0,0,1-1.82-.347A6.588,6.588,0,0,0,26.935,8.6V7.734h-2.6V6H22.6V7.734H20V9.467h5.114a4.357,4.357,0,0,1-1.647,3.121,5.066,5.066,0,0,1-1.387-1.82H20.26a6.3,6.3,0,0,0,1.56,2.687A4.981,4.981,0,0,1,20,13.8Z" transform="translate(-2.663 -0.799)"/>
    <rect id="Rectangle_664" data-name="Rectangle 664" width="31" height="31" transform="translate(0 0.206)" fill="rgba(0,0,0,0)"/>
  </g>
</svg>
