<svg xmlns="http://www.w3.org/2000/svg" width="15.25" height="13.071" viewBox="0 0 15.25 13.071">
  <g id="_3844426_approve_hand_like_thumb_up_icon" data-name="3844426_approve_hand_like_thumb_up_icon" transform="translate(-2 -4)">
    <path id="XMLID_254_" d="M20.808,11.134l-1.356,4.752a1.641,1.641,0,0,1-1.57,1.185H10.545A.544.544,0,0,1,10,16.526V8.9a.542.542,0,0,1,.108-.325l2.937-3.943a1.648,1.648,0,0,1,2.946,1.015V8.357h2.724a2.179,2.179,0,0,1,2.093,2.777Z" transform="translate(-3.643)" fill="#6c63ff"/>
    <path id="XMLID_256_" d="M4.723,12H2.545A.544.544,0,0,0,2,12.545v7.625a.544.544,0,0,0,.545.545H4.723a.544.544,0,0,0,.545-.545V12.545A.544.544,0,0,0,4.723,12ZM3.634,19.352a.817.817,0,1,1,.817-.817A.817.817,0,0,1,3.634,19.352Z" transform="translate(0 -3.643)" fill="#6c63ff"/>
  </g>
</svg>
