<svg xmlns="http://www.w3.org/2000/svg" width="15.99" height="16" viewBox="0 0 15.99 16">
  <path id="link-Bold_1_" d="M747.837,2042.773l-1.471,1.472a.8.8,0,0,1-1.131-1.131l1.471-1.472a2.372,2.372,0,0,0,0-3.349,2.421,2.421,0,0,0-3.347,0l-2.687,2.687a1.67,1.67,0,0,0-.214.253,2.355,2.355,0,0,0,.214,3.1.8.8,0,0,1-1.132,1.131,3.932,3.932,0,0,1-.4-5.136,3.075,3.075,0,0,1,.4-.475l2.688-2.688a3.967,3.967,0,1,1,5.609,5.612Zm-6.505-.235a.8.8,0,0,0,0,1.131,2.343,2.343,0,0,1,.55,2.478,2.261,2.261,0,0,1-.55.871l-2.687,2.687a2.422,2.422,0,0,1-3.347,0,2.372,2.372,0,0,1,0-3.349l1.471-1.472a.8.8,0,0,0-1.131-1.131l-1.471,1.472a3.967,3.967,0,1,0,5.61,5.611l2.687-2.687a3.844,3.844,0,0,0,.93-1.479,3.969,3.969,0,0,0-.931-4.133A.8.8,0,0,0,741.331,2042.538Z" transform="translate(-733.006 -2035.999)" fill="#c1c1c1"/>
</svg>
