<svg id="_3994368_gps_navigation_position_positioning_tracking_icon" data-name="3994368_gps_navigation_position_positioning_tracking_icon" xmlns="http://www.w3.org/2000/svg" width="15.714" height="15.714" viewBox="0 0 15.714 15.714">
  <path id="Path_1272" data-name="Path 1272" d="M14.732,6.875H13.651A5.882,5.882,0,0,0,8.839,2.064V.982a.982.982,0,1,0-1.964,0V2.064A5.882,5.882,0,0,0,2.064,6.875H.982a.982.982,0,1,0,0,1.964H2.064a5.882,5.882,0,0,0,4.811,4.811v1.081a.982.982,0,0,0,1.964,0V13.651a5.882,5.882,0,0,0,4.811-4.811h1.081a.982.982,0,0,0,0-1.964ZM7.857,11.786a3.929,3.929,0,1,1,3.929-3.929,3.929,3.929,0,0,1-3.929,3.929Z"/>
  <path id="Path_1273" data-name="Path 1273" d="M37.964,36a1.964,1.964,0,1,0,1.964,1.964A1.964,1.964,0,0,0,37.964,36Z" transform="translate(-30.107 -30.107)"/>
</svg>
