<svg xmlns="http://www.w3.org/2000/svg" width="20.644" height="17.695" viewBox="0 0 20.644 17.695">
  <g id="noun_news_3595650" transform="translate(-2 -4)">
    <g id="Layer_2" data-name="Layer 2" transform="translate(2 4)">
      <path id="Union_18" data-name="Union 18" d="M3.687,17.7A3.691,3.691,0,0,1,0,14.009V8.848A2.214,2.214,0,0,1,2.212,6.636H6.636V2.212A2.214,2.214,0,0,1,8.848,0h9.585a2.214,2.214,0,0,1,2.212,2.212V15.484A2.214,2.214,0,0,1,18.433,17.7ZM8.11,2.212v11.8a3.651,3.651,0,0,1-.756,2.212H18.433a.739.739,0,0,0,.737-.737V2.212a.739.739,0,0,0-.737-.738H8.848A.739.739,0,0,0,8.11,2.212ZM1.474,8.848v5.161a2.215,2.215,0,0,0,2.212,2.212h.737a2.215,2.215,0,0,0,2.212-2.212V8.11H2.212A.739.739,0,0,0,1.474,8.848Zm8.848,5.9a.737.737,0,0,1,0-1.474h2.949a.737.737,0,1,1,0,1.474Zm0-2.949a.737.737,0,0,1,0-1.474h5.9a.737.737,0,1,1,0,1.474Zm.737-2.949A1.476,1.476,0,0,1,9.585,7.373V4.424A1.475,1.475,0,0,1,11.06,2.95h2.949a1.476,1.476,0,0,1,1.475,1.474V7.373a1.477,1.477,0,0,1-1.475,1.475Zm0-1.475h2.95V4.424H11.06Z" transform="translate(0)"/>
    </g>
  </g>
</svg>
