<svg xmlns="http://www.w3.org/2000/svg" width="189" height="237.999" viewBox="0 0 189 237.999">
  <g id="Group_19" data-name="Group 19" transform="translate(-3601.328 -1101)">
    <path id="Path_4" data-name="Path 4" d="M413,399H280a28.085,28.085,0,0,1-28-28V294a28.085,28.085,0,0,1,28-28H413a28.085,28.085,0,0,1,28,28v77A28.085,28.085,0,0,1,413,399ZM280,280a14.042,14.042,0,0,0-14,14v77a14.042,14.042,0,0,0,14,14H413a14.042,14.042,0,0,0,14-14V294a14.042,14.042,0,0,0-14-14Z" transform="translate(3349.328 939.999)"/>
    <path id="Path_5" data-name="Path 5" d="M406,273.7H392v-56c0-23.1-20.3-42.7-45.5-42.7S301,193.9,301,217.7v56H287v-56c0-30.8,26.6-56.7,59.5-56.7S406,186.2,406,217.7Z" transform="translate(3349.328 939.999)"/>
  </g>
</svg>
