<svg xmlns="http://www.w3.org/2000/svg" width="133" height="28.94" viewBox="0 0 133 28.94">
  <g id="Group_1221" data-name="Group 1221" transform="translate(-112 -59.53)">
    <text id="KnawNews" transform="translate(145 81)" font-size="18" font-family="OpenSans-Bold, Open Sans" font-weight="700"><tspan x="0" y="0">KnawNews</tspan></text>
    <g id="Group_998" data-name="Group 998" transform="translate(55 -25.47)">
      <g id="Group_997" data-name="Group 997" transform="translate(57 85)">
        <path id="Ellipse_154" data-name="Ellipse 154" d="M14.47,1.333A13.141,13.141,0,0,0,9.357,26.576,13.141,13.141,0,0,0,19.583,2.365,13.054,13.054,0,0,0,14.47,1.333M14.47,0A14.47,14.47,0,1,1,0,14.47,14.47,14.47,0,0,1,14.47,0Z" transform="translate(0 0)" fill="#ffbb01"/>
        <path id="Ellipse_155" data-name="Ellipse 155" d="M10.091,1.333A8.761,8.761,0,0,0,6.682,18.162,8.761,8.761,0,0,0,13.5,2.02a8.7,8.7,0,0,0-3.409-.688m0-1.333A10.091,10.091,0,1,1,0,10.091,10.091,10.091,0,0,1,10.091,0Z" transform="translate(4.189 0)" fill="#ffbb01"/>
        <path id="Ellipse_156" data-name="Ellipse 156" d="M10.091,1.333A8.761,8.761,0,0,0,6.682,18.162,8.761,8.761,0,0,0,13.5,2.02a8.7,8.7,0,0,0-3.409-.688m0-1.333A10.091,10.091,0,1,1,0,10.091,10.091,10.091,0,0,1,10.091,0Z" transform="translate(6.854 7.997)" fill="#ffbb01"/>
      </g>
    </g>
  </g>
</svg>
