<svg xmlns="http://www.w3.org/2000/svg" width="17.51" height="17.484" viewBox="0 0 17.51 17.484">
  <g id="Layer_2" data-name="Layer 2" transform="translate(-1.975 -1.978)">
    <g id="message-circle" transform="translate(1.975 1.978)">
      <circle id="Ellipse_224" data-name="Ellipse 224" cx="0.871" cy="0.871" r="0.871" transform="translate(7.863 7.861)"/>
      <circle id="Ellipse_225" data-name="Ellipse 225" cx="0.871" cy="0.871" r="0.871" transform="translate(11.348 7.861)"/>
      <circle id="Ellipse_226" data-name="Ellipse 226" cx="0.871" cy="0.871" r="0.871" transform="translate(4.378 7.861)"/>
      <path id="Path_2272" data-name="Path 2272" d="M16.869,4.55A8.713,8.713,0,0,0,2.685,14.134a.924.924,0,0,1,.078.558L2,18.377a.866.866,0,0,0,.871,1.046h.174l3.729-.749a1.1,1.1,0,0,1,.558.078A8.713,8.713,0,0,0,16.913,4.567Zm.723,7.284a6.97,6.97,0,0,1-9.584,5.3A2.84,2.84,0,0,0,6.919,16.9a2.989,2.989,0,0,0-.488.044l-2.457.5.5-2.457a2.692,2.692,0,0,0-.183-1.577,6.971,6.971,0,1,1,13.3-1.577Z" transform="translate(-1.975 -1.978)"/>
    </g>
  </g>
</svg>
