<svg xmlns="http://www.w3.org/2000/svg" width="213.262" height="213.9" viewBox="0 0 213.262 213.9">
  <g id="Group_961" data-name="Group 961" transform="translate(0 -0.001)">
    <path id="Path_1" data-name="Path 1" d="M248.085,672.932l-1.878-7.408A96.219,96.219,0,0,0,236,661.863l-.237,3.443-.961-3.793c-4.3-1.229-7.227-1.77-7.227-1.77s3.951,15.028,12.241,26.518l9.659,1.7-7.5,1.082a38.917,38.917,0,0,0,3.355,3.557c12.058,11.193,25.489,16.328,30,11.47S273.715,686.2,261.657,675a51.246,51.246,0,0,0-13.135-8.446Z" transform="translate(-227.576 -492.74)" fill="#f2f2f2"/>
    <path id="Path_2" data-name="Path 2" d="M326.292,623.141l2.221-7.312a96.181,96.181,0,0,0-6.843-8.409l-1.982,2.824,1.137-3.744c-3.047-3.274-5.272-5.25-5.272-5.25s-4.385,14.908-3.228,29.028l7.391,6.445-6.984-2.953a38.909,38.909,0,0,0,1.035,4.78c4.537,15.814,13.38,27.153,19.751,25.325s7.858-16.13,3.321-31.944a51.242,51.242,0,0,0-6.878-14.019Z" transform="translate(-287.922 -450.995)" fill="#f2f2f2"/>
    <path id="Path_22" data-name="Path 22" d="M482.29,127.135h-1.172v-32.1a18.577,18.577,0,0,0-18.577-18.577h-68a18.577,18.577,0,0,0-18.577,18.577V271.123A18.577,18.577,0,0,0,394.539,289.7h68a18.577,18.577,0,0,0,18.577-18.577V149.982h1.172Z" transform="translate(-333.477 -76.461)" fill="#e6e6e6"/>
    <path id="Path_23" data-name="Path 23" d="M476.068,93.335h-8.876a6.591,6.591,0,0,1-6.1,9.08H422.131a6.591,6.591,0,0,1-6.1-9.08h-8.291a13.873,13.873,0,0,0-13.873,13.873V283.037a13.873,13.873,0,0,0,13.873,13.873h68.33a13.873,13.873,0,0,0,13.873-13.873h0V107.208a13.873,13.873,0,0,0-13.873-13.873Z" transform="translate(-346.254 -88.503)" fill="#fff"/>
    <path id="Path_6" data-name="Path 6" d="M513.788,320.512a7,7,0,0,1,3.5-6.063,7,7,0,1,0,0,12.125A7,7,0,0,1,513.788,320.512Z" transform="translate(-426.846 -245.639)" fill="#ccc"/>
    <path id="Path_7" data-name="Path 7" d="M544.526,320.512a7,7,0,0,1,3.5-6.063,7,7,0,1,0,0,12.125,7,7,0,0,1-3.5-6.062Z" transform="translate(-448.783 -245.639)" fill="#ccc"/>
    <circle id="Ellipse_1" data-name="Ellipse 1" cx="7" cy="7" r="7" transform="translate(97.343 67.872)"/>
    <path id="Path_8" data-name="Path 8" d="M527.52,305.327h-40.8a1.467,1.467,0,0,1-1.465-1.465v-40.8a1.467,1.467,0,0,1,1.465-1.465h40.8a1.467,1.467,0,0,1,1.465,1.465v40.8A1.467,1.467,0,0,1,527.52,305.327Zm-40.8-43.144a.88.88,0,0,0-.879.879v40.8a.88.88,0,0,0,.879.879h40.8a.88.88,0,0,0,.879-.879v-40.8a.88.88,0,0,0-.879-.879Z" transform="translate(-411.477 -208.589)" fill="#ccc"/>
    <rect id="Rectangle_1" data-name="Rectangle 1" width="62.575" height="0.586" transform="translate(62.578 128.013)" fill="#ccc"/>
    <circle id="Ellipse_2" data-name="Ellipse 2" cx="1.976" cy="1.976" r="1.976" transform="translate(62.578 120.401)"/>
    <rect id="Rectangle_2" data-name="Rectangle 2" width="62.575" height="0.586" transform="translate(62.578 147.773)" fill="#ccc"/>
    <circle id="Ellipse_3" data-name="Ellipse 3" cx="1.976" cy="1.976" r="1.976" transform="translate(62.578 140.162)"/>
    <path id="Path_1140" data-name="Path 1140" d="M608.186,647.472H588.41a1.29,1.29,0,0,1-1.288-1.288v-6.931a1.29,1.29,0,0,1,1.288-1.288h19.775a1.29,1.29,0,0,1,1.288,1.288v6.931a1.29,1.29,0,0,1-1.289,1.289Z" transform="translate(-484.178 -477.196)"/>
    <circle id="Ellipse_7" data-name="Ellipse 7" cx="1.976" cy="1.976" r="1.976" transform="translate(69.024 120.401)"/>
    <circle id="Ellipse_8" data-name="Ellipse 8" cx="1.976" cy="1.976" r="1.976" transform="translate(75.47 120.401)"/>
    <circle id="Ellipse_9" data-name="Ellipse 9" cx="1.976" cy="1.976" r="1.976" transform="translate(69.024 140.162)"/>
    <circle id="Ellipse_10" data-name="Ellipse 10" cx="1.976" cy="1.976" r="1.976" transform="translate(75.47 140.162)"/>
    <path id="Path_88" data-name="Path 88" d="M455.242,821.8H249.671c-.44,0-.8-.156-.8-.349s.356-.349.8-.349H455.242c.44,0,.8.156.8.349S455.681,821.8,455.242,821.8Z" transform="translate(-242.776 -607.899)" fill="#3f3d56"/>
    <path id="Path_1141" data-name="Path 1141" d="M781.958,544.312a2.892,2.892,0,0,1,.4.225l12.842-5.481.458-3.383,5.131-.031-.3,7.759-16.95,4.483a3.034,3.034,0,0,1-.128.346,2.93,2.93,0,1,1-1.454-3.917Z" transform="translate(-620.282 -404.171)" fill="#ffb8b8"/>
    <path id="Path_1142" data-name="Path 1142" d="M624.068,701.272h-3.51l-1.67-13.539h5.181Z" transform="translate(-441.69 -490.824)" fill="#ffb8b8"/>
    <path id="Path_1143" data-name="Path 1143" d="M605.338,731.518h6.77v4.262H601.076A4.262,4.262,0,0,1,605.338,731.518Z" transform="translate(-428.978 -522.072)" fill="#2f2e41"/>
    <path id="Path_1144" data-name="Path 1144" d="M668.5,697.971l-3.493.344L662.018,685l5.156-.508Z" transform="translate(-472.472 -488.514)" fill="#ffb8b8"/>
    <path id="Path_1145" data-name="Path 1145" d="M4.262,0h6.77V4.262H0A4.262,4.262,0,0,1,4.262,0Z" transform="translate(185.699 209.466) rotate(-5.625)" fill="#2f2e41"/>
    <circle id="Ellipse_20" data-name="Ellipse 20" cx="7.032" cy="7.032" r="7.032" transform="translate(176.323 103.078)" fill="#ffb8b8"/>
    <path id="Path_1146" data-name="Path 1146" d="M826.708,678.56a1.28,1.28,0,0,1-1.264-1.059c-1.817-10.086-7.756-43.063-7.9-43.977a.409.409,0,0,1,0-.063V631a.427.427,0,0,1,.08-.25l.785-1.1a.424.424,0,0,1,.327-.179c4.473-.21,19.121-.824,19.829.06h0c.711.889.46,3.581.4,4.112l0,.055,6.581,42.087a1.292,1.292,0,0,1-1.064,1.47l-4.11.677a1.294,1.294,0,0,1-1.439-.886c-1.271-4.062-5.534-17.728-7.012-23.016a.143.143,0,0,0-.281.04c.074,5.041.252,17.9.314,22.343l.007.478a1.294,1.294,0,0,1-1.172,1.3l-3.964.36C826.788,678.559,826.748,678.56,826.708,678.56Z" transform="translate(-648.625 -470.85)" fill="#2f2e41"/>
    <path id="Path_99" data-name="Path 99" d="M828.1,493.623a5.879,5.879,0,0,0-2.383,3.434,32.54,32.54,0,0,0-1.4,7.776l-.445,7.9-5.513,20.95c4.778,4.043,7.535,3.124,13.967-.183s7.167,1.1,7.167,1.1l1.286-17.826,1.838-19.479a8.632,8.632,0,0,0-1.392-1.338,14.218,14.218,0,0,0-12.152-2.576Z" transform="translate(-649.211 -373.716)" fill="#ffbb01"/>
    <path id="Path_1147" data-name="Path 1147" d="M836.047,555.879a3.012,3.012,0,0,1,.43.2l12.7-6.355.211-3.443,5.238-.361.281,7.849-16.969,5.611a3.005,3.005,0,1,1-1.888-3.5Z" transform="translate(-658.945 -411.507)" fill="#ffb8b8"/>
    <path id="Path_101" data-name="Path 101" d="M886.025,507.466c3.124,1.1,3.674,13.048,3.674,13.048-3.675-2.021-8.086,1.286-8.086,1.286s-.919-3.124-2.021-7.167a7.023,7.023,0,0,1,1.47-6.616A5,5,0,0,1,886.025,507.466Z" transform="translate(-692.707 -383.792)" fill="#fff"/>
    <path id="Path_102" data-name="Path 102" d="M856.752,438.428c-.876-.7-2.072.573-2.072.573l-.7-6.309a25.047,25.047,0,0,1-7.185-.175c-2.8-.7-3.242,2.541-3.242,2.541a22.509,22.509,0,0,1-.088-3.943c.175-1.577,2.453-3.154,6.484-4.206s6.133,3.5,6.133,3.5C858.886,431.816,857.628,439.129,856.752,438.428Z" transform="translate(-667.092 -326.458)" fill="#2f2e41"/>
  </g>
</svg>
