<svg xmlns="http://www.w3.org/2000/svg" width="22.075" height="19.274" viewBox="0 0 22.075 19.274">
  <g id="Layer_35" data-name="Layer 35" transform="translate(-0.65 -2.658)">
    <path id="Path_1217" data-name="Path 1217" d="M14.861,21.583a.715.715,0,0,1-.407-.129l-7.146-5A.715.715,0,0,1,7,15.866V8.719a.715.715,0,0,1,.307-.586l7.146-5a.721.721,0,0,1,1.122.586V20.868a.711.711,0,0,1-.715.715ZM8.429,15.494l5.717,4V5.089l-5.717,4Z" transform="translate(-1.712 0)"/>
    <path id="Path_1217_-_Outline" data-name="Path 1217 - Outline" d="M14.864,21.933h0a1.059,1.059,0,0,1-.606-.192l-7.147-5a1.064,1.064,0,0,1-.457-.872V8.719a1.065,1.065,0,0,1,.458-.874l7.15-5a1.071,1.071,0,0,1,1.668.871V20.868a1.06,1.06,0,0,1-.575.947A1.071,1.071,0,0,1,14.864,21.933ZM14.651,3.42l-7.143,5a.366.366,0,0,0-.158.3v7.146a.365.365,0,0,0,.157.3l7.147,5a.363.363,0,0,0,.207.065l0,.35v-.35a.366.366,0,0,0,.166-.04.363.363,0,0,0,.2-.324V3.717a.371.371,0,0,0-.574-.3ZM14.5,20.168,8.079,15.676V8.909L14.5,4.417ZM8.779,15.312,13.8,18.824V5.761L8.779,9.273Z" transform="translate(-1.712 0)"/>
    <path id="Path_1218" data-name="Path 1218" d="M6,18.575H3.144A2.144,2.144,0,0,1,1,16.432V12.144A2.144,2.144,0,0,1,3.144,10H6a.715.715,0,0,1,.715.715v7.146A.715.715,0,0,1,6,18.575ZM3.144,11.429a.715.715,0,0,0-.715.715v4.288a.715.715,0,0,0,.715.715H5.288V11.429Z" transform="translate(0 -1.995)"/>
    <path id="Path_1218_-_Outline" data-name="Path 1218 - Outline" d="M6,18.925H3.144A2.5,2.5,0,0,1,.65,16.432V12.144A2.5,2.5,0,0,1,3.144,9.65H6a1.066,1.066,0,0,1,1.065,1.065v7.146A1.066,1.066,0,0,1,6,18.925ZM3.144,10.35A1.8,1.8,0,0,0,1.35,12.144v4.288a1.8,1.8,0,0,0,1.794,1.794H6a.365.365,0,0,0,.365-.365V10.715A.365.365,0,0,0,6,10.35ZM5.638,17.5H3.144a1.066,1.066,0,0,1-1.065-1.065V12.144a1.066,1.066,0,0,1,1.065-1.065H5.638ZM3.144,11.779a.365.365,0,0,0-.365.365v4.288a.365.365,0,0,0,.365.365H4.938V11.779Z" transform="translate(0 -1.995)"/>
    <rect id="Rectangle_570" data-name="Rectangle 570" width="1.429" height="8.575" transform="translate(15.156 9.765) rotate(-45)"/>
    <path id="Rectangle_570_-_Outline" data-name="Rectangle 570 - Outline" d="M-.35-.35H1.779V8.925H-.35Zm1.429.7H.35V8.225h.729Z" transform="translate(15.156 9.765) rotate(-45)"/>
    <rect id="Rectangle_571" data-name="Rectangle 571" width="8.575" height="1.429" transform="translate(15.156 14.818) rotate(-45)"/>
    <path id="Rectangle_571_-_Outline" data-name="Rectangle 571 - Outline" d="M-.35-.35H8.925V1.779H-.35Zm8.575.7H.35v.729H8.225Z" transform="translate(15.156 14.818) rotate(-45)"/>
  </g>
</svg>
