<svg xmlns="http://www.w3.org/2000/svg" width="20.262" height="21.939" viewBox="0 0 20.262 21.939">
  <g id="noun_news_4346067" transform="translate(-1.653 -1.324)">
    <g id="Group_1255" data-name="Group 1255" transform="translate(1.653 1.324)">
      <g id="Group_1254" data-name="Group 1254" transform="translate(0 0)">
        <g id="Group_1253" data-name="Group 1253" transform="translate(0)">
          <path id="Union_19" data-name="Union 19" d="M5.064,21.939A5.071,5.071,0,0,1,0,16.879V5.06A5.069,5.069,0,0,1,5.064,0H15.2a5.07,5.07,0,0,1,5.067,5.06V16.879a5.071,5.071,0,0,1-5.067,5.06ZM1.688,5.06V16.879a3.351,3.351,0,0,0,3.376,3.376H15.2a3.353,3.353,0,0,0,3.379-3.376V5.06A3.353,3.353,0,0,0,15.2,1.684H5.064A3.351,3.351,0,0,0,1.688,5.06ZM8.4,17.766a.842.842,0,0,1,.8-.886.576.576,0,0,1,.089,0h6.746a.844.844,0,1,1,0,1.688H9.244A.843.843,0,0,1,8.4,17.766Zm-5.067,0a.845.845,0,0,1,.8-.886.548.548,0,0,1,.087,0H5.912a.844.844,0,1,1,0,1.688H4.178A.846.846,0,0,1,3.335,17.766Zm8.441-3.379a.844.844,0,0,1,.8-.884.465.465,0,0,1,.08,0h3.376a.844.844,0,1,1,0,1.688H12.622A.847.847,0,0,1,11.776,14.387Zm-5.864.8a2.554,2.554,0,0,1-2.536-2.536V9.284A2.552,2.552,0,0,1,5.912,6.748H7.6a2.547,2.547,0,0,1,2.531,2.536v3.372A2.548,2.548,0,0,1,7.6,15.191ZM5.064,9.284v3.372a.83.83,0,0,0,.848.848H7.6a.825.825,0,0,0,.843-.848V9.284A.825.825,0,0,0,7.6,8.436H5.912A.83.83,0,0,0,5.064,9.284Zm6.712,1.727a.846.846,0,0,1,.8-.886h3.456a.844.844,0,1,1,0,1.688H12.618A.843.843,0,0,1,11.776,11.011Zm.884-2.574a.844.844,0,0,1,0-1.688h3.376a.844.844,0,1,1,0,1.688ZM14.348,5.06a.844.844,0,0,1,0-1.688h1.688a.844.844,0,1,1,0,1.688Zm-10.124,0a.844.844,0,0,1,0-1.688h6.748a.844.844,0,1,1,0,1.688Z"/>
        </g>
      </g>
    </g>
  </g>
</svg>
