<svg xmlns="http://www.w3.org/2000/svg" width="17" height="17" viewBox="0 0 17 17">
  <g id="Group_1157" data-name="Group 1157" transform="translate(-18 -342)">
    <path id="Rectangle_599" data-name="Rectangle 599" d="M4,2A2,2,0,0,0,2,4v9a2,2,0,0,0,2,2h9a2,2,0,0,0,2-2V4a2,2,0,0,0-2-2H4M4,0h9a4,4,0,0,1,4,4v9a4,4,0,0,1-4,4H4a4,4,0,0,1-4-4V4A4,4,0,0,1,4,0Z" transform="translate(18 342)"/>
    <path id="Union_14" data-name="Union 14" d="M0,9.257V7.1H10.322V9.257ZM4.97,5.707V3.551h5.352V5.707ZM0,5.707V0H4.169V5.707ZM4.97,2.156V0h5.352V2.156Z" transform="translate(21 346)"/>
  </g>
</svg>
