<svg xmlns="http://www.w3.org/2000/svg" width="18.132" height="17.203" viewBox="0 0 18.132 17.203">
  <g id="_1" data-name="1" transform="translate(-54.13 -53.316)">
    <path id="Path_1332" data-name="Path 1332" d="M144.68,70.519h-3.929a6.416,6.416,0,0,1-2.245-.4l-3.061-1.137a.68.68,0,1,1,.474-1.275l3.06,1.137a5.069,5.069,0,0,0,1.772.317h3.929a.644.644,0,0,0,0-1.289.68.68,0,1,1,0-1.36h.927a.644.644,0,1,0,0-1.289.68.68,0,0,1,0-1.36h.927a.644.644,0,1,0,0-1.289.68.68,0,0,1,0-1.36h.927a.645.645,0,0,0,0-1.289h-6.423a.68.68,0,0,1-.6-1.009,4.544,4.544,0,0,0,.417-1.33,3.61,3.61,0,0,0-.563-2.664.557.557,0,0,0-1.013.317,4.9,4.9,0,0,1-3.113,4.9.68.68,0,1,1-.531-1.252,3.594,3.594,0,0,0,1.839-1.591,4.205,4.205,0,0,0,.446-2.041,1.918,1.918,0,0,1,3.5-1.1,5.128,5.128,0,0,1,.611,4.408h5.427a2,2,0,0,1,.888,3.8,2.007,2.007,0,0,1-.927,2.649,2.007,2.007,0,0,1-.927,2.65,2.006,2.006,0,0,1-1.814,2.857Z" transform="translate(-77.204 0)"/>
    <path id="Path_1333" data-name="Path 1333" d="M58.7,185.545H54.81a.68.68,0,0,1-.68-.68V175.54a.68.68,0,0,1,.68-.68H58.7a.68.68,0,0,1,.68.68v9.324A.68.68,0,0,1,58.7,185.545Zm-3.212-1.36h2.532V176.22H55.49Z" transform="translate(0 -116.032)"/>
  </g>
</svg>
