<svg xmlns="http://www.w3.org/2000/svg" width="18.7" height="16.085" viewBox="0 0 18.7 16.085">
  <g id="_6590519_communication_email_letter_post_icon" data-name="6590519_communication_email_letter_post_icon" transform="translate(-2.15 -4.15)">
    <path id="Path_1280" data-name="Path 1280" d="M17.385,20.235H5.615A3.469,3.469,0,0,1,2.15,16.769V7.615A3.469,3.469,0,0,1,5.615,4.15H17.385A3.469,3.469,0,0,1,20.85,7.615v9.154A3.469,3.469,0,0,1,17.385,20.235ZM5.615,5.85A1.767,1.767,0,0,0,3.85,7.615v9.154a1.767,1.767,0,0,0,1.765,1.765H17.385a1.767,1.767,0,0,0,1.765-1.765V7.615A1.767,1.767,0,0,0,17.385,5.85Z" transform="translate(0)"/>
    <path id="Rectangle_632" data-name="Rectangle 632" d="M0-.85H3A.85.85,0,0,1,3.85,0V4A.85.85,0,0,1,3,4.85H0A.85.85,0,0,1-.85,4V0A.85.85,0,0,1,0-.85ZM2.15.85H.85v2.3h1.3Z" transform="translate(7 9)"/>
    <path id="Line_12" data-name="Line 12" d="M4,.85H0A.85.85,0,0,1-.85,0,.85.85,0,0,1,0-.85H4A.85.85,0,0,1,4.85,0,.85.85,0,0,1,4,.85Z" transform="translate(13 13)"/>
    <path id="Line_13" data-name="Line 13" d="M10,.85H0A.85.85,0,0,1-.85,0,.85.85,0,0,1,0-.85H10a.85.85,0,0,1,.85.85A.85.85,0,0,1,10,.85Z" transform="translate(7 16)"/>
  </g>
</svg>
