<svg id="noun-share-1793750" xmlns="http://www.w3.org/2000/svg" width="492.776" height="324.858" viewBox="0 0 492.776 324.858">
  <path id="Path_3140" data-name="Path 3140" d="M292.556,117.66a11.2,11.2,0,0,0-5.426,2.277l-179.2,140a11.2,11.2,0,0,0,0,17.672l179.2,140a11.2,11.2,0,0,0,18.028-8.75V352.683c14.191-.574,45.895-1.406,92.75,6.648,55.871,9.609,124.31,31.715,179.9,80.324v0a11.2,11.2,0,0,0,18.028-11.9c-46.766-144.08-189.11-212.75-290.68-240.1v-58.8a11.206,11.206,0,0,0-12.6-11.2Zm-9.8,33.949v44.453a11.2,11.2,0,0,0,8.4,10.848c88.461,22.395,211.91,79.3,267.57,191.27-52.1-34.7-109.04-52.656-156.98-60.9-58.473-10.055-104.78-6.992-108.32-6.824a11.2,11.2,0,0,0-10.676,11.2V385.93l-149.8-117.07Z" transform="translate(-103.61 -117.572)" fill="#b7b7b7"/>
</svg>
