<svg id="Page-1" xmlns="http://www.w3.org/2000/svg" width="10" height="12.222" viewBox="0 0 10 12.222">
  <g id="Artboard">
    <g id="flag">
      <path id="Shape" d="M6.222,7.889a6.294,6.294,0,0,1-2.429-.6,5.345,5.345,0,0,0-2.016-.516,3.115,3.115,0,0,0-1.836.4.53.53,0,0,1-.594.134A.563.563,0,0,1-1,6.778V.111A.556.556,0,0,1-.837-.282,3.669,3.669,0,0,1,1.778-1a6.294,6.294,0,0,1,2.429.6A5.345,5.345,0,0,0,6.222.111a3.115,3.115,0,0,0,1.836-.4.53.53,0,0,1,.594-.134A.563.563,0,0,1,9,.111V6.778a.556.556,0,0,1-.163.393A3.669,3.669,0,0,1,6.222,7.889ZM1.778,5.667a6.294,6.294,0,0,1,2.429.6,5.345,5.345,0,0,0,2.016.516,3.787,3.787,0,0,0,1.667-.3V1a5.685,5.685,0,0,1-1.667.219,6.294,6.294,0,0,1-2.429-.6A5.345,5.345,0,0,0,1.778.111a3.787,3.787,0,0,0-1.667.3V5.885A5.685,5.685,0,0,1,1.778,5.667Z" transform="translate(1 1)" fill="#ffbb01"/>
      <path id="Shape-2" data-name="Shape" d="M-.444,17A.556.556,0,0,1-1,16.444V12.556A.556.556,0,0,1-.444,12a.556.556,0,0,1,.556.556v3.889A.556.556,0,0,1-.444,17Z" transform="translate(1 -4.778)" fill="#ffbb01"/>
    </g>
  </g>
</svg>
