<svg xmlns="http://www.w3.org/2000/svg" width="18.1" height="18.1" viewBox="0 0 18.1 18.1">
  <g id="noun_Sad_534863" transform="translate(0.05 0.05)">
    <g id="Group_18" data-name="Group 18" transform="translate(0 0)">
      <path id="Union_2" data-name="Union 2" d="M0,9a9,9,0,1,1,9,9A9.01,9.01,0,0,1,0,9ZM1.5,9A7.5,7.5,0,1,0,9,1.5,7.508,7.508,0,0,0,1.5,9Zm4.407,4.164a.75.75,0,0,1,.211-1.04,5.272,5.272,0,0,1,5.765,0,.75.75,0,0,1-.828,1.251,3.742,3.742,0,0,0-4.109,0,.749.749,0,0,1-1.039-.211ZM10.5,7.125A1.125,1.125,0,1,1,11.625,8.25,1.125,1.125,0,0,1,10.5,7.125Zm-5.25,0A1.125,1.125,0,1,1,6.375,8.25,1.125,1.125,0,0,1,5.25,7.125Z"/>
      <path id="Union_2_-_Outline" data-name="Union 2 - Outline" d="M9-.05A9.05,9.05,0,1,1-.05,9,9.06,9.06,0,0,1,9-.05Zm0,18A8.95,8.95,0,1,0,.05,9,8.96,8.96,0,0,0,9,17.95ZM9,1.45A7.55,7.55,0,1,1,1.45,9,7.559,7.559,0,0,1,9,1.45Zm0,15A7.45,7.45,0,1,0,1.55,9,7.459,7.459,0,0,0,9,16.45ZM6.375,5.95A1.175,1.175,0,1,1,5.2,7.125,1.176,1.176,0,0,1,6.375,5.95Zm0,2.25A1.075,1.075,0,1,0,5.3,7.125,1.076,1.076,0,0,0,6.375,8.2Zm5.25-2.25A1.175,1.175,0,1,1,10.45,7.125,1.176,1.176,0,0,1,11.625,5.95Zm0,2.25A1.075,1.075,0,1,0,10.55,7.125,1.076,1.076,0,0,0,11.625,8.2ZM9,11.217a5.249,5.249,0,0,1,2.909.866.8.8,0,0,1-.883,1.334,3.692,3.692,0,0,0-4.054,0,.8.8,0,0,1-.883-1.334A5.258,5.258,0,0,1,9,11.217Zm2.467,2.233a.7.7,0,0,0,.387-1.284,5.222,5.222,0,0,0-5.709,0,.7.7,0,1,0,.772,1.167,3.792,3.792,0,0,1,4.164,0A.7.7,0,0,0,11.468,13.45Z"/>
    </g>
  </g>
</svg>
