<svg xmlns="http://www.w3.org/2000/svg" width="16.014" height="16.014" viewBox="0 0 16.014 16.014">
  <g id="sad-face-_Gray" transform="translate(-1.245 -1.245)">
    <g id="Group_49" data-name="Group 49" transform="translate(1.245 1.245)">
      <circle id="Ellipse_12" data-name="Ellipse 12" cx="8.007" cy="8.007" r="8.007" transform="translate(0 0)" fill="#c1c1c1"/>
      <circle id="Ellipse_13" data-name="Ellipse 13" cx="0.931" cy="0.931" r="0.931" transform="translate(4.469 5.316)"/>
      <circle id="Ellipse_14" data-name="Ellipse 14" cx="0.931" cy="0.931" r="0.931" transform="translate(9.683 5.316)"/>
      <path id="Path_46" data-name="Path 46" d="M76.892,158.339a.372.372,0,0,1-.311-.166,3.664,3.664,0,0,0-6.114,0,.372.372,0,0,1-.621-.412,4.409,4.409,0,0,1,7.355,0,.373.373,0,0,1-.31.579Z" transform="translate(-65.517 -145.799)"/>
    </g>
  </g>
</svg>
