<svg xmlns="http://www.w3.org/2000/svg" width="20" height="23.329" viewBox="0 0 20 23.329">
  <g id="noun_Science_2636482" transform="translate(-9.281 -2.5)">
    <path id="Path_1280" data-name="Path 1280" d="M36.126,4.032c1.323,0,3.334,4.04,3.334,10.132S37.449,24.3,36.126,24.3s-3.334-4.04-3.334-10.132S34.8,4.032,36.126,4.032m0-1.532c-2.642,0-4.786,5.223-4.786,11.664s2.144,11.664,4.786,11.664,4.786-5.223,4.786-11.664S38.77,2.5,36.126,2.5Z" transform="translate(-16.846 0)"/>
    <path id="Path_1281" data-name="Path 1281" d="M27.747,33.041c-.609,1.061-4.911.715-10-2.249s-7.551-6.529-6.932-7.592,4.911-.715,10,2.246,7.551,6.529,6.932,7.595m1.282.742c1.228-2.129-2.156-6.388-7.539-9.517s-10.736-3.939-11.959-1.81,2.154,6.379,7.539,9.517S27.806,35.911,29.029,33.782Z" transform="translate(0 -13.954)"/>
    <path id="Path_1282" data-name="Path 1282" d="M10.822,33.054c-.619-1.063,1.837-4.635,6.932-7.594s9.393-3.31,10-2.246-1.839,4.635-6.935,7.594-9.393,3.31-10,2.246M9.543,33.8c1.228,2.127,6.574,1.316,11.956-1.81s8.759-7.392,7.539-9.516-6.574-1.319-11.959,1.807S8.322,31.671,9.543,33.8Z" transform="translate(-0.009 -13.968)"/>
    <circle id="Ellipse_177" data-name="Ellipse 177" cx="1.741" cy="1.741" r="1.741" transform="translate(17.539 12.423)"/>
  </g>
</svg>
