<svg xmlns="http://www.w3.org/2000/svg" width="18" height="20" viewBox="0 0 18 20">
  <path id="filter-Bold_1_" d="M365.5,1892h-13a2.5,2.5,0,0,0-2.5,2.5v2.086a2.011,2.011,0,0,0,.586,1.414l5.121,5.121a1.009,1.009,0,0,1,.293.707V1911a1,1,0,0,0,.553.9,1.012,1.012,0,0,0,.447.1,1,1,0,0,0,.6-.2l4-3a1,1,0,0,0,.4-.8v-4.172a1.008,1.008,0,0,1,.293-.707l5.121-5.121a2.011,2.011,0,0,0,.586-1.414V1894.5A2.5,2.5,0,0,0,365.5,1892Zm-13,2h13a.5.5,0,0,1,.5.5v1.5H352v-1.5A.5.5,0,0,1,352.5,1894Zm8.379,7.707a2.978,2.978,0,0,0-.879,2.121v3.672l-2,1.5v-5.172a2.978,2.978,0,0,0-.879-2.121L353.414,1898h11.172Z" transform="translate(-350 -1892)" fill="#41416e"/>
</svg>
