<svg id="send-svgrepo-com" xmlns="http://www.w3.org/2000/svg" width="22.58" height="22.554" viewBox="0 0 22.58 22.554">
  <g id="Group_15196" data-name="Group 15196" transform="translate(0 0)">
    <path id="Path_2946" data-name="Path 2946" d="M22.243.544s0,0-.006-.007-.011-.006-.017-.01a.869.869,0,0,0-.167-.1C22.034.416,22.02.4,22,.391l-.007,0c-.021-.008-.038-.023-.058-.031a.928.928,0,0,0-.244-.046c-.025,0-.05-.013-.075-.013a.937.937,0,0,0-.326.055L.618,7.872A.939.939,0,0,0,.394,9.52l6.249,4.464.882,6.18a.94.94,0,0,0,1.682.43l2.217-2.955,5.815,4.987a.941.941,0,0,0,.613.226.957.957,0,0,0,.314-.054.942.942,0,0,0,.61-.717L22.564,1.429A.937.937,0,0,0,22.243.544ZM10.576,15.631l-.068.1L9.066,17.652,8.52,13.828l8.153-7.067Z" transform="translate(0.001 -0.299)" fill="#fff"/>
  </g>
</svg>
