<svg xmlns="http://www.w3.org/2000/svg" width="29.581" height="29.494" viewBox="0 0 29.581 29.494">
  <path id="send-Bold_1_" d="M19.58-.566a2.418,2.418,0,0,0-2.517-.814L2.7,4.14A3.9,3.9,0,0,0,.042,8.1a3.983,3.983,0,0,0,2.746,3.949l3.9,1.076L8.3,16.875a3.677,3.677,0,0,0,3.433,3.157h.027a3.569,3.569,0,0,0,3.412-3.065h0L20.291,2.329A3.362,3.362,0,0,0,19.58-.566Zm-.973,2.406L13.486,16.477a1.743,1.743,0,0,1-1.753,1.562,1.823,1.823,0,0,1-1.75-1.61L8.361,12.622l3.56-4.105a1.107,1.107,0,0,0-.007-1.411A.788.788,0,0,0,10.689,7.1L7.129,11.2l-3.952-1.09A2,2,0,0,1,1.776,8.1,1.959,1.959,0,0,1,3.131,6.079L17.494.558a.852.852,0,0,1,.231-.032.872.872,0,0,1,.638.314A1.144,1.144,0,0,1,18.607,1.839Z" transform="translate(14.859 0.953) rotate(48)"/>
</svg>
