<svg xmlns="http://www.w3.org/2000/svg" width="23" height="23" viewBox="0 0 23 23">
  <g id="Layer_10" data-name="Layer 10" transform="translate(-0.5 -0.5)">
    <path id="Path_1208" data-name="Path 1208" d="M12.733,23H11.267a2.2,2.2,0,0,1-2.2-1.936,9.3,9.3,0,0,1-1.43-.587A2.2,2.2,0,0,1,4.7,20.294l-1-1.034a2.2,2.2,0,0,1-.183-2.933,9.3,9.3,0,0,1-.587-1.393A2.2,2.2,0,0,1,1,12.733V11.267a2.2,2.2,0,0,1,1.936-2.2,9.3,9.3,0,0,1,.587-1.43A2.2,2.2,0,0,1,3.706,4.7l1.034-1a2.2,2.2,0,0,1,2.933-.183,9.3,9.3,0,0,1,1.393-.587A2.2,2.2,0,0,1,11.267,1h1.467a2.2,2.2,0,0,1,2.2,1.936,9.3,9.3,0,0,1,1.43.587,2.2,2.2,0,0,1,2.933.183l1,1.034a2.2,2.2,0,0,1,.183,2.933,9.3,9.3,0,0,1,.587,1.43A2.2,2.2,0,0,1,23,11.267v1.467a2.2,2.2,0,0,1-1.936,2.2,9.3,9.3,0,0,1-.587,1.43,2.2,2.2,0,0,1-.183,2.933l-1.034,1a2.2,2.2,0,0,1-2.933.183,9.3,9.3,0,0,1-1.43.587A2.2,2.2,0,0,1,12.733,23Zm-5.2-4.158a.689.689,0,0,1,.374.1,8.067,8.067,0,0,0,2.075.858.733.733,0,0,1,.55.733V20.8a.733.733,0,0,0,.733.733h1.467a.733.733,0,0,0,.733-.733v-.286a.733.733,0,0,1,.55-.733,8.067,8.067,0,0,0,2.075-.858.733.733,0,0,1,.887.11l.205.205a.733.733,0,0,0,1.041,0L19.26,18.2a.733.733,0,0,0,0-1.041l-.205-.205a.733.733,0,0,1-.11-.887,8.067,8.067,0,0,0,.858-2.075.733.733,0,0,1,.733-.55H20.8a.733.733,0,0,0,.733-.733V11.267a.733.733,0,0,0-.733-.733h-.286a.733.733,0,0,1-.733-.55,8.067,8.067,0,0,0-.858-2.075.733.733,0,0,1,.11-.887l.205-.205a.733.733,0,0,0,0-1.041L18.226,4.74a.733.733,0,0,0-1.041,0l-.205.205a.733.733,0,0,1-.887.11A8.067,8.067,0,0,0,14.017,4.2a.733.733,0,0,1-.55-.733V3.2a.733.733,0,0,0-.733-.733H11.267a.733.733,0,0,0-.733.733v.286a.733.733,0,0,1-.55.733,8.067,8.067,0,0,0-2.075.858.733.733,0,0,1-.887-.11L6.815,4.74a.733.733,0,0,0-1.041,0L4.74,5.774a.733.733,0,0,0,0,1.041l.205.205a.733.733,0,0,1,.11.887A8.067,8.067,0,0,0,4.2,9.983a.733.733,0,0,1-.733.55H3.2a.733.733,0,0,0-.733.733v1.467a.733.733,0,0,0,.733.733h.286a.733.733,0,0,1,.733.55,8.067,8.067,0,0,0,.858,2.075.733.733,0,0,1-.11.887l-.205.205a.733.733,0,0,0,0,1.041L5.774,19.26a.733.733,0,0,0,1.041,0l.205-.205A.733.733,0,0,1,7.534,18.842Z" transform="translate(0 0)" fill="#101820"/>
    <path id="Path_1208_-_Outline" data-name="Path 1208 - Outline" d="M11.25,23.5a2.7,2.7,0,0,1-2.622-2.055,9.846,9.846,0,0,1-.949-.39,2.712,2.712,0,0,1-1.407.4,2.681,2.681,0,0,1-1.926-.807l-1-1.033a2.7,2.7,0,0,1-.408-3.326,9.847,9.847,0,0,1-.384-.913A2.7,2.7,0,0,1,.5,12.73V11.267A2.7,2.7,0,0,1,2.555,8.629a9.844,9.844,0,0,1,.389-.949,2.7,2.7,0,0,1,.411-3.333l1.033-1a2.681,2.681,0,0,1,1.921-.8,2.711,2.711,0,0,1,1.4.395,9.846,9.846,0,0,1,.914-.385A2.7,2.7,0,0,1,11.25.5h1.5a2.7,2.7,0,0,1,2.622,2.055,9.844,9.844,0,0,1,.949.39,2.711,2.711,0,0,1,1.407-.4,2.681,2.681,0,0,1,1.926.807l1,1.033a2.7,2.7,0,0,1,.406,3.328,9.844,9.844,0,0,1,.389.949,2.709,2.709,0,0,1,2.055,2.6v1.471a2.7,2.7,0,0,1-2.055,2.638,9.845,9.845,0,0,1-.389.949,2.7,2.7,0,0,1-.411,3.333l-1.033,1a2.681,2.681,0,0,1-1.921.8,2.711,2.711,0,0,1-1.407-.4,9.845,9.845,0,0,1-.949.39,2.709,2.709,0,0,1-2.6,2.055ZM7.578,19.886l.286.146a8.823,8.823,0,0,0,1.353.555l.307.1.039.32a1.7,1.7,0,0,0,1.687,1.5h1.483A1.7,1.7,0,0,0,14.4,21l.039-.32.307-.1a8.824,8.824,0,0,0,1.353-.555l.286-.146.252.2a1.7,1.7,0,0,0,2.267-.142l.009-.009,1.034-1a1.7,1.7,0,0,0,.138-2.263l-.2-.252.146-.286a8.823,8.823,0,0,0,.555-1.353l.1-.307.32-.039a1.7,1.7,0,0,0,1.5-1.7v-1.47A1.7,1.7,0,0,0,21,9.6l-.32-.039-.1-.307A8.824,8.824,0,0,0,20.032,7.9l-.146-.286.2-.252A1.7,1.7,0,0,0,19.943,5.1l-.009-.009-1-1.034a1.7,1.7,0,0,0-2.263-.138l-.252.2-.286-.146a8.825,8.825,0,0,0-1.353-.555l-.307-.1L14.437,3a1.7,1.7,0,0,0-1.687-1.5h-1.5A1.7,1.7,0,0,0,9.563,3l-.038.316-.3.1A8.823,8.823,0,0,0,7.9,3.966l-.287.149-.254-.2A1.7,1.7,0,0,0,5.1,4.057l-.009.009-1.034,1a1.7,1.7,0,0,0-.138,2.263l.2.252-.146.286a8.824,8.824,0,0,0-.555,1.353l-.1.307L3,9.563a1.7,1.7,0,0,0-1.5,1.7v1.47a1.7,1.7,0,0,0,1.5,1.7l.316.038.1.3A8.824,8.824,0,0,0,3.966,16.1l.149.287-.2.254A1.7,1.7,0,0,0,4.057,18.9l.009.009,1,1.034a1.7,1.7,0,0,0,2.263.138Zm5.155,2.147H11.267A1.235,1.235,0,0,1,10.033,20.8v-.28a.232.232,0,0,0-.175-.233,8.565,8.565,0,0,1-2.2-.911l-.009-.006a.189.189,0,0,0-.1-.028h-.01a.232.232,0,0,0-.163.068l-.2.2a1.233,1.233,0,0,1-1.75,0L4.407,18.578a1.233,1.233,0,0,1,0-1.749l.2-.2a.233.233,0,0,0,.033-.28,8.565,8.565,0,0,1-.911-2.2.233.233,0,0,0-.226-.175H3.2a1.235,1.235,0,0,1-1.233-1.233V11.267A1.235,1.235,0,0,1,3.2,10.033h.287a.233.233,0,0,0,.226-.175,8.565,8.565,0,0,1,.911-2.2.234.234,0,0,0-.035-.283l-.2-.2a1.233,1.233,0,0,1,0-1.75L5.42,4.386a1.233,1.233,0,0,1,1.75,0l.016.017.193.214a.238.238,0,0,0,.275.028,8.565,8.565,0,0,1,2.2-.911.232.232,0,0,0,.175-.233V3.2a1.235,1.235,0,0,1,1.233-1.233h1.467A1.235,1.235,0,0,1,13.967,3.2v.28a.232.232,0,0,0,.175.233,8.565,8.565,0,0,1,2.2.911.237.237,0,0,0,.283-.035l.2-.2a1.233,1.233,0,0,1,1.75,0l1.011,1.033a1.233,1.233,0,0,1,0,1.749l-.2.2a.233.233,0,0,0-.033.28,8.565,8.565,0,0,1,.911,2.2.233.233,0,0,0,.226.175H20.8a1.235,1.235,0,0,1,1.233,1.233v1.445A1.235,1.235,0,0,1,20.8,13.945h-.287a.233.233,0,0,0-.226.175,8.565,8.565,0,0,1-.911,2.2.234.234,0,0,0,.035.283l.2.2a1.233,1.233,0,0,1,0,1.75l-1.033,1.033a1.233,1.233,0,0,1-1.75,0l-.2-.2a.239.239,0,0,0-.28-.033,8.565,8.565,0,0,1-2.2.911.232.232,0,0,0-.175.233v.3A1.235,1.235,0,0,1,12.733,22.033Zm-1.7-1.49V20.8a.234.234,0,0,0,.233.233h1.467a.234.234,0,0,0,.233-.233v-.279a1.226,1.226,0,0,1,.925-1.224,7.565,7.565,0,0,0,1.947-.8,1.233,1.233,0,0,1,1.492.185l.208.208a.233.233,0,0,0,.333,0l1.035-1.035a.233.233,0,0,0,0-.333l-.207-.207a1.236,1.236,0,0,1-.187-1.495,7.565,7.565,0,0,0,.8-1.946,1.234,1.234,0,0,1,1.224-.925H20.8a.234.234,0,0,0,.233-.233V11.267a.234.234,0,0,0-.233-.233h-.279a1.232,1.232,0,0,1-1.224-.925,7.565,7.565,0,0,0-.8-1.947,1.235,1.235,0,0,1,.185-1.492l.208-.208a.233.233,0,0,0,0-.333l-.005-.005L17.869,5.09a.233.233,0,0,0-.329,0l-.207.207a1.233,1.233,0,0,1-1.495.187,7.565,7.565,0,0,0-1.946-.8,1.226,1.226,0,0,1-.925-1.224V3.2a.234.234,0,0,0-.233-.233H11.267a.234.234,0,0,0-.233.233v.279A1.226,1.226,0,0,1,10.108,4.7a7.565,7.565,0,0,0-1.947.8,1.233,1.233,0,0,1-1.492-.185L6.65,5.3l-.2-.216a.233.233,0,0,0-.325.006L5.094,6.128a.233.233,0,0,0,0,.333l.207.207a1.236,1.236,0,0,1,.187,1.495,7.565,7.565,0,0,0-.8,1.946,1.234,1.234,0,0,1-1.224.925H3.2a.234.234,0,0,0-.233.233v1.467a.234.234,0,0,0,.233.233h.279a1.233,1.233,0,0,1,1.224.925,7.565,7.565,0,0,0,.8,1.947,1.235,1.235,0,0,1-.185,1.492l-.208.208a.233.233,0,0,0,0,.333l.005.005L6.131,18.91a.233.233,0,0,0,.329,0l.207-.207a1.227,1.227,0,0,1,.865-.359h.014a1.189,1.189,0,0,1,.62.174,7.565,7.565,0,0,0,1.943.8A1.226,1.226,0,0,1,11.033,20.543Z" transform="translate(0 0)" fill="#101820"/>
    <path id="Path_1209" data-name="Path 1209" d="M14.133,19.267a5.133,5.133,0,1,1,5.133-5.133A5.133,5.133,0,0,1,14.133,19.267Zm0-8.8A3.667,3.667,0,1,0,17.8,14.133,3.667,3.667,0,0,0,14.133,10.467Z" transform="translate(-2.133 -2.133)" fill="#101820"/>
    <path id="Path_1209_-_Outline" data-name="Path 1209 - Outline" d="M14.133,19.767a5.633,5.633,0,1,1,5.633-5.633A5.64,5.64,0,0,1,14.133,19.767Zm0-10.267a4.633,4.633,0,1,0,4.633,4.633A4.639,4.639,0,0,0,14.133,9.5Zm0,8.8A4.167,4.167,0,1,1,18.3,14.133,4.171,4.171,0,0,1,14.133,18.3Zm0-7.333A3.167,3.167,0,1,0,17.3,14.133,3.17,3.17,0,0,0,14.133,10.967Z" transform="translate(-2.133 -2.133)" fill="#101820"/>
  </g>
</svg>
