<svg xmlns="http://www.w3.org/2000/svg" width="14.009" height="16.3" viewBox="0 0 14.009 16.3">
  <g id="noun_Share_4335433" transform="translate(-3.839 -1.839)">
    <path id="Path_38" data-name="Path 38" d="M6.85,7.134a2.855,2.855,0,1,0,2.038,4.848l3.3,2.118a2.792,2.792,0,0,0-.2,1.028,2.855,2.855,0,1,0,.816-1.993l-3.3-2.118a2.741,2.741,0,0,0,0-2.055l3.3-2.118a2.855,2.855,0,1,0-.816-1.993,2.792,2.792,0,0,0,.2,1.028L8.889,8A2.855,2.855,0,0,0,6.85,7.134Zm7.994,6.281a1.713,1.713,0,1,1-1.713,1.713,1.713,1.713,0,0,1,1.713-1.713Zm0-10.277A1.713,1.713,0,1,1,13.131,4.85a1.713,1.713,0,0,1,1.713-1.713ZM6.85,11.7A1.713,1.713,0,1,1,8.563,9.989,1.713,1.713,0,0,1,6.85,11.7Z" transform="translate(0 0)" fill="#c1c1c1"/>
    <path id="Path_38_-_Outline" data-name="Path 38 - Outline" d="M14.845,1.839a3.005,3.005,0,1,1-2.059,5.195l-3.1,1.988a2.873,2.873,0,0,1,0,1.934l3.1,1.988a3,3,0,1,1,2.059,5.195,3.006,3.006,0,0,1-3.006-3.012,2.928,2.928,0,0,1,.167-.967l-3.1-1.988A3,3,0,1,1,6.844,6.984H6.85a3.024,3.024,0,0,1,2.058.821l3.1-1.988a2.928,2.928,0,0,1-.167-.966,3.006,3.006,0,0,1,3.006-3.012Zm0,5.71a2.7,2.7,0,1,0-2.706-2.7,2.631,2.631,0,0,0,.189.972l.046.115L8.867,8.188,8.781,8.1A2.721,2.721,0,0,0,6.85,7.284H6.844a2.7,2.7,0,1,0,1.937,4.593l.085-.088,3.507,2.251-.046.115a2.631,2.631,0,0,0-.189.973,2.7,2.7,0,1,0,.774-1.888l-.085.087L9.319,11.076l.047-.115a2.578,2.578,0,0,0,0-1.943L9.319,8.9l3.508-2.251.085.087A2.686,2.686,0,0,0,14.845,7.549Zm0-4.562A1.863,1.863,0,1,1,12.981,4.85,1.865,1.865,0,0,1,14.844,2.987Zm0,3.426A1.563,1.563,0,1,0,13.281,4.85,1.565,1.565,0,0,0,14.844,6.413ZM6.85,8.126A1.863,1.863,0,1,1,4.987,9.989,1.865,1.865,0,0,1,6.85,8.126Zm0,3.426A1.563,1.563,0,1,0,5.287,9.989,1.565,1.565,0,0,0,6.85,11.552Zm7.994,1.713a1.863,1.863,0,1,1-1.863,1.863A1.865,1.865,0,0,1,14.844,13.265Zm0,3.426a1.563,1.563,0,1,0-1.563-1.563A1.565,1.565,0,0,0,14.844,16.69Z" transform="translate(0 0)" fill="#c1c1c1"/>
  </g>
</svg>
