<svg xmlns="http://www.w3.org/2000/svg" width="15.832" height="15.832" viewBox="0 0 15.832 15.832">
  <g id="smile_Gray_Face" transform="translate(-0.368 -0.368)">
    <g id="Group_50" data-name="Group 50" transform="translate(0 0)">
      <circle id="Ellipse_15" data-name="Ellipse 15" cx="7.916" cy="7.916" r="7.916" transform="translate(0.368 0.368)" fill="#c1c1c1"/>
      <circle id="Ellipse_16" data-name="Ellipse 16" cx="0.92" cy="0.92" r="0.92" transform="translate(4.786 5.624)"/>
      <circle id="Ellipse_17" data-name="Ellipse 17" cx="0.92" cy="0.92" r="0.92" transform="translate(9.941 5.624)"/>
      <path id="Path_48" data-name="Path 48" d="M73.479,158.309a4.357,4.357,0,0,1-3.636-1.954.368.368,0,0,1,.613-.407,3.623,3.623,0,0,0,6.045,0,.368.368,0,0,1,.613.407A4.357,4.357,0,0,1,73.479,158.309Z" transform="translate(-65.195 -145.544)"/>
    </g>
  </g>
</svg>
