<svg xmlns="http://www.w3.org/2000/svg" width="21.448" height="21.437" viewBox="0 0 21.448 21.437">
  <g id="noun_Sport_568870" transform="translate(-4.7 -4.75)">
    <g id="Group_1271" data-name="Group 1271" transform="translate(5 5.05)">
      <path id="Path_1312" data-name="Path 1312" d="M23.578,8.976A10.421,10.421,0,0,0,11.81,5.71,10.445,10.445,0,0,0,7.293,8.976,10.177,10.177,0,0,0,5,15.462v.394H5a10.629,10.629,0,0,0,1.737,5.351,10.426,10.426,0,0,0,5.884,4.262,9.786,9.786,0,0,0,2.8.417,10.936,10.936,0,0,0,2.826-.394,10.4,10.4,0,0,0,7.6-9.613h0v-.417A10.288,10.288,0,0,0,23.578,8.976Zm-.069,11.559H19.663l-1.2-1.645c.255-.788,1.181-3.66,1.436-4.448l1.923-.625,3.1,2.247A9.247,9.247,0,0,1,23.509,20.536Zm-12.324,0H7.34A9.526,9.526,0,0,1,5.9,16.065l3.1-2.247,1.923.625,1.436,4.448ZM7.479,10.181l.95,2.965L5.88,15A9.408,9.408,0,0,1,7.479,10.181Zm5.7,8.362-1.39-4.262,3.637-2.641,3.614,2.641c-.811,2.455-1.181,3.66-1.367,4.262Zm9.243-5.374.95-2.965a9.382,9.382,0,0,1,1.575,4.818Zm.324-3.845-1.181,3.66-1.923.625-3.776-2.733V8.861l3.1-2.247A9.559,9.559,0,0,1,22.744,9.324Zm-4.8-3.058L15.424,8.1,12.9,6.266A9.348,9.348,0,0,1,17.949,6.266Zm-6.069.347,3.1,2.247v2.015l-3.776,2.733-1.923-.625L8.1,9.324A9.559,9.559,0,0,1,11.88,6.614Zm-3.915,14.8h3.127l.973,2.965A9.385,9.385,0,0,1,7.965,21.416Zm5.119,3.289L11.9,21.045l1.2-1.645h4.656l1.2,1.645-1.181,3.66A9.243,9.243,0,0,1,13.084,24.705Zm5.722-.324.95-2.965h3.127A9.451,9.451,0,0,1,18.806,24.381Z" transform="translate(-5 -5.05)"/>
      <path id="Path_1312_-_Outline" data-name="Path 1312 - Outline" d="M15.436,4.75A10.719,10.719,0,0,1,26.148,15.462v.428a10.638,10.638,0,0,1-1.764,5.482,10.764,10.764,0,0,1-6.053,4.409,11.253,11.253,0,0,1-2.907.4,10.052,10.052,0,0,1-2.886-.429,10.744,10.744,0,0,1-6.05-4.384,10.921,10.921,0,0,1-1.787-5.5v-.408A10.47,10.47,0,0,1,7.06,8.787,10.794,10.794,0,0,1,11.7,5.429,10.655,10.655,0,0,1,15.436,4.75ZM25.548,15.874v-.411A10.093,10.093,0,0,0,11.915,5.991,10.2,10.2,0,0,0,7.528,9.163a9.878,9.878,0,0,0-2.228,6.3v.387a10.32,10.32,0,0,0,1.688,5.193A10.143,10.143,0,0,0,12.7,25.181l.006,0a9.453,9.453,0,0,0,2.717.4,10.648,10.648,0,0,0,2.748-.384,10.162,10.162,0,0,0,5.712-4.162A10.037,10.037,0,0,0,25.548,15.874ZM15.424,5.619a9.737,9.737,0,0,1,2.605.358l.6.167L15.424,8.467,12.219,6.144l.6-.167A9.737,9.737,0,0,1,15.424,5.619Zm1.822.786a9.033,9.033,0,0,0-3.644,0l1.822,1.321Zm-5.324-.131,3.362,2.433v2.322L11.26,13.942l-2.213-.72L7.767,9.257l.108-.127a9.9,9.9,0,0,1,3.894-2.8Zm2.762,2.74-2.845-2.06a9.3,9.3,0,0,0-3.4,2.438l1.083,3.354,1.632.531,3.528-2.554Zm4.242-2.74.153.061a9.9,9.9,0,0,1,3.894,2.8l.108.127L21.8,13.222l-2.213.72-4.024-2.913V8.707Zm3.481,3.118a9.3,9.3,0,0,0-3.4-2.438l-2.845,2.06v1.709l3.528,2.554,1.632-.531ZM7.576,9.5l1.2,3.759L5.547,15.612l.034-.629a9.649,9.649,0,0,1,1.65-4.971Zm.5,3.529L7.39,10.886A9,9,0,0,0,6.235,14.37Zm15.2-3.514.345.522a9.73,9.73,0,0,1,1.625,4.972l.025.622-3.2-2.349ZM24.6,14.394a9.131,9.131,0,0,0-1.14-3.476l-.685,2.137Zm-9.171-3.125,3.966,2.9-.068.207c-.81,2.453-1.185,3.671-1.365,4.256l-.065.212H12.959l-1.525-4.677Zm3.26,3.125-3.261-2.383L12.14,14.4l1.255,3.848H17.45C17.644,17.612,18,16.458,18.684,14.394Zm-9.729-.909,2.213.72,1.53,4.737-1.36,1.893H7.173l-.088-.142A9.867,9.867,0,0,1,5.6,16.082l-.01-.164Zm1.737,1.2L9.06,14.15,6.214,16.21a9.269,9.269,0,0,0,1.294,4.025h3.523l1-1.4Zm11.178-1.2,3.358,2.431-.007.161a9.582,9.582,0,0,1-1.458,4.616l-.088.142H19.511l-1.385-1.891.047-.146.718-2.224.718-2.224.047-.146Zm2.744,2.727L21.765,14.15l-1.632.531-.671,2.078-.671,2.078,1.024,1.4H23.34A8.985,8.985,0,0,0,24.613,16.212ZM12.955,19.1h4.96L19.3,20.992l-1.28,3.964L17.86,25a10.156,10.156,0,0,1-2.457.313A9.364,9.364,0,0,1,13.008,25l-.158-.042L11.57,20.992Zm4.656.6H13.26l-1.024,1.4,1.083,3.357a8.749,8.749,0,0,0,2.083.254,9.486,9.486,0,0,0,2.151-.256L18.636,21.1ZM7.344,21.116H11.31l1.235,3.763-.584-.217A9.706,9.706,0,0,1,7.73,21.6Zm3.531.6H8.615a9.106,9.106,0,0,0,2.962,2.14Zm8.662-.6H23.5l-.386.486a9.754,9.754,0,0,1-4.206,3.059l-.581.219Zm2.7.6H19.975l-.685,2.139A9.155,9.155,0,0,0,22.233,21.716Z" transform="translate(-5 -5.05)"/>
    </g>
  </g>
</svg>
