<svg xmlns="http://www.w3.org/2000/svg" width="19.475" height="18.5" viewBox="0 0 19.475 18.5">
  <path id="star-Bold_1_" d="M320.364,1899.909a2.278,2.278,0,0,0-1.863-1.562l-3.943-.564-1.761-3.516a2.308,2.308,0,0,0-4.119,0l-1.761,3.516-3.943.564a2.279,2.279,0,0,0-1.863,1.562,2.257,2.257,0,0,0,.59,2.332l2.845,2.734-.671,3.855a2.258,2.258,0,0,0,.9,2.221,2.3,2.3,0,0,0,2.432.187l3.531-1.829,3.531,1.829a2.3,2.3,0,0,0,2.433-.187,2.258,2.258,0,0,0,.9-2.221l-.671-3.855,2.845-2.734A2.256,2.256,0,0,0,320.364,1899.909Zm-1.94.928-3.219,3.092a.971.971,0,0,0-.284.869l.759,4.365a.307.307,0,0,1-.131.316.361.361,0,0,1-.386.029l-3.978-2.06a.971.971,0,0,0-.9,0l-3.978,2.06a.361.361,0,0,1-.386-.029.307.307,0,0,1-.131-.316l.759-4.365a.976.976,0,0,0-.284-.869l-3.219-3.092a.3.3,0,0,1-.086-.33.33.33,0,0,1,.284-.232l4.448-.637a.973.973,0,0,0,.732-.528l1.989-3.972a.361.361,0,0,1,.637,0l1.989,3.972a.975.975,0,0,0,.732.528l4.449.637a.33.33,0,0,1,.284.232A.3.3,0,0,1,318.424,1900.837Z" transform="translate(-301 -1893.001)"/>
</svg>
