<svg xmlns="http://www.w3.org/2000/svg" width="20.409" height="19.924" viewBox="0 0 20.409 19.924">
  <g id="noun_Technology_909437" transform="translate(-8 -8.9)">
    <g id="Group_1258" data-name="Group 1258" transform="translate(8 8.9)">
      <path id="Union_20" data-name="Union 20" d="M15.167,17.982h-2.4a2.672,2.672,0,0,1-5.242-.728A1.892,1.892,0,0,1,7.6,16.72L3.422,12.546a3.74,3.74,0,0,1-.752.1A2.662,2.662,0,0,1,0,9.974,2.635,2.635,0,0,1,1.941,7.426V5.266A2.713,2.713,0,1,1,3.4,5.242V7.4A2.686,2.686,0,0,1,5.339,9.974a2.418,2.418,0,0,1-.7,1.747l3.64,3.64a2.682,2.682,0,0,1,4.465,1.165h2.4a2.713,2.713,0,1,1,.024,1.456Zm1.335-.728a1.213,1.213,0,1,0,1.213-1.213A1.2,1.2,0,0,0,16.5,17.254Zm-7.523,0a1.213,1.213,0,1,0,1.213-1.213A1.2,1.2,0,0,0,8.979,17.254ZM1.456,9.974A1.213,1.213,0,1,0,2.67,8.761,1.2,1.2,0,0,0,1.456,9.974Zm0-7.28A1.213,1.213,0,1,0,2.67,1.48,1.2,1.2,0,0,0,1.456,2.694ZM0,17.254a2.669,2.669,0,1,1,2.67,2.669A2.662,2.662,0,0,1,0,17.254Zm1.456,0A1.213,1.213,0,1,0,2.67,16.041,1.2,1.2,0,0,0,1.456,17.254Zm13.59-7.28a2.669,2.669,0,1,1,2.67,2.669A2.662,2.662,0,0,1,15.046,9.974Zm1.456,0a1.213,1.213,0,1,0,1.213-1.213A1.2,1.2,0,0,0,16.5,9.974Zm-8.979,0A2.662,2.662,0,0,1,10.192,7.3a2.516,2.516,0,0,1,1.044.218l3.956-3.956a2.75,2.75,0,0,1-.146-.874,2.669,2.669,0,1,1,2.67,2.67,2.7,2.7,0,0,1-1.675-.583L12.377,8.445a2.726,2.726,0,0,1,.485,1.529,2.669,2.669,0,1,1-5.339,0Zm1.456,0a1.213,1.213,0,1,0,1.213-1.213A1.2,1.2,0,0,0,8.979,9.974ZM16.5,2.694A1.213,1.213,0,1,0,17.715,1.48,1.2,1.2,0,0,0,16.5,2.694Zm-8.979,0a2.669,2.669,0,1,1,2.669,2.67A2.662,2.662,0,0,1,7.523,2.694Zm1.456,0A1.213,1.213,0,1,0,10.192,1.48,1.2,1.2,0,0,0,8.979,2.694Z"/>
    </g>
  </g>
</svg>
