<svg xmlns="http://www.w3.org/2000/svg" width="19.2" height="24" viewBox="0 0 19.2 24">
  <path id="user-Bold_1_" d="M696.6,1977.2a6.6,6.6,0,1,0-6.6-6.6A6.608,6.608,0,0,0,696.6,1977.2Zm0-10.8a4.2,4.2,0,1,1-4.2,4.2A4.2,4.2,0,0,1,696.6,1966.4Zm9.6,16.76v1.213a4.828,4.828,0,0,1-1.23,3.227,1.2,1.2,0,1,1-1.789-1.6,2.436,2.436,0,0,0,.618-1.626v-1.213a3.612,3.612,0,0,0-2.7-3.53.918.918,0,0,0-.673.084,7.878,7.878,0,0,1-7.633.007.922.922,0,0,0-.683-.091,3.61,3.61,0,0,0-2.706,3.531v1.213a2.432,2.432,0,0,0,.618,1.626,1.2,1.2,0,0,1-1.788,1.6,4.829,4.829,0,0,1-1.23-3.227v-1.213a6.009,6.009,0,0,1,4.52-5.858,3.325,3.325,0,0,1,2.447.328,5.47,5.47,0,0,0,5.278-.007,3.314,3.314,0,0,1,2.437-.322A6.011,6.011,0,0,1,706.2,1983.16Z" transform="translate(-687 -1964)"/>
</svg>
