<svg xmlns="http://www.w3.org/2000/svg" width="12" height="16.8" viewBox="0 0 12 16.8">
  <g id="Group_958" data-name="Group 958" transform="translate(-49 -408.5)">
    <path id="Path_98" data-name="Path 98" d="M14.284,3.477a3.021,3.021,0,0,1,2.971,3.068,2.972,2.972,0,1,1-5.942,0,3.021,3.021,0,0,1,2.971-3.068m0-1.227a4.229,4.229,0,0,0-4.159,4.3,4.161,4.161,0,1,0,8.318,0,4.229,4.229,0,0,0-4.159-4.3Z" transform="translate(40.716 406.25)" fill="#131212"/>
    <path id="Path_99" data-name="Path 99" d="M18.75,27.614h-1.2V24.545a3.035,3.035,0,0,0-3-3.068h-3.6a3.035,3.035,0,0,0-3,3.068v3.068H6.75V24.545a4.249,4.249,0,0,1,4.2-4.3h3.6a4.249,4.249,0,0,1,4.2,4.3Z" transform="translate(42.25 397.686)" fill="#131212"/>
  </g>
</svg>
