<svg xmlns="http://www.w3.org/2000/svg" width="22.139" height="15.85" viewBox="0 0 22.139 15.85">
  <g id="_3844476_eye_see_show_view_watch_icon" data-name="3844476_eye_see_show_view_watch_icon" transform="translate(-2.15 -6.15)">
    <path id="XMLID_10_" d="M13.22,6.15A11.838,11.838,0,0,1,20.077,8.3a11.14,11.14,0,0,1,4.166,5.5.85.85,0,0,1,0,.553,11.14,11.14,0,0,1-4.166,5.5,12,12,0,0,1-13.715,0,11.14,11.14,0,0,1-4.166-5.5.85.85,0,0,1,0-.553A11.14,11.14,0,0,1,6.362,8.3,11.838,11.838,0,0,1,13.22,6.15Zm9.316,7.925A9.877,9.877,0,0,0,13.22,7.85,9.877,9.877,0,0,0,3.9,14.075,9.877,9.877,0,0,0,13.22,20.3,9.877,9.877,0,0,0,22.535,14.075Z" transform="translate(0 0)"/>
    <path id="XMLID_12_" d="M4-.85A4.85,4.85,0,1,1-.85,4,4.855,4.855,0,0,1,4-.85Zm0,8A3.15,3.15,0,1,0,.85,4,3.154,3.154,0,0,0,4,7.15Z" transform="translate(9 10)"/>
  </g>
</svg>
