<svg xmlns="http://www.w3.org/2000/svg" width="117" height="132" viewBox="0 0 117 132">
  <g id="Group_1353" data-name="Group 1353" transform="translate(-12 -31)">
    <text id="Knaw_news" data-name="Knaw news" transform="translate(12 156)" font-size="21" font-family="GalanoGrotesqueAltDEMO-Bold, Galano Grotesque Alt DEMO" font-weight="700"><tspan x="0" y="0">Knaw News</tspan></text>
    <g id="Group_997" data-name="Group 997" transform="translate(27.106 31)">
      <path id="Ellipse_154" data-name="Ellipse 154" d="M44.6,4.108a40.5,40.5,0,0,0-15.759,77.8A40.5,40.5,0,0,0,60.357,7.288,40.233,40.233,0,0,0,44.6,4.108M44.6,0A44.6,44.6,0,1,1,0,44.6,44.6,44.6,0,0,1,44.6,0Z" transform="translate(0 0)" fill="#ffbb01"/>
      <path id="Ellipse_155" data-name="Ellipse 155" d="M31.1,4.108A27,27,0,0,0,20.6,55.975,27,27,0,0,0,41.607,6.227,26.82,26.82,0,0,0,31.1,4.108M31.1,0A31.1,31.1,0,1,1,0,31.1,31.1,31.1,0,0,1,31.1,0Z" transform="translate(12.91 0)" fill="#ffbb01"/>
      <path id="Ellipse_156" data-name="Ellipse 156" d="M31.1,4.108A27,27,0,0,0,20.6,55.975,27,27,0,0,0,41.607,6.227,26.82,26.82,0,0,0,31.1,4.108M31.1,0A31.1,31.1,0,1,1,0,31.1,31.1,31.1,0,0,1,31.1,0Z" transform="translate(21.125 24.646)" fill="#ffbb01"/>
    </g>
  </g>
</svg>
