<svg xmlns="http://www.w3.org/2000/svg" width="20.2" height="20.2" viewBox="0 0 20.2 20.2">
  <g id="noun_world_104260" transform="translate(-4.9 -4.9)">
    <path id="Path_1288" data-name="Path 1288" d="M25,14.933a10,10,0,0,0-20,0v.133a10,10,0,0,0,20,0v-.133Zm-3.356,5.956a10.45,10.45,0,0,0-1.933-1.356,18.271,18.271,0,0,0,.556-3.978h3.6A8.84,8.84,0,0,1,21.644,20.889ZM6.133,15.556h3.6a18.079,18.079,0,0,0,.556,3.978,9.489,9.489,0,0,0-1.933,1.356A8.84,8.84,0,0,1,6.133,15.556ZM8.356,9.111a10.45,10.45,0,0,0,1.933,1.356,16.844,16.844,0,0,0-.556,3.978h-3.6A8.84,8.84,0,0,1,8.356,9.111Zm6.089,1.4a8.977,8.977,0,0,1-2.822-.644c.667-1.956,1.667-3.333,2.822-3.667Zm0,1.111v2.822h-3.6a17.189,17.189,0,0,1,.467-3.511A10.158,10.158,0,0,0,14.444,11.622Zm0,3.933v2.822a10.158,10.158,0,0,0-3.133.689,17.189,17.189,0,0,1-.467-3.511h3.6Zm0,3.933V23.8c-1.156-.333-2.156-1.733-2.822-3.667A8.977,8.977,0,0,1,14.444,19.489Zm1.111,0a8.977,8.977,0,0,1,2.822.644c-.667,1.956-1.667,3.333-2.822,3.667V19.489Zm0-1.111V15.556h3.6a17.189,17.189,0,0,1-.467,3.511A10.158,10.158,0,0,0,15.556,18.378Zm0-3.933V11.622a10.158,10.158,0,0,0,3.133-.689,17.189,17.189,0,0,1,.467,3.511Zm0-3.933V6.2c1.156.333,2.156,1.733,2.822,3.667A8.977,8.977,0,0,1,15.556,10.511ZM17.889,6.6a8.95,8.95,0,0,1,2.978,1.733A9.313,9.313,0,0,1,19.4,9.378,9.122,9.122,0,0,0,17.889,6.6ZM10.622,9.378A8.39,8.39,0,0,1,9.156,8.333,8.95,8.95,0,0,1,12.133,6.6,8.263,8.263,0,0,0,10.622,9.378Zm0,11.244A9.907,9.907,0,0,0,12.111,23.4a8.95,8.95,0,0,1-2.978-1.733A8.555,8.555,0,0,1,10.622,20.622Zm8.756,0a8.39,8.39,0,0,1,1.467,1.044A8.95,8.95,0,0,1,17.867,23.4,8.264,8.264,0,0,0,19.378,20.622Zm.889-6.178a16.844,16.844,0,0,0-.556-3.978,9.489,9.489,0,0,0,1.933-1.356,8.974,8.974,0,0,1,2.222,5.333Z" transform="translate(0 0)"/>
    <path id="Path_1288_-_Outline" data-name="Path 1288 - Outline" d="M15,4.9A10.116,10.116,0,0,1,25.1,14.932v.134a10.1,10.1,0,0,1-20.2,0v-.134A10.116,10.116,0,0,1,15,4.9Zm0,20a9.916,9.916,0,0,0,9.9-9.834v-.132a9.9,9.9,0,0,0-19.8,0v.132A9.916,9.916,0,0,0,15,24.9ZM14.444,6.1a.1.1,0,0,1,.1.1v4.311a.1.1,0,0,1-.107.1,9.085,9.085,0,0,1-2.854-.652.1.1,0,0,1-.056-.125c.706-2.072,1.732-3.4,2.889-3.73A.1.1,0,0,1,14.444,6.1Zm-.1,4.3V6.338c-1.012.368-1.95,1.62-2.6,3.472A8.883,8.883,0,0,0,14.344,10.4Zm1.211-4.3a.1.1,0,0,1,.028,0c1.148.331,2.174,1.656,2.889,3.73a.1.1,0,0,1-.056.125,9.085,9.085,0,0,1-2.854.652.1.1,0,0,1-.107-.1V6.2a.1.1,0,0,1,.1-.1Zm2.7,3.71c-.655-1.854-1.593-3.106-2.6-3.472V10.4A8.883,8.883,0,0,0,18.252,9.81ZM17.889,6.5a.1.1,0,0,1,.033.006,9.066,9.066,0,0,1,3.011,1.753.1.1,0,0,1,0,.151,9.449,9.449,0,0,1-1.483,1.056.1.1,0,0,1-.143-.053,8.954,8.954,0,0,0-1.493-2.747.1.1,0,0,1,.076-.165Zm2.824,1.833A8.864,8.864,0,0,0,18.19,6.818a9.525,9.525,0,0,1,1.263,2.414A9.279,9.279,0,0,0,20.713,8.333ZM12.133,6.5a.1.1,0,0,1,.075.166A8.214,8.214,0,0,0,10.717,9.41a.1.1,0,0,1-.144.055A8.508,8.508,0,0,1,9.089,8.408a.1.1,0,0,1,0-.15A9.066,9.066,0,0,1,12.1,6.506.1.1,0,0,1,12.133,6.5ZM10.567,9.231a8.606,8.606,0,0,1,1.255-2.409A8.865,8.865,0,0,0,9.307,8.334,8.34,8.34,0,0,0,10.567,9.231Zm-2.212-.22a.1.1,0,0,1,.066.025,10.291,10.291,0,0,0,1.915,1.343.1.1,0,0,1,.048.114,16.81,16.81,0,0,0-.552,3.954.1.1,0,0,1-.1.1h-3.6a.1.1,0,0,1-.1-.106A8.979,8.979,0,0,1,8.281,9.045a.1.1,0,0,1,.069-.034Zm1.816,1.505A10.478,10.478,0,0,1,8.365,9.252,8.782,8.782,0,0,0,6.24,14.344h3.4A17.011,17.011,0,0,1,10.172,10.516ZM21.644,9.011h.006a.1.1,0,0,1,.069.034,9.015,9.015,0,0,1,2.247,5.393.1.1,0,0,1-.1.107h-3.6a.1.1,0,0,1-.1-.1,16.81,16.81,0,0,0-.552-3.954.1.1,0,0,1,.05-.116,9.415,9.415,0,0,0,1.913-1.341A.1.1,0,0,1,21.644,9.011Zm2.114,5.333a8.811,8.811,0,0,0-2.124-5.092,9.613,9.613,0,0,1-1.806,1.265,17.015,17.015,0,0,1,.535,3.827ZM11.311,10.833a.1.1,0,0,1,.037.007,10.019,10.019,0,0,0,3.1.682.1.1,0,0,1,.094.1v2.822a.1.1,0,0,1-.1.1h-3.6a.1.1,0,0,1-.1-.1,17.167,17.167,0,0,1,.47-3.532.1.1,0,0,1,.1-.076Zm3.033.882a10.226,10.226,0,0,1-2.963-.648,17.006,17.006,0,0,0-.433,3.276h3.4Zm4.344-.882a.1.1,0,0,1,.1.076,17.165,17.165,0,0,1,.47,3.532.1.1,0,0,1-.1.1h-3.6a.1.1,0,0,1-.1-.1V11.622a.1.1,0,0,1,.094-.1,10.019,10.019,0,0,0,3.1-.682A.1.1,0,0,1,18.689,10.833Zm.363,3.511a17.005,17.005,0,0,0-.433-3.276,10.226,10.226,0,0,1-2.963.648v2.629Zm-8.207,1.111h3.6a.1.1,0,0,1,.1.1v2.822a.1.1,0,0,1-.094.1,10.019,10.019,0,0,0-3.1.682.1.1,0,0,1-.134-.069,17.165,17.165,0,0,1-.47-3.532.1.1,0,0,1,.1-.1Zm3.5.2h-3.4a17.005,17.005,0,0,0,.433,3.276,10.226,10.226,0,0,1,2.963-.648Zm-8.211-.2h3.6a.1.1,0,0,1,.1.1,18,18,0,0,0,.552,3.956.1.1,0,0,1-.051.114,9.415,9.415,0,0,0-1.913,1.341.1.1,0,0,1-.141-.009,8.979,8.979,0,0,1-2.247-5.394.1.1,0,0,1,.1-.106Zm3.5.2H6.24a8.782,8.782,0,0,0,2.125,5.092,9.611,9.611,0,0,1,1.808-1.266A18.194,18.194,0,0,1,9.637,15.656Zm5.919-.2h3.6a.1.1,0,0,1,.1.1,17.165,17.165,0,0,1-.47,3.532.1.1,0,0,1-.134.069,10.019,10.019,0,0,0-3.1-.682.1.1,0,0,1-.094-.1V15.556A.1.1,0,0,1,15.556,15.456Zm3.5.2h-3.4v2.629a10.226,10.226,0,0,1,2.963.648A17.005,17.005,0,0,0,19.052,15.656Zm1.215-.2h3.6a.1.1,0,0,1,.1.106,8.979,8.979,0,0,1-2.247,5.394.1.1,0,0,1-.141.009,10.291,10.291,0,0,0-1.915-1.343.1.1,0,0,1-.049-.113,18.292,18.292,0,0,0,.552-3.956A.1.1,0,0,1,20.267,15.456Zm3.493.2h-3.4a18.515,18.515,0,0,1-.536,3.828,10.478,10.478,0,0,1,1.808,1.264A8.782,8.782,0,0,0,23.76,15.656Zm-9.316,3.733a.1.1,0,0,1,.1.1V23.8a.1.1,0,0,1-.128.1c-1.148-.331-2.174-1.656-2.889-3.73a.1.1,0,0,1,.056-.125,9.085,9.085,0,0,1,2.854-.652Zm-.1,4.273V19.6a8.883,8.883,0,0,0-2.6.593C12.4,22.044,13.341,23.3,14.344,23.662Zm1.211-4.273h.007a9.085,9.085,0,0,1,2.854.652.1.1,0,0,1,.056.125c-.706,2.072-1.732,3.4-2.889,3.73a.1.1,0,0,1-.128-.1V19.489a.1.1,0,0,1,.1-.1Zm2.7.8a8.882,8.882,0,0,0-2.6-.594v4.066C16.667,23.294,17.605,22.042,18.252,20.19Zm1.125.332a.1.1,0,0,1,.049.013,8.508,8.508,0,0,1,1.484,1.057.1.1,0,0,1,0,.15A9.066,9.066,0,0,1,17.9,23.494a.1.1,0,0,1-.108-.16,8.214,8.214,0,0,0,1.492-2.744.1.1,0,0,1,.095-.068Zm1.315,1.144a8.34,8.34,0,0,0-1.26-.9,8.606,8.606,0,0,1-1.255,2.409A8.865,8.865,0,0,0,20.693,21.666Zm-10.07-1.144a.1.1,0,0,1,.094.066,9.78,9.78,0,0,0,1.473,2.75.1.1,0,0,1-.111.156,9.066,9.066,0,0,1-3.011-1.753.1.1,0,0,1,0-.151,8.631,8.631,0,0,1,1.506-1.056A.1.1,0,0,1,10.622,20.522Zm1.2,2.667a10.2,10.2,0,0,1-1.259-2.423,8.436,8.436,0,0,0-1.281.9A8.864,8.864,0,0,0,11.827,23.189Z" transform="translate(0 0)" fill="#c1c1c1"/>
  </g>
</svg>
